<svg xmlns="http://www.w3.org/2000/svg" width="50" height="50" fill="none" viewBox="0 0 50 50">
	<path fill="#282A33" d="M49 25c0 13.255-10.745 24-24 24S1 38.255 1 25 11.745 1 25 1s24 10.745 24 24ZM1.96 25c0 12.725 10.315 23.04 23.04 23.04S48.04 37.725 48.04 25 37.725 1.96 25 1.96 1.96 12.275 1.96 25Z"/>
	<path fill="#D2233C" d="M49 25c0 13.255-10.745 24-24 24S1 38.255 1 25 11.745 1 25 1s24 10.745 24 24ZM1.96 25c0 12.725 10.315 23.04 23.04 23.04S48.04 37.725 48.04 25 37.725 1.96 25 1.96 1.96 12.275 1.96 25Z"/>
	<path stroke="#282A33" stroke-width="2" d="M25 37V13.368"/>
	<path stroke="#282A33" stroke-width="1.9" d="M16 22.287 25 13l9 9.287"/>
</svg>
