<svg xmlns="http://www.w3.org/2000/svg" width="27" height="27" version="1.2" viewBox="0 0 27 27">
	<path fill="#282a33" d="M1 6c0-2.8 2.2-5 5-5h15c2.8 0 5 2.2 5 5v15c0 2.8-2.2 5-5 5H6c-2.8 0-5-2.2-5-5z"/>
	<path fill="#fff" d="M6.2 13.1c1.5-.8 3.2-1.5 4.8-2.2q4-1.7 8.1-3.3c.5-.2 1.5-.4 1.6.4-.1 1.1-.3 2.2-.4 3.4-.4 2.4-.8 4.8-1.2 7.3-.2.8-1.2 1.2-1.8.7-1.6-1.1-3.2-2.1-4.7-3.2-.5-.5 0-1.3.4-1.6 1.3-1.3 2.7-2.4 3.9-3.7.3-.8-.7-.1-1 .1-1.7 1.2-3.5 2.5-5.3 3.5-1 .6-2.1.1-3-.2-.9-.3-2.1-.7-1.4-1.2z"/>
</svg>
