<svg xmlns="http://www.w3.org/2000/svg" width="27" height="27" version="1.2" viewBox="0 0 27 27">
	<path fill="#282a33" d="M1 6c0-2.8 2.2-5 5-5h15c2.8 0 5 2.2 5 5v15c0 2.8-2.2 5-5 5H6c-2.8 0-5-2.2-5-5z"/>
	<path fill="#fff" fill-rule="evenodd" d="M21.1 9.5c.1-.3 0-.6-.5-.6h-1.8c-.4 0-.6.2-.8.5 0 0-.9 2.2-2.1 3.6-.4.4-.6.6-.9.6-.1 0-.2-.2-.2-.5V9.5c0-.4-.2-.6-.6-.6h-2.7c-.3 0-.5.2-.5.4 0 .4.7.5.7 1.7v2.7c0 .5-.1.6-.3.6-.6 0-2.1-2.2-2.9-4.8-.2-.5-.4-.6-.8-.6H5.9c-.5 0-.6.2-.6.5 0 .4.6 2.8 2.8 5.9 1.4 2.1 3.5 3.3 5.4 3.3 1.1 0 1.3-.3 1.3-.7v-1.6c0-.6.1-.6.4-.6.3 0 .7.1 1.8 1.1 1.2 1.2 1.4 1.8 2.1 1.8h1.7c.6 0 .8-.3.7-.8-.2-.5-.8-1.2-1.5-2.1-.4-.5-1.1-1-1.3-1.3-.2-.3-.1-.4 0-.7 0 0 2.2-3.1 2.4-4.2z"/>
</svg>
