<?xml version="1.0" standalone="no"?>
<!DOCTYPE svg PUBLIC "-//W3C//DTD SVG 1.1//EN" "http://www.w3.org/Graphics/SVG/1.1/DTD/svg11.dtd" >
<svg xmlns="http://www.w3.org/2000/svg" xmlns:xlink="http://www.w3.org/1999/xlink" version="1.1">
<metadata></metadata>
<defs>
<font id="sf_pro_displaybold" horiz-adv-x="1121" >
<font-face units-per-em="2048" ascent="1638" descent="-410" />
<missing-glyph horiz-adv-x="405" />
<glyph horiz-adv-x="0" />
<glyph unicode="&#xd;" horiz-adv-x="0" />
<glyph unicode=" "  horiz-adv-x="405" />
<glyph unicode="&#x09;" horiz-adv-x="405" />
<glyph unicode="&#xa0;" horiz-adv-x="405" />
<glyph unicode="!" horiz-adv-x="648" d="M174 1443h300l-24 -968h-252zM324 -25q-68 0 -115.5 45.5t-47.5 111.5t47.5 111.5t115.5 45.5t115.5 -45.5t47.5 -111.5t-47.5 -111.5t-115.5 -45.5z" />
<glyph unicode="&#x22;" horiz-adv-x="929" d="M358 880h-250v563h250v-563zM821 880h-250v563h250v-563z" />
<glyph unicode="#" horiz-adv-x="1304" d="M630 0l76 380h-259l-77 -380h-220l75 380h-225l41 216h227l54 270h-230l41 214h232l74 364h220l-72 -364h259l73 364h222l-73 -364h236l-40 -214h-239l-55 -270h241l-40 -216h-243l-76 -380h-222zM471 577h287l63 307h-288z" />
<glyph unicode="$" horiz-adv-x="1326" d="M741 -137h-141v128q-236 14 -370.5 125.5t-135.5 295.5h286q5 -78 65 -131t155 -63v390l-106 25q-181 42 -275.5 144.5t-94.5 258.5q0 184 125.5 296.5t350.5 130.5v137h141v-138q210 -19 335.5 -132.5t128.5 -286.5h-278q-2 71 -54 124t-132 64v-373l107 -21 q384 -84 384 -406q0 -190 -127.5 -304.5t-363.5 -134.5v-129zM949 399q0 73 -51 118t-157 66v-366q98 6 153 54t55 128zM413 1061q0 -134 187 -174v345q-82 -5 -134.5 -52.5t-52.5 -118.5z" />
<glyph unicode="%" horiz-adv-x="1670" d="M703 1097q0 -172 -88.5 -273t-240.5 -101q-151 0 -240 101t-89 273t89 273t240 101t240 -101t89 -273zM374 900q49 0 77 52.5t28 145.5t-28 146t-77 53t-77 -53t-28 -146t28 -145.5t77 -52.5zM430 0h-242l560 767l493 676h241l-544 -746zM1625 354q0 -173 -89 -274 t-240 -101t-240 101.5t-89 273.5t89 273t240 101t240 -101t89 -273zM1296 157q49 0 77 52.5t28 145.5t-28 146t-77 53t-77 -53t-28 -146t28 -145.5t77 -52.5z" />
<glyph unicode="&#x26;" horiz-adv-x="1437" d="M1129 0l-111 120q-80 -69 -198 -107.5t-249 -38.5q-229 0 -366 110t-137 294q0 123 64.5 215.5t202.5 168.5q6 3 22 11.5t28.5 15.5t14.5 8q-98 101 -138.5 176t-40.5 154q0 145 116.5 240t292.5 95q177 0 289.5 -92.5t112.5 -237.5q0 -111 -71 -202t-221 -173l274 -296 q52 92 52 273v76h243v-93q0 -267 -122 -436l269 -281h-327zM494 623q-82 -52 -117.5 -103.5t-35.5 -118.5q0 -97 72 -156t188 -59q78 0 150 27t114 73l-331 358q-12 -6 -40 -21zM605 893q98 51 141 102.5t43 116.5q0 69 -44 112.5t-114 43.5t-115 -44t-45 -112 q0 -50 30 -98.5t104 -120.5z" />
<glyph unicode="'" horiz-adv-x="466" d="M358 880h-250v563h250v-563z" />
<glyph unicode="(" horiz-adv-x="782" d="M182 567q0 265 72.5 480t224.5 396h268q-112 -131 -188 -379.5t-76 -495.5t76 -496.5t188 -381.5h-268q-153 183 -225 398t-72 479z" />
<glyph unicode=")" horiz-adv-x="782" d="M600 567q0 -286 -77 -497t-219 -380h-269q102 121 183 362t81 516q0 274 -80.5 514.5t-183.5 360.5h269q141 -167 218.5 -377.5t77.5 -498.5z" />
<glyph unicode="*" horiz-adv-x="994" d="M796 841l-231 161l25 -280h-182l25 280l-232 -162l-90 161l252 115l-252 117l90 160l230 -158l-23 277h183l-24 -276l229 158l92 -161l-255 -117l255 -115z" />
<glyph unicode="+" horiz-adv-x="1326" d="M794 451v-437h-262v437h-408v255h408v432h262v-432h408v-255h-408z" />
<glyph unicode="," horiz-adv-x="569" d="M310 -316h-219l75 564h278z" />
<glyph unicode="-" horiz-adv-x="905" d="M781 459h-657v255h657v-255z" />
<glyph unicode="&#x2011;" horiz-adv-x="905" d="M781 459h-657v255h657v-255z" />
<glyph unicode="." horiz-adv-x="569" d="M285 -12q-67 0 -114 47t-47 114t47 114t114 47t114 -47t47 -114t-47 -114t-114 -47z" />
<glyph unicode="/" horiz-adv-x="782" d="M270 -310h-270l513 1753h269z" />
<glyph unicode="0" horiz-adv-x="1333" d="M667 -32q-272 0 -428 202.5t-156 553.5q0 349 156.5 550.5t427.5 201.5t427 -201t156 -550q0 -350 -155.5 -553.5t-427.5 -203.5zM667 210q130 0 203 134.5t73 379.5q0 243 -73.5 376.5t-202.5 133.5t-203 -134t-74 -376q0 -244 73.5 -379t203.5 -135z" />
<glyph unicode="1" horiz-adv-x="983" d="M463 0v1166h-6l-368 -254v272l373 259h300v-1443h-299z" />
<glyph unicode="2" horiz-adv-x="1235" d="M85 1009q0 205 148.5 335.5t384.5 130.5q227 0 370 -117.5t143 -299.5q0 -65 -19.5 -125.5t-62 -121t-85.5 -109t-112 -117.5l-352 -339v-6h651v-240h-1049v203l544 524q110 110 150.5 177t40.5 142q0 82 -65 138t-164 56q-105 0 -174 -65.5t-69 -165.5v-5h-280v5z" />
<glyph unicode="3" horiz-adv-x="1290" d="M453 630v218h175q103 0 167 56t64 145t-61 141.5t-172 52.5q-105 0 -170 -57t-71 -152h-278q8 201 153 321t379 120q226 0 365.5 -106t139.5 -279q0 -131 -82 -222t-216 -115v-6q163 -14 258.5 -106.5t95.5 -241.5q0 -193 -158.5 -312t-409.5 -119q-243 0 -392.5 122 t-160.5 323h289q7 -92 78.5 -147t189.5 -55q113 0 185 58t72 149q0 99 -70 155.5t-192 56.5h-178z" />
<glyph unicode="4" horiz-adv-x="1327" d="M790 0v257h-718v257q176 336 579 929h426v-944h188v-242h-188v-257h-287zM337 498v-8h459v739h-6q-167 -244 -268 -406.5t-185 -324.5z" />
<glyph unicode="5" horiz-adv-x="1280" d="M657 -32q-232 0 -383.5 124.5t-158.5 320.5h279q13 -92 86.5 -149t178.5 -57q118 0 192.5 74.5t74.5 192.5q0 120 -74 196t-191 76q-82 0 -148.5 -35.5t-104.5 -97.5h-270l71 830h918v-240h-681l-33 -395h6q45 74 128.5 116t192.5 42q207 0 340.5 -136.5t133.5 -347.5 q0 -229 -154.5 -371.5t-402.5 -142.5z" />
<glyph unicode="6" horiz-adv-x="1317" d="M684 -33q-156 0 -279.5 68.5t-199.5 197.5q-121 185 -121 477q0 357 162 561.5t443 204.5q206 0 353 -111t177 -288h-297q-22 72 -86 116t-149 44q-152 0 -236.5 -138t-79.5 -381h6q44 107 146 171t238 64q206 0 341.5 -135.5t135.5 -340.5q0 -223 -156 -366.5 t-398 -143.5zM681 208q110 0 186.5 75.5t76.5 184.5q0 112 -74.5 185t-187.5 73t-188.5 -73t-75.5 -182q0 -110 76 -186.5t187 -76.5z" />
<glyph unicode="7" horiz-adv-x="1172" d="M177 0l621 1197v6h-734v240h1032v-243l-602 -1200h-317z" />
<glyph unicode="8" horiz-adv-x="1336" d="M668 -32q-262 0 -423.5 117.5t-161.5 305.5q0 142 94 243.5t245 126.5v6q-126 29 -203.5 118.5t-77.5 208.5q0 166 148 273.5t379 107.5q232 0 379 -107.5t147 -274.5q0 -117 -77 -206.5t-203 -119.5v-6q152 -26 245.5 -127.5t93.5 -243.5q0 -188 -162.5 -305 t-422.5 -117zM668 188q119 0 194 63.5t75 161.5t-75 161.5t-194 63.5t-194.5 -63.5t-75.5 -161.5t75.5 -161.5t194.5 -63.5zM668 858q100 0 164 56.5t64 142.5q0 87 -64 143.5t-164 56.5t-164 -56.5t-64 -143.5t64 -143t164 -56z" />
<glyph unicode="9" horiz-adv-x="1321" d="M631 -32q-207 0 -355 111.5t-178 288.5h298q22 -73 87.5 -117t152.5 -44q151 0 234.5 137t77.5 383h-3h-2h-1q-40 -108 -142 -172t-242 -64q-205 0 -342 135.5t-137 340.5q0 222 157 365.5t399 143.5q157 0 281.5 -68t199.5 -196q121 -186 121 -478q0 -359 -160.5 -562.5 t-445.5 -203.5zM637 718q113 0 188.5 73.5t75.5 182.5q0 110 -76 185.5t-186 75.5q-111 0 -188 -75t-77 -184q0 -111 75 -184.5t188 -73.5z" />
<glyph unicode=":" horiz-adv-x="569" d="M285 -12q-67 0 -114 47t-47 114t47 114t114 47t114 -47t47 -114t-47 -114t-114 -47zM285 703q-67 0 -114 47t-47 114q0 68 47 114.5t114 46.5t114 -47t47 -114t-47 -114t-114 -47z" />
<glyph unicode=";" horiz-adv-x="569" d="M285 703q-67 0 -114 47t-47 114q0 68 47 114.5t114 46.5t114 -47t47 -114t-47 -114t-114 -47zM304 -316h-219l75 564h278z" />
<glyph unicode="&#x3c;" horiz-adv-x="1326" d="M1140 906l-657 -319v-10l657 -309v-291l-953 489v225l953 506v-291z" />
<glyph unicode="=" horiz-adv-x="1326" d="M1187 220h-1048v251h1048v-251zM1187 687h-1048v251h1048v-251z" />
<glyph unicode="&#x3e;" horiz-adv-x="1326" d="M187 907v290l953 -505v-226l-953 -488v291l656 308v10z" />
<glyph unicode="?" horiz-adv-x="1093" d="M54 1038q4 189 132 303.5t354 114.5q213 0 344 -107.5t131 -279.5q0 -111 -53 -193.5t-161 -145.5q-100 -58 -135 -104t-35 -120v-53h-265l-2 58q-10 116 32.5 191t147.5 137q97 58 132.5 104t35.5 117q0 72 -52.5 118t-137.5 46q-86 0 -139 -50.5t-58 -135.5h-271z M502 -25q-68 0 -115.5 45.5t-47.5 111.5t47.5 111.5t115.5 45.5t116 -45.5t48 -111.5t-48 -111.5t-116 -45.5z" />
<glyph unicode="@" horiz-adv-x="1810" d="M893 841q-79 0 -124 -61.5t-45 -171.5q0 -109 44.5 -171t123.5 -62q81 0 128 62.5t47 170.5t-47 170.5t-127 62.5zM926 1449q235 0 418.5 -92.5t286 -262t102.5 -388.5q0 -237 -105.5 -377.5t-287.5 -140.5q-94 0 -159.5 42.5t-81.5 114.5h-14q-63 -154 -241 -154 q-156 0 -251.5 116.5t-95.5 306.5q0 182 93.5 295.5t243.5 113.5q81 0 144.5 -38t92.5 -104h14v120h203v-535q0 -53 24.5 -83t70.5 -30q75 0 120.5 90.5t45.5 247.5q0 272 -172.5 435.5t-457.5 163.5q-289 0 -472 -189.5t-183 -490.5q0 -311 189.5 -489t503.5 -178 q178 0 273 35v-160q-125 -37 -288 -37q-189 0 -348 58t-273 164.5t-177.5 263.5t-63.5 348q0 245 107 435t299.5 294.5t439.5 104.5z" />
<glyph unicode="A" horiz-adv-x="1413" d="M1065 0l-110 350h-507l-110 -350h-310l501 1443h355l502 -1443h-321zM698 1167l-185 -591h377l-185 591h-7z" />
<glyph unicode="B" horiz-adv-x="1310" d="M759 0h-639v1443h628q203 0 322 -97t119 -263q0 -118 -77.5 -207t-193.5 -106v-8q148 -11 244 -109t96 -240q0 -191 -134 -302t-365 -111zM422 1218v-375h217q121 0 187 50.5t66 142.5q0 87 -58 134.5t-164 47.5h-248zM422 225h260q131 0 199.5 54.5t68.5 157.5 q0 101 -70.5 154t-204.5 53h-253v-419z" />
<glyph unicode="C" horiz-adv-x="1459" d="M758 -25q-316 0 -499.5 199.5t-183.5 547.5q0 347 184 546.5t499 199.5q172 0 312.5 -68t225.5 -192t96 -283h-294q-21 133 -114.5 213t-225.5 80q-171 0 -273 -134t-102 -361q0 -231 101 -364.5t275 -133.5q134 0 225 74t115 202h294q-25 -241 -197 -383.5t-438 -142.5z " />
<glyph unicode="D" horiz-adv-x="1433" d="M120 1443h551q326 0 507 -187t181 -529q0 -343 -181.5 -535t-506.5 -192h-551v1443zM422 1194v-944h213q203 0 309.5 121.5t106.5 354.5q0 226 -108 347t-308 121h-213z" />
<glyph unicode="E" horiz-adv-x="1174" d="M1076 250v-250h-956v1443h956v-249h-654v-348h617v-232h-617v-364h654z" />
<glyph unicode="F" horiz-adv-x="1123" d="M422 0h-302v1443h945v-249h-643v-387h587v-239h-587v-568z" />
<glyph unicode="G" horiz-adv-x="1489" d="M1410 606q0 -295 -169.5 -463t-470.5 -168q-324 0 -509.5 200t-185.5 551q0 346 184.5 544t503.5 198q252 0 427 -136t207 -355h-303q-33 113 -120.5 177t-209.5 64q-179 0 -280 -129t-101 -359q0 -234 105.5 -369t286.5 -135q148 0 241.5 83t98.5 217l1 23h-314v220h608 v-163z" />
<glyph unicode="H" horiz-adv-x="1494" d="M1374 0h-302v608h-650v-608h-302v1443h302v-586h650v586h302v-1443z" />
<glyph unicode="I" horiz-adv-x="542" d="M422 0h-302v1443h302v-1443z" />
<glyph unicode="J" horiz-adv-x="1143" d="M31 425h293q2 -88 54.5 -141t137.5 -53q95 0 144.5 57t49.5 166v989h302v-991q0 -229 -130 -355.5t-363 -126.5q-221 0 -354.5 124t-133.5 331z" />
<glyph unicode="K" horiz-adv-x="1353" d="M422 0h-302v1443h302v-658h9l542 658h336l-534 -640l571 -803h-361l-428 603l-135 -162v-441z" />
<glyph unicode="L" horiz-adv-x="1112" d="M1053 250v-250h-933v1443h302v-1193h631z" />
<glyph unicode="M" horiz-adv-x="1768" d="M1648 0h-269v974h-8l-392 -960h-190l-392 960h-8v-974h-269v1443h350l410 -1023h8l410 1023h350v-1443z" />
<glyph unicode="N" horiz-adv-x="1463" d="M409 0h-289v1443h252l674 -940h8v940h289v-1443h-250l-675 945h-9v-945z" />
<glyph unicode="O" horiz-adv-x="1541" d="M771 1468q321 0 508.5 -201t187.5 -546q0 -344 -188 -545t-508 -201q-321 0 -508.5 201t-187.5 545q0 345 187.5 546t508.5 201zM771 1216q-177 0 -282.5 -134t-105.5 -361q0 -226 105 -359.5t283 -133.5q177 0 282 133.5t105 359.5q0 227 -105 361t-282 134z" />
<glyph unicode="P" horiz-adv-x="1265" d="M120 1443h587q223 0 361.5 -136t138.5 -358q0 -221 -143 -357.5t-372 -136.5h-270v-455h-302v1443zM422 1204v-513h204q130 0 202 67t72 190t-71.5 189.5t-201.5 66.5h-205z" />
<glyph unicode="Q" horiz-adv-x="1541" d="M771 -25q-322 0 -509 200t-187 546q0 344 187.5 545.5t508.5 201.5q320 0 507.5 -201.5t187.5 -545.5q0 -190 -59 -339.5t-171 -241.5l183 -276h-293l-103 151q-114 -40 -252 -40zM771 225q53 0 103 14l-158 236h273l63 -86q106 122 106 332q0 227 -105 362.5t-282 135.5 q-178 0 -283 -135.5t-105 -362.5t105 -361.5t283 -134.5z" />
<glyph unicode="R" horiz-adv-x="1311" d="M422 1207v-460h260q114 0 177.5 61t63.5 169q0 105 -66 167.5t-178 62.5h-257zM422 528v-528h-302v1443h591q247 0 384.5 -122.5t137.5 -337.5q0 -141 -69.5 -251.5t-192.5 -158.5l304 -573h-342l-269 528h-242z" />
<glyph unicode="S" horiz-adv-x="1293" d="M66 411h291q10 -88 93.5 -142.5t204.5 -54.5q120 0 195.5 51.5t75.5 131.5q0 70 -56 113t-187 72l-188 41q-397 85 -397 403q0 198 154.5 320t397.5 122q250 0 399 -118.5t153 -315.5h-283q-7 91 -80.5 143.5t-187.5 52.5q-112 0 -180.5 -49t-68.5 -129q0 -66 55.5 -107 t180.5 -70l175 -37q217 -46 316 -143.5t99 -262.5q0 -210 -158 -333.5t-427 -123.5q-261 0 -415.5 116.5t-161.5 319.5z" />
<glyph unicode="T" horiz-adv-x="1232" d="M767 0h-302v1194h-417v249h1137v-249h-418v-1194z" />
<glyph unicode="U" horiz-adv-x="1449" d="M422 1443v-903q0 -141 79.5 -223.5t223.5 -82.5q143 0 222.5 82.5t79.5 223.5v903h302v-933q0 -240 -164.5 -387.5t-439.5 -147.5q-276 0 -440.5 147.5t-164.5 387.5v933h302z" />
<glyph unicode="V" horiz-adv-x="1389" d="M877 0h-364l-485 1443h338l330 -1132h7l330 1132h329z" />
<glyph unicode="W" horiz-adv-x="1977" d="M984 986l-274 -986h-285l-382 1443h313l227 -1045h8l270 1045h255l270 -1045h8l228 1045h313l-383 -1443h-285l-274 986h-9z" />
<glyph unicode="X" horiz-adv-x="1404" d="M43 0l458 723v8l-455 712h355l306 -520h8l309 520h337l-472 -718v-7l466 -718h-344l-316 505h-8l-318 -505h-326z" />
<glyph unicode="Y" horiz-adv-x="1362" d="M832 0h-302v539l-502 904h329l323 -616h7l324 616h324l-503 -904v-539z" />
<glyph unicode="Z" horiz-adv-x="1292" d="M89 0v197l733 989v8h-716v249h1077v-196l-730 -990v-7h750v-250h-1114z" />
<glyph unicode="[" horiz-adv-x="782" d="M203 1443h554v-215h-273v-1324h273v-214h-554v1753z" />
<glyph unicode="\" horiz-adv-x="782" d="M508 -310l-508 1753h275l507 -1753h-274z" />
<glyph unicode="]" horiz-adv-x="782" d="M579 1443v-1753h-554v214h274v1324h-274v215h554z" />
<glyph unicode="^" horiz-adv-x="978" d="M480 1193l-184 -382h-251l316 612h259l314 -612h-258l-179 382h-17z" />
<glyph unicode="_" horiz-adv-x="857" d="M903 -325h-949v218h949v-218z" />
<glyph unicode="`" horiz-adv-x="1010" d="M751 1282h-233l-256 310h268z" />
<glyph unicode="a" d="M509 194q97 0 164.5 56.5t67.5 142.5v78l-226 -14q-82 -6 -126.5 -41t-44.5 -92q0 -60 45 -95t120 -35zM413 -17q-155 0 -257 91t-102 234q0 146 108 229t309 95l270 16v71q0 74 -48.5 116t-131.5 42q-80 0 -130.5 -36t-61.5 -97h-267q8 158 135 254.5t337 96.5 q206 0 330 -98t124 -260v-737h-282v164h-6q-44 -84 -134 -132.5t-193 -48.5z" />
<glyph unicode="b" horiz-adv-x="1223" d="M732 -17q-116 0 -203.5 53t-132.5 148h-6v-184h-288v1443h292v-557h6q45 96 131 149.5t200 53.5q203 0 319.5 -147t116.5 -406q0 -258 -116 -405.5t-319 -147.5zM631 855q-106 0 -172 -88t-66 -231q0 -145 65.5 -231.5t172.5 -86.5q110 0 173.5 85.5t63.5 232.5 q0 146 -64 232.5t-173 86.5z" />
<glyph unicode="c" horiz-adv-x="1116" d="M1069 673h-271q-13 87 -68.5 140t-143.5 53q-109 0 -171.5 -87.5t-62.5 -241.5q0 -157 62.5 -244t172.5 -87q87 0 142 49.5t69 137.5h272q-11 -190 -143 -303t-343 -113q-244 0 -386 149.5t-142 410.5q0 257 142.5 407.5t383.5 150.5q214 0 345.5 -118t141.5 -304z" />
<glyph unicode="d" horiz-adv-x="1220" d="M493 -17q-201 0 -319 149t-118 406q0 255 118.5 403t320.5 148q114 0 200.5 -55t126.5 -146h6v555h292v-1443h-288v184h-5q-40 -91 -129 -146t-205 -55zM592 855q-110 0 -173.5 -86t-63.5 -233q0 -148 63.5 -233t173.5 -85q109 0 173.5 85.5t64.5 232.5 q0 146 -64.5 232.5t-173.5 86.5z" />
<glyph unicode="e" horiz-adv-x="1137" d="M576 879q-95 0 -158.5 -65t-71.5 -166h455q-5 103 -66.5 167t-158.5 64zM805 328h268q-24 -158 -157.5 -254.5t-331.5 -96.5q-247 0 -387.5 148t-140.5 406q0 257 140 410.5t377 153.5q233 0 371 -146t138 -391v-89h-739v-18q0 -115 67.5 -186.5t178.5 -71.5 q80 0 138 36.5t78 98.5z" />
<glyph unicode="f" horiz-adv-x="729" d="M173 0v852h-146v215h146v81q0 160 82.5 234t270.5 74q86 0 149 -13v-193q-32 6 -79 6q-138 0 -138 -118v-71h213v-215h-206v-852h-292z" />
<glyph unicode="g" horiz-adv-x="1215" d="M590 228q110 0 174.5 82.5t64.5 227.5t-65 231t-174 86q-108 0 -171.5 -85.5t-63.5 -231.5t63 -228t172 -82zM585 -404q-209 0 -343.5 91.5t-152.5 236.5h286q17 -56 76.5 -90.5t141.5 -34.5q111 0 173 56.5t62 151.5v188h-6q-38 -87 -127 -139.5t-204 -52.5 q-198 0 -316.5 144t-118.5 393q0 255 118 402t322 147q114 0 201 -55t130 -149h5v187h288v-1057q0 -191 -146.5 -305t-388.5 -114z" />
<glyph unicode="h" horiz-adv-x="1197" d="M102 0v1443h287v-562h6q43 102 129.5 156.5t207.5 54.5q177 0 275.5 -107.5t98.5 -294.5v-690h-292v628q0 105 -51.5 163.5t-149.5 58.5q-102 0 -160.5 -65.5t-58.5 -172.5v-612h-292z" />
<glyph unicode="i" horiz-adv-x="491" d="M100 0v1072h292v-1072h-292zM246 1190q-66 0 -111 44t-45 107q0 64 45 107.5t111 43.5t111 -43.5t45 -107.5q0 -63 -45 -107t-111 -44z" />
<glyph unicode="j" horiz-adv-x="491" d="M392 1072v-1122q0 -163 -98 -247t-286 -84q-54 0 -80 4v215q14 -2 37 -2q73 0 104 28.5t31 93.5v1114h292zM246 1190q-66 0 -111 44t-45 107q0 64 45 107.5t111 43.5t111 -43.5t45 -107.5q0 -63 -45 -107t-111 -44z" />
<glyph unicode="k" horiz-adv-x="1102" d="M398 642l364 430h331l-409 -460l429 -612h-336l-307 436l-76 -82v-354h-292v1443h292v-801h4z" />
<glyph unicode="l" horiz-adv-x="496" d="M102 0v1443h292v-1443h-292z" />
<glyph unicode="m" horiz-adv-x="1768" d="M95 0v1072h282v-194h6q34 98 116 156t190 58q116 0 194 -57.5t105 -162.5h6q36 101 125.5 160.5t207.5 59.5q158 0 254.5 -99t96.5 -261v-732h-292v659q0 93 -45 142.5t-130 49.5q-83 0 -133.5 -55t-50.5 -145v-651h-281v668q0 86 -46 134.5t-127 48.5q-83 0 -134.5 -57 t-51.5 -147v-647h-292z" />
<glyph unicode="n" horiz-adv-x="1180" d="M95 0v1072h282v-191h6q44 102 128.5 156.5t206.5 54.5q178 0 275 -106t97 -295v-691h-292v630q0 106 -50 163t-147 57t-155.5 -65t-58.5 -170v-615h-292z" />
<glyph unicode="o" horiz-adv-x="1173" d="M587 -23q-245 0 -388 149t-143 411q0 259 144.5 408.5t386.5 149.5q243 0 387 -149.5t144 -408.5q0 -263 -143 -411.5t-388 -148.5zM587 200q108 0 171 88t63 248q0 158 -63 247t-171 89t-171.5 -89t-63.5 -247q0 -160 63 -248t172 -88z" />
<glyph unicode="p" horiz-adv-x="1215" d="M721 1089q204 0 321.5 -147t117.5 -406q0 -258 -116 -405.5t-318 -147.5q-115 0 -202.5 52.5t-130.5 144.5h-6v-530h-292v1422h288v-187h6q44 96 130.5 150t201.5 54zM623 218q109 0 173.5 86t64.5 232t-64.5 232.5t-173.5 86.5q-107 0 -172 -87.5t-65 -231.5 q0 -145 64.5 -231.5t172.5 -86.5z" />
<glyph unicode="q" horiz-adv-x="1215" d="M496 1089q115 0 201.5 -55t128.5 -149h6v187h288v-1422h-292v533h-6q-38 -90 -127 -145t-204 -55q-201 0 -318 149t-117 406q0 255 118.5 403t321.5 148zM590 218q109 0 174 86t65 232t-65.5 232.5t-173.5 86.5q-109 0 -172 -85.5t-63 -233.5t63 -233t172 -85z" />
<glyph unicode="r" horiz-adv-x="745" d="M95 0v1072h282v-193h6q28 102 94 156t161 54q46 0 83 -11v-257q-41 17 -106 17q-108 0 -168 -63t-60 -176v-599h-292z" />
<glyph unicode="s" horiz-adv-x="1055" d="M77 757q0 153 123 245.5t329 92.5q201 0 323 -94t125 -250h-269q-5 65 -53.5 102t-129.5 37q-76 0 -121.5 -31.5t-45.5 -83.5q0 -78 140 -111l205 -44q161 -36 231.5 -104.5t70.5 -188.5q0 -158 -132 -254t-345 -96q-212 0 -339 94t-139 253h285q11 -68 62.5 -105 t138.5 -37q83 0 130.5 30.5t47.5 83.5q0 41 -30 65.5t-102 41.5l-198 44q-307 70 -307 310z" />
<glyph unicode="t" horiz-adv-x="728" d="M173 1319h292v-247h198v-220h-198v-513q0 -121 126 -121q41 0 71 5v-215q-51 -12 -139 -12q-189 0 -269.5 68t-80.5 225v563h-151v220h151v247z" />
<glyph unicode="u" horiz-adv-x="1180" d="M1085 1072v-1072h-282v193h-6q-84 -213 -321 -213q-176 0 -281 107.5t-105 293.5v691h292v-630q0 -107 51.5 -163t148.5 -56t154 64t57 171v614h292z" />
<glyph unicode="v" horiz-adv-x="1081" d="M1075 1072l-368 -1072h-330l-371 1072h313l223 -814h6l222 814h305z" />
<glyph unicode="w" horiz-adv-x="1618" d="M1599 1072l-284 -1072h-311l-194 758h-6l-193 -758h-307l-285 1072h294l162 -795h6l190 795h280l191 -795h6l163 795h288z" />
<glyph unicode="x" horiz-adv-x="1081" d="M536 372h-6l-201 -372h-307l336 534l-334 538h329l193 -362h6l190 362h318l-335 -530l332 -542h-317z" />
<glyph unicode="y" horiz-adv-x="1112" d="M232 -397q-96 0 -110 3v225q9 -2 73 -2q81 0 123 27.5t57 91.5q0 1 5 25t4 26l-373 1073h321l228 -838h5l228 838h308l-369 -1096q-69 -206 -181.5 -289.5t-318.5 -83.5z" />
<glyph unicode="z" horiz-adv-x="1035" d="M75 0v166l534 677v6h-526v223h865v-185l-502 -658v-5h514v-224h-885z" />
<glyph unicode="{" horiz-adv-x="782" d="M277 551q128 -14 195 -77.5t67 -171.5v-205q0 -106 39.5 -150.5t134.5 -44.5h44v-212h-74q-222 0 -322 90t-100 288v156q0 110 -54 156.5t-182 47.5v278q128 1 182 47.5t54 156.5v160q0 196 100 284.5t322 88.5h74v-212h-44q-95 0 -134.5 -44.5t-39.5 -150.5v-204 q0 -108 -67 -171.5t-195 -77.5v-32z" />
<glyph unicode="|" horiz-adv-x="782" d="M528 -310h-273v1753h273v-1753z" />
<glyph unicode="}" horiz-adv-x="782" d="M505 551v32q-128 14 -195 77.5t-67 171.5v204q0 106 -39.5 150.5t-134.5 44.5h-44v212h74q223 0 323 -88.5t100 -284.5v-160q0 -110 53.5 -156.5t181.5 -47.5v-278q-129 -1 -182 -47t-53 -156v-153q0 -200 -100.5 -291t-322.5 -91h-74v212h44q94 0 134 44.5t40 149.5v205 q0 109 67.5 172.5t194.5 77.5z" />
<glyph unicode="~" horiz-adv-x="1326" d="M616 624q-45 45 -76 63.5t-64 18.5q-110 0 -116 -178h-228q-9 195 77.5 309.5t243.5 114.5q68 0 130 -31t130 -99q44 -45 74 -63t63 -18q111 0 117 178h227q9 -195 -77 -309.5t-243 -114.5q-68 0 -129 30.5t-129 98.5z" />
<glyph unicode="&#xa1;" horiz-adv-x="648" d="M174 -324l24 969h252l24 -969h-300zM324 833q-68 0 -115.5 45.5t-47.5 110.5q0 67 47.5 112t115.5 45t115.5 -45t47.5 -112q0 -65 -47.5 -110.5t-115.5 -45.5z" />
<glyph unicode="&#xa2;" horiz-adv-x="1326" d="M1212 542q-14 -162 -127.5 -271.5t-288.5 -135.5v-182h-242v187q-202 38 -320.5 188t-118.5 375q0 222 119 371.5t320 186.5v187h242v-183q174 -26 289.5 -140t126.5 -273h-272q-17 86 -85.5 138.5t-165.5 52.5q-124 0 -202.5 -93t-78.5 -247q0 -156 78.5 -250.5 t201.5 -94.5q103 0 168.5 46.5t83.5 137.5h272z" />
<glyph unicode="&#xa3;" horiz-adv-x="1326" d="M516 248h714v-248h-1124v232q134 20 218.5 111t84.5 215q0 32 -7 76h-292v207h224q-59 148 -59 244q0 187 146.5 291t411.5 104q90 0 184 -14.5t146 -35.5v-236q-49 22 -131.5 36.5t-160.5 14.5q-139 0 -216 -53.5t-77 -150.5q0 -76 45 -200h414v-207h-349q4 -38 4 -57 q0 -102 -50 -188t-126 -133v-8z" />
<glyph unicode="&#xa5;" horiz-adv-x="1326" d="M1086 212h-271v-212h-302v212h-271v166h271v136h-271v166h195l-427 763h327l323 -613h9l320 613h327l-425 -763h195v-166h-271v-136h271v-166z" />
<glyph unicode="&#xa8;" horiz-adv-x="1010" d="M301 1279q-57 0 -95.5 38t-38.5 92t38.5 92t95.5 38t95.5 -38t38.5 -92t-38.5 -92t-95.5 -38zM709 1279q-57 0 -95.5 38t-38.5 92t38.5 92t95.5 38t95.5 -38t38.5 -92t-38.5 -92t-95.5 -38z" />
<glyph unicode="&#xa9;" horiz-adv-x="1697" d="M849 -139q-162 0 -308 62t-251.5 167t-167.5 251.5t-62 308.5q0 163 62 309.5t167.5 251.5t251.5 166.5t308 61.5q216 0 397 -104t286 -285.5t105 -399.5q0 -163 -62 -309t-167 -251.5t-251 -167t-308 -61.5zM849 25q171 0 314.5 82.5t226.5 226t83 316.5 q0 130 -49 246.5t-132.5 199.5t-199 131.5t-243.5 48.5q-171 0 -314.5 -82t-227 -226.5t-83.5 -317.5t83.5 -316.5t227 -226t314.5 -82.5zM1216 760h-188q-12 58 -54.5 93.5t-107.5 35.5q-84 0 -133 -63t-49 -174q0 -113 48.5 -176.5t133.5 -63.5q65 0 107.5 32t54.5 90h188 q-14 -129 -107.5 -205.5t-243.5 -76.5q-177 0 -280 107t-103 293q0 183 103 290t278 107q149 0 243.5 -80t109.5 -209z" />
<glyph unicode="&#xaa;" horiz-adv-x="798" d="M366 858q60 0 100.5 32.5t40.5 81.5v51l-137 -9q-104 -8 -104 -79q0 -35 27 -56t73 -21zM284 697q-108 0 -178 63t-70 160q0 101 76 158.5t222 66.5l173 10v43q0 44 -29.5 69t-80.5 25q-46 0 -77.5 -22t-36.5 -58h-210q5 112 96 179.5t239 67.5q147 0 236.5 -68 t89.5 -180v-505h-226v107h-4q-28 -54 -88 -85t-132 -31z" />
<glyph unicode="&#xab;" horiz-adv-x="1356" d="M386 572v-10l346 -411h-275l-344 411v8l348 411h271zM897 572v-10l346 -411h-275l-344 411v8l348 411h271z" />
<glyph unicode="&#xac;" horiz-adv-x="1326" d="M1185 708v-642h-255v394h-789v248h1044z" />
<glyph unicode="&#xad;" horiz-adv-x="905" d="M781 459h-657v255h657v-255z" />
<glyph unicode="&#xae;" horiz-adv-x="1178" d="M589 565q-215 0 -362 145.5t-147 358.5t147 358.5t362 145.5q141 0 258 -66t184 -182t67 -256t-67 -256t-184 -182t-258 -66zM589 693q158 0 264.5 108t106.5 268t-106.5 267.5t-264.5 107.5t-264 -107.5t-106 -267.5t106 -268t264 -108zM513 844h-123v463h242 q77 0 124.5 -41t47.5 -107q0 -52 -26.5 -89.5t-71.5 -49.5l122 -176h-148l-101 158h-66v-158zM513 1209v-117h91q33 0 51.5 15.5t18.5 43.5q0 58 -68 58h-93z" />
<glyph unicode="&#xaf;" horiz-adv-x="1000" d="M820 1462v-148h-639v148h639z" />
<glyph unicode="&#xb1;" horiz-adv-x="1326" d="M1160 75h-996v218h996v-218zM787 651v-239h-248v239h-375v216h375v240h248v-240h375v-216h-375z" />
<glyph unicode="&#xb4;" horiz-adv-x="1010" d="M492 1282h-233l221 310h268z" />
<glyph unicode="&#xb5;" horiz-adv-x="1284" d="M95 -350v1422h290v-624q0 -225 199 -225q102 0 159.5 64t57.5 171v614h289v-742q0 -66 19 -93.5t64 -27.5q38 0 56 10l5 -210q-59 -18 -143 -18q-105 0 -167 37t-96 121q-2 6 -5.5 17t-5.5 15h-5q-35 -94 -100.5 -147.5t-150.5 -53.5q-55 0 -101 22t-68 57h-5v-409h-292z " />
<glyph unicode="&#xb8;" horiz-adv-x="1010" d="M366 -227v98l64 141h152v-12l-51 -110q86 -1 137 -44.5t51 -119.5q0 -89 -66 -137t-182 -49q-97 -2 -142 14v122q41 -12 112 -12q111 0 111 54q0 30 -28 42.5t-95 12.5h-63z" />
<glyph unicode="&#xba;" horiz-adv-x="831" d="M416 691q-175 0 -275 101.5t-100 282.5q0 178 101 281t274 103t274 -102.5t101 -281.5q0 -182 -100 -283t-275 -101zM416 862q65 0 102 56t37 157q0 99 -37 155.5t-102 56.5t-102 -56.5t-37 -155.5q0 -102 36.5 -157.5t102.5 -55.5z" />
<glyph unicode="&#xbb;" horiz-adv-x="1356" d="M459 572l-346 409h271l348 -411v-8l-344 -411h-275l346 411v10zM970 572l-346 409h271l348 -411v-8l-344 -411h-275l346 411v10z" />
<glyph unicode="&#xbf;" horiz-adv-x="1093" d="M1040 80q-4 -189 -132 -303.5t-353 -114.5q-214 0 -345 107.5t-131 280.5q0 110 53.5 192t160.5 146q100 59 135 105t35 119v53h264l2 -58q10 -116 -32 -191t-148 -137q-97 -58 -132.5 -104t-35.5 -116q0 -73 53 -119t138 -46t138 50.5t58 135.5h272zM585 833 q-68 0 -116 45.5t-48 110.5q0 66 47.5 111.5t116.5 45.5q68 0 115.5 -45.5t47.5 -111.5q0 -65 -47.5 -110.5t-115.5 -45.5z" />
<glyph unicode="&#xc0;" horiz-adv-x="1413" d="M1065 0l-110 350h-507l-110 -350h-310l501 1443h355l502 -1443h-321zM698 1167l-185 -591h377l-185 591h-7zM589 1563l-267 305h271l226 -305h-230z" />
<glyph unicode="&#xc1;" horiz-adv-x="1413" d="M1065 0l-110 350h-507l-110 -350h-310l501 1443h355l502 -1443h-321zM698 1167l-185 -591h377l-185 591h-7zM822 1558h-230l226 305h271z" />
<glyph unicode="&#xc2;" horiz-adv-x="1413" d="M1065 0l-110 350h-507l-110 -350h-310l501 1443h355l502 -1443h-321zM698 1167l-185 -591h377l-185 591h-7zM595 1855h224l269 -317h-221l-156 192h-8l-156 -192h-221z" />
<glyph unicode="&#xc3;" horiz-adv-x="1413" d="M1065 0l-110 350h-507l-110 -350h-310l501 1443h355l502 -1443h-321zM698 1167l-185 -591h377l-185 591h-7zM849 1563q-47 0 -89.5 21.5t-67.5 46.5t-54.5 46.5t-53.5 21.5q-34 0 -52 -33t-18 -89h-159q0 128 62 201t158 73q40 0 75.5 -14t60 -33.5t46 -39.5t43 -34 t40.5 -14q66 0 69 124h159q0 -126 -62.5 -201.5t-156.5 -75.5z" />
<glyph unicode="&#xc4;" horiz-adv-x="1413" d="M1065 0l-110 350h-507l-110 -350h-310l501 1443h355l502 -1443h-321zM698 1167l-185 -591h377l-185 591h-7zM503 1571q-57 0 -95.5 38t-38.5 92t38.5 92t95.5 38t95.5 -38t38.5 -92t-38.5 -92t-95.5 -38zM911 1571q-57 0 -95.5 38t-38.5 92t38.5 92t95.5 38t95.5 -38 t38.5 -92t-38.5 -92t-95.5 -38z" />
<glyph unicode="&#xc5;" horiz-adv-x="1413" d="M1065 0l-110 350h-507l-110 -350h-310l501 1443h355l502 -1443h-321zM698 1167l-185 -591h377l-185 591h-7zM707 1518q-84 0 -145 59.5t-61 142.5q0 84 61 143t145 59t145 -59t61 -143q0 -83 -61 -142.5t-145 -59.5zM707 1630q38 0 65 26.5t27 63.5t-27 63.5t-65 26.5 t-65 -26.5t-27 -63.5t27 -63.5t65 -26.5z" />
<glyph unicode="&#xc6;" horiz-adv-x="2039" d="M830 1211l-255 -612h391v612h-136zM966 0v373h-479l-158 -373h-301l613 1443h1270v-249h-669v-353h632v-232h-632v-360h669v-249h-945z" />
<glyph unicode="&#xc7;" horiz-adv-x="1459" d="M1099 501h294q-24 -224 -174 -363.5t-386 -159.5l-41 -88q86 -1 137 -44.5t51 -119.5q0 -89 -66 -137t-182 -49q-97 -2 -142 14v122q41 -12 112 -12q111 0 111 54q0 30 -28 42.5t-95 12.5h-63v98l49 108q-280 26 -440.5 222t-160.5 521q0 347 184 546.5t499 199.5 q172 0 312.5 -68t225.5 -192t96 -283h-294q-21 133 -114.5 213t-225.5 80q-171 0 -273 -134t-102 -361q0 -231 101 -364.5t275 -133.5q134 0 225 74t115 202z" />
<glyph unicode="&#xc8;" horiz-adv-x="1174" d="M1076 250v-250h-956v1443h956v-249h-654v-348h617v-232h-617v-364h654zM480 1563l-267 305h271l226 -305h-230z" />
<glyph unicode="&#xc9;" horiz-adv-x="1174" d="M1076 250v-250h-956v1443h956v-249h-654v-348h617v-232h-617v-364h654zM713 1558h-230l226 305h271z" />
<glyph unicode="&#xca;" horiz-adv-x="1174" d="M1076 250v-250h-956v1443h956v-249h-654v-348h617v-232h-617v-364h654zM486 1855h224l269 -317h-221l-156 192h-8l-156 -192h-221z" />
<glyph unicode="&#xcb;" horiz-adv-x="1174" d="M1076 250v-250h-956v1443h956v-249h-654v-348h617v-232h-617v-364h654zM394 1571q-57 0 -95.5 38t-38.5 92t38.5 92t95.5 38t95.5 -38t38.5 -92t-38.5 -92t-95.5 -38zM802 1571q-57 0 -95.5 38t-38.5 92t38.5 92t95.5 38t95.5 -38t38.5 -92t-38.5 -92t-95.5 -38z" />
<glyph unicode="&#xcc;" horiz-adv-x="542" d="M422 0h-302v1443h302v-1443zM153 1563l-267 305h271l226 -305h-230z" />
<glyph unicode="&#xcd;" horiz-adv-x="542" d="M422 0h-302v1443h302v-1443zM386 1558h-230l226 305h271z" />
<glyph unicode="&#xce;" horiz-adv-x="542" d="M422 0h-302v1443h302v-1443zM159 1855h224l269 -317h-221l-156 192h-8l-156 -192h-221z" />
<glyph unicode="&#xcf;" horiz-adv-x="542" d="M422 0h-302v1443h302v-1443zM67 1571q-57 0 -95.5 38t-38.5 92t38.5 92t95.5 38t95.5 -38t38.5 -92t-38.5 -92t-95.5 -38zM475 1571q-57 0 -95.5 38t-38.5 92t38.5 92t95.5 38t95.5 -38t38.5 -92t-38.5 -92t-95.5 -38z" />
<glyph unicode="&#xd0;" horiz-adv-x="1458" d="M442 250h213q203 0 309.5 121.5t106.5 354.5q0 226 -108 347t-308 121h-213v-351h255v-221h-255v-372zM140 1443h551q326 0 507 -187t181 -529q0 -343 -181.5 -535t-506.5 -192h-551v622h-98v221h98v600z" />
<glyph unicode="&#xd1;" horiz-adv-x="1463" d="M409 0h-289v1443h252l674 -940h8v940h289v-1443h-250l-675 945h-9v-945zM874 1563q-47 0 -89.5 21.5t-67.5 46.5t-54.5 46.5t-53.5 21.5q-34 0 -52 -33t-18 -89h-159q0 128 62 201t158 73q40 0 75.5 -14t60 -33.5t46 -39.5t43 -34t40.5 -14q66 0 69 124h159 q0 -126 -62.5 -201.5t-156.5 -75.5z" />
<glyph unicode="&#xd2;" horiz-adv-x="1541" d="M771 1468q321 0 508.5 -201t187.5 -546q0 -344 -188 -545t-508 -201q-321 0 -508.5 201t-187.5 545q0 345 187.5 546t508.5 201zM771 1216q-177 0 -282.5 -134t-105.5 -361q0 -226 105 -359.5t283 -133.5q177 0 282 133.5t105 359.5q0 227 -105 361t-282 134zM653 1563 l-267 305h271l226 -305h-230z" />
<glyph unicode="&#xd3;" horiz-adv-x="1541" d="M771 1468q321 0 508.5 -201t187.5 -546q0 -344 -188 -545t-508 -201q-321 0 -508.5 201t-187.5 545q0 345 187.5 546t508.5 201zM771 1216q-177 0 -282.5 -134t-105.5 -361q0 -226 105 -359.5t283 -133.5q177 0 282 133.5t105 359.5q0 227 -105 361t-282 134zM886 1558 h-230l226 305h271z" />
<glyph unicode="&#xd4;" horiz-adv-x="1541" d="M771 1468q321 0 508.5 -201t187.5 -546q0 -344 -188 -545t-508 -201q-321 0 -508.5 201t-187.5 545q0 345 187.5 546t508.5 201zM771 1216q-177 0 -282.5 -134t-105.5 -361q0 -226 105 -359.5t283 -133.5q177 0 282 133.5t105 359.5q0 227 -105 361t-282 134zM659 1855 h224l269 -317h-221l-156 192h-8l-156 -192h-221z" />
<glyph unicode="&#xd5;" horiz-adv-x="1541" d="M771 1468q321 0 508.5 -201t187.5 -546q0 -344 -188 -545t-508 -201q-321 0 -508.5 201t-187.5 545q0 345 187.5 546t508.5 201zM771 1216q-177 0 -282.5 -134t-105.5 -361q0 -226 105 -359.5t283 -133.5q177 0 282 133.5t105 359.5q0 227 -105 361t-282 134zM913 1563 q-47 0 -89.5 21.5t-67.5 46.5t-54.5 46.5t-53.5 21.5q-34 0 -52 -33t-18 -89h-159q0 128 62 201t158 73q40 0 75.5 -14t60 -33.5t46 -39.5t43 -34t40.5 -14q66 0 69 124h159q0 -126 -62.5 -201.5t-156.5 -75.5z" />
<glyph unicode="&#xd6;" horiz-adv-x="1541" d="M771 1468q321 0 508.5 -201t187.5 -546q0 -344 -188 -545t-508 -201q-321 0 -508.5 201t-187.5 545q0 345 187.5 546t508.5 201zM771 1216q-177 0 -282.5 -134t-105.5 -361q0 -226 105 -359.5t283 -133.5q177 0 282 133.5t105 359.5q0 227 -105 361t-282 134zM567 1571 q-57 0 -95.5 38t-38.5 92t38.5 92t95.5 38t95.5 -38t38.5 -92t-38.5 -92t-95.5 -38zM975 1571q-57 0 -95.5 38t-38.5 92t38.5 92t95.5 38t95.5 -38t38.5 -92t-38.5 -92t-95.5 -38z" />
<glyph unicode="&#xd8;" horiz-adv-x="1541" d="M1081 1041l-505 -759q85 -54 195 -54q177 0 282 133.5t105 359.5q0 194 -77 320zM484 366l514 773q-94 77 -227 77q-177 0 -282.5 -134t-105.5 -361q0 -223 101 -355zM1350 1446l-100 -150q217 -203 217 -575q0 -344 -188 -545t-508 -201q-197 0 -347 78l-80 -120 l-102 68l80 120q-120 97 -183.5 250t-63.5 350q0 345 187.5 546t508.5 201q220 0 381 -98l90 136z" />
<glyph unicode="&#xd9;" horiz-adv-x="1449" d="M422 1443v-903q0 -141 79.5 -223.5t223.5 -82.5q143 0 222.5 82.5t79.5 223.5v903h302v-933q0 -240 -164.5 -387.5t-439.5 -147.5q-276 0 -440.5 147.5t-164.5 387.5v933h302zM607 1563l-267 305h271l226 -305h-230z" />
<glyph unicode="&#xda;" horiz-adv-x="1449" d="M422 1443v-903q0 -141 79.5 -223.5t223.5 -82.5q143 0 222.5 82.5t79.5 223.5v903h302v-933q0 -240 -164.5 -387.5t-439.5 -147.5q-276 0 -440.5 147.5t-164.5 387.5v933h302zM840 1558h-230l226 305h271z" />
<glyph unicode="&#xdb;" horiz-adv-x="1449" d="M422 1443v-903q0 -141 79.5 -223.5t223.5 -82.5q143 0 222.5 82.5t79.5 223.5v903h302v-933q0 -240 -164.5 -387.5t-439.5 -147.5q-276 0 -440.5 147.5t-164.5 387.5v933h302zM613 1855h224l269 -317h-221l-156 192h-8l-156 -192h-221z" />
<glyph unicode="&#xdc;" horiz-adv-x="1449" d="M422 1443v-903q0 -141 79.5 -223.5t223.5 -82.5q143 0 222.5 82.5t79.5 223.5v903h302v-933q0 -240 -164.5 -387.5t-439.5 -147.5q-276 0 -440.5 147.5t-164.5 387.5v933h302zM521 1571q-57 0 -95.5 38t-38.5 92t38.5 92t95.5 38t95.5 -38t38.5 -92t-38.5 -92t-95.5 -38z M929 1571q-57 0 -95.5 38t-38.5 92t38.5 92t95.5 38t95.5 -38t38.5 -92t-38.5 -92t-95.5 -38z" />
<glyph unicode="&#xdd;" horiz-adv-x="1362" d="M832 0h-302v539l-502 904h329l323 -616h7l324 616h324l-503 -904v-539zM796 1558h-230l226 305h271z" />
<glyph unicode="&#xde;" horiz-adv-x="1330" d="M151 1443h304v-235h307q209 0 342 -123.5t133 -333.5q0 -139 -64.5 -244t-175 -159t-250.5 -54h-294v-294h-302v1443zM453 968v-437h226q117 0 184 56t67 163t-66.5 162.5t-183.5 55.5h-227z" />
<glyph unicode="&#xdf;" horiz-adv-x="1330" d="M433 0h-291v1062q0 180 132.5 285.5t359.5 105.5q215 0 350 -102t135 -265q0 -118 -57.5 -205.5t-153.5 -115.5v-12q148 -13 236.5 -114t88.5 -252q0 -185 -127 -293.5t-346 -108.5q-114 0 -178 16v232q50 -17 125 -17q107 0 168.5 52.5t61.5 141.5q0 92 -70 146t-192 54 h-71v236h49q85 0 134.5 52t49.5 139q0 83 -54 132.5t-144 49.5q-100 0 -153 -55.5t-53 -160.5v-1003z" />
<glyph unicode="&#xe0;" d="M509 194q97 0 164.5 56.5t67.5 142.5v78l-226 -14q-82 -6 -126.5 -41t-44.5 -92q0 -60 45 -95t120 -35zM413 -17q-155 0 -257 91t-102 234q0 146 108 229t309 95l270 16v71q0 74 -48.5 116t-131.5 42q-80 0 -130.5 -36t-61.5 -97h-267q8 158 135 254.5t337 96.5 q206 0 330 -98t124 -260v-737h-282v164h-6q-44 -84 -134 -132.5t-193 -48.5zM685 1223h-233l-256 310h268z" />
<glyph unicode="&#xe1;" d="M509 194q97 0 164.5 56.5t67.5 142.5v78l-226 -14q-82 -6 -126.5 -41t-44.5 -92q0 -60 45 -95t120 -35zM413 -17q-155 0 -257 91t-102 234q0 146 108 229t309 95l270 16v71q0 74 -48.5 116t-131.5 42q-80 0 -130.5 -36t-61.5 -97h-267q8 158 135 254.5t337 96.5 q206 0 330 -98t124 -260v-737h-282v164h-6q-44 -84 -134 -132.5t-193 -48.5zM680 1223h-233l221 310h268z" />
<glyph unicode="&#xe2;" d="M509 194q97 0 164.5 56.5t67.5 142.5v78l-226 -14q-82 -6 -126.5 -41t-44.5 -92q0 -60 45 -95t120 -35zM413 -17q-155 0 -257 91t-102 234q0 146 108 229t309 95l270 16v71q0 74 -48.5 116t-131.5 42q-80 0 -130.5 -36t-61.5 -97h-267q8 158 135 254.5t337 96.5 q206 0 330 -98t124 -260v-737h-282v164h-6q-44 -84 -134 -132.5t-193 -48.5zM678 1531l263 -318h-223l-149 186h-7l-148 -186h-224l264 318h224z" />
<glyph unicode="&#xe3;" d="M509 194q97 0 164.5 56.5t67.5 142.5v78l-226 -14q-82 -6 -126.5 -41t-44.5 -92q0 -60 45 -95t120 -35zM413 -17q-155 0 -257 91t-102 234q0 146 108 229t309 95l270 16v71q0 74 -48.5 116t-131.5 42q-80 0 -130.5 -36t-61.5 -97h-267q8 158 135 254.5t337 96.5 q206 0 330 -98t124 -260v-737h-282v164h-6q-44 -84 -134 -132.5t-193 -48.5zM710 1218q-39 0 -73.5 14t-59 34t-46.5 40t-44 34t-42 14q-34 0 -52 -33t-18 -89h-159q0 128 62 201t158 73q40 0 75.5 -14t60 -34t46 -39.5t43 -33.5t40.5 -14q66 0 69 124h159 q0 -126 -62.5 -201.5t-156.5 -75.5z" />
<glyph unicode="&#xe4;" d="M509 194q97 0 164.5 56.5t67.5 142.5v78l-226 -14q-82 -6 -126.5 -41t-44.5 -92q0 -60 45 -95t120 -35zM413 -17q-155 0 -257 91t-102 234q0 146 108 229t309 95l270 16v71q0 74 -48.5 116t-131.5 42q-80 0 -130.5 -36t-61.5 -97h-267q8 158 135 254.5t337 96.5 q206 0 330 -98t124 -260v-737h-282v164h-6q-44 -84 -134 -132.5t-193 -48.5zM362 1220q-57 0 -95.5 38t-38.5 92t38.5 92t95.5 38t95.5 -38t38.5 -92t-38.5 -92t-95.5 -38zM770 1220q-57 0 -95.5 38t-38.5 92t38.5 92t95.5 38t95.5 -38t38.5 -92t-38.5 -92t-95.5 -38z" />
<glyph unicode="&#xe5;" d="M509 194q97 0 164.5 56.5t67.5 142.5v78l-226 -14q-82 -6 -126.5 -41t-44.5 -92q0 -60 45 -95t120 -35zM413 -17q-155 0 -257 91t-102 234q0 146 108 229t309 95l270 16v71q0 74 -48.5 116t-131.5 42q-80 0 -130.5 -36t-61.5 -97h-267q8 158 135 254.5t337 96.5 q206 0 330 -98t124 -260v-737h-282v164h-6q-44 -84 -134 -132.5t-193 -48.5zM566 1174q-89 0 -153 62.5t-64 150.5t64 150.5t153 62.5t153 -62.5t64 -150.5t-64 -150.5t-153 -62.5zM566 1293q39 0 67.5 27.5t28.5 66.5t-28.5 66.5t-67.5 27.5t-67 -27.5t-28 -66.5t28 -66.5 t67 -27.5z" />
<glyph unicode="&#xe6;" horiz-adv-x="1798" d="M1252 -23q-133 0 -237.5 54.5t-155.5 149.5h-9q-57 -94 -157 -146t-233 -52q-188 0 -298.5 89.5t-110.5 235.5q0 145 109 228t315 94l266 15v59q0 74 -54.5 123.5t-137.5 49.5q-79 0 -131.5 -37.5t-59.5 -96.5h-263q8 157 130.5 254.5t316.5 97.5q126 0 219.5 -43 t137.5 -118h8q114 161 353 161q218 0 350 -145t132 -392v-88h-730v-19q0 -114 67.5 -186t176.5 -72q77 0 133 36.5t77 98.5h268q-24 -158 -156 -254.5t-326 -96.5zM1244 879q-95 0 -158 -64.5t-71 -166.5h446q-4 105 -63 168t-154 63zM501 190q99 0 169.5 60t70.5 143v75 l-231 -15q-85 -6 -132.5 -40t-47.5 -90q0 -58 48.5 -95.5t122.5 -37.5z" />
<glyph unicode="&#xe7;" horiz-adv-x="1116" d="M798 393h272q-10 -172 -121 -282t-292 -130l-42 -91q86 -1 137 -44.5t51 -119.5q0 -89 -66 -137t-182 -49q-97 -2 -142 14v122q41 -12 112 -12q111 0 111 54q0 30 -28 42.5t-95 12.5h-63v98l50 111q-207 26 -325.5 172t-118.5 383q0 257 142.5 407.5t383.5 150.5 q214 0 345.5 -118t141.5 -304h-271q-13 87 -68.5 140t-143.5 53q-109 0 -171.5 -87.5t-62.5 -241.5q0 -157 62.5 -244t172.5 -87q87 0 142 49.5t69 137.5z" />
<glyph unicode="&#xe8;" horiz-adv-x="1137" d="M576 879q-95 0 -158.5 -65t-71.5 -166h455q-5 103 -66.5 167t-158.5 64zM805 328h268q-24 -158 -157.5 -254.5t-331.5 -96.5q-247 0 -387.5 148t-140.5 406q0 257 140 410.5t377 153.5q233 0 371 -146t138 -391v-89h-739v-18q0 -115 67.5 -186.5t178.5 -71.5 q80 0 138 36.5t78 98.5zM692 1223h-233l-256 310h268z" />
<glyph unicode="&#xe9;" horiz-adv-x="1137" d="M576 879q-95 0 -158.5 -65t-71.5 -166h455q-5 103 -66.5 167t-158.5 64zM805 328h268q-24 -158 -157.5 -254.5t-331.5 -96.5q-247 0 -387.5 148t-140.5 406q0 257 140 410.5t377 153.5q233 0 371 -146t138 -391v-89h-739v-18q0 -115 67.5 -186.5t178.5 -71.5 q80 0 138 36.5t78 98.5zM687 1223h-233l221 310h268z" />
<glyph unicode="&#xea;" horiz-adv-x="1137" d="M576 879q-95 0 -158.5 -65t-71.5 -166h455q-5 103 -66.5 167t-158.5 64zM805 328h268q-24 -158 -157.5 -254.5t-331.5 -96.5q-247 0 -387.5 148t-140.5 406q0 257 140 410.5t377 153.5q233 0 371 -146t138 -391v-89h-739v-18q0 -115 67.5 -186.5t178.5 -71.5 q80 0 138 36.5t78 98.5zM685 1531l263 -318h-223l-149 186h-7l-148 -186h-224l264 318h224z" />
<glyph unicode="&#xeb;" horiz-adv-x="1137" d="M576 879q-95 0 -158.5 -65t-71.5 -166h455q-5 103 -66.5 167t-158.5 64zM805 328h268q-24 -158 -157.5 -254.5t-331.5 -96.5q-247 0 -387.5 148t-140.5 406q0 257 140 410.5t377 153.5q233 0 371 -146t138 -391v-89h-739v-18q0 -115 67.5 -186.5t178.5 -71.5 q80 0 138 36.5t78 98.5zM369 1220q-57 0 -95.5 38t-38.5 92t38.5 92t95.5 38t95.5 -38t38.5 -92t-38.5 -92t-95.5 -38zM777 1220q-57 0 -95.5 38t-38.5 92t38.5 92t95.5 38t95.5 -38t38.5 -92t-38.5 -92t-95.5 -38z" />
<glyph unicode="&#xec;" horiz-adv-x="491" d="M100 0v1072h292v-1072h-292zM365 1223h-233l-256 310h268z" />
<glyph unicode="&#xed;" horiz-adv-x="491" d="M100 0v1072h292v-1072h-292zM360 1223h-233l221 310h268z" />
<glyph unicode="&#xee;" horiz-adv-x="491" d="M100 0v1072h292v-1072h-292zM358 1531l263 -318h-223l-149 186h-7l-148 -186h-224l264 318h224z" />
<glyph unicode="&#xef;" horiz-adv-x="491" d="M100 0v1072h292v-1072h-292zM42 1220q-57 0 -95.5 38t-38.5 92t38.5 92t95.5 38t95.5 -38t38.5 -92t-38.5 -92t-95.5 -38zM450 1220q-57 0 -95.5 38t-38.5 92t38.5 92t95.5 38t95.5 -38t38.5 -92t-38.5 -92t-95.5 -38z" />
<glyph unicode="&#xf0;" horiz-adv-x="1203" d="M591 -17q-241 0 -384 143.5t-143 394.5q0 233 125 368t326 135q84 0 155.5 -33.5t109.5 -89.5h17q-20 65 -67.5 142t-98.5 133l-277 -92l-56 138l222 74q-73 65 -238 179h364q63 -49 113 -99l259 87l57 -139l-196 -65q243 -283 243 -672q0 -284 -144.5 -444t-386.5 -160z M598 821q-110 0 -172.5 -80.5t-62.5 -221.5q0 -139 63 -220t172 -81t172.5 80.5t63.5 220.5q0 139 -64 220.5t-172 81.5z" />
<glyph unicode="&#xf1;" horiz-adv-x="1180" d="M95 0v1072h282v-191h6q44 102 128.5 156.5t206.5 54.5q178 0 275 -106t97 -295v-691h-292v630q0 106 -50 163t-147 57t-155.5 -65t-58.5 -170v-615h-292zM736 1218q-39 0 -73.5 14t-59 34t-46.5 40t-44 34t-42 14q-34 0 -52 -33t-18 -89h-159q0 128 62 201t158 73 q40 0 75.5 -14t60 -34t46 -39.5t43 -33.5t40.5 -14q66 0 69 124h159q0 -126 -62.5 -201.5t-156.5 -75.5z" />
<glyph unicode="&#xf2;" horiz-adv-x="1173" d="M587 -23q-245 0 -388 149t-143 411q0 259 144.5 408.5t386.5 149.5q243 0 387 -149.5t144 -408.5q0 -263 -143 -411.5t-388 -148.5zM587 200q108 0 171 88t63 248q0 158 -63 247t-171 89t-171.5 -89t-63.5 -247q0 -160 63 -248t172 -88zM706 1223h-233l-256 310h268z" />
<glyph unicode="&#xf3;" horiz-adv-x="1173" d="M587 -23q-245 0 -388 149t-143 411q0 259 144.5 408.5t386.5 149.5q243 0 387 -149.5t144 -408.5q0 -263 -143 -411.5t-388 -148.5zM587 200q108 0 171 88t63 248q0 158 -63 247t-171 89t-171.5 -89t-63.5 -247q0 -160 63 -248t172 -88zM701 1223h-233l221 310h268z" />
<glyph unicode="&#xf4;" horiz-adv-x="1173" d="M587 -23q-245 0 -388 149t-143 411q0 259 144.5 408.5t386.5 149.5q243 0 387 -149.5t144 -408.5q0 -263 -143 -411.5t-388 -148.5zM587 200q108 0 171 88t63 248q0 158 -63 247t-171 89t-171.5 -89t-63.5 -247q0 -160 63 -248t172 -88zM699 1531l263 -318h-223l-149 186 h-7l-148 -186h-224l264 318h224z" />
<glyph unicode="&#xf5;" horiz-adv-x="1173" d="M587 -23q-245 0 -388 149t-143 411q0 259 144.5 408.5t386.5 149.5q243 0 387 -149.5t144 -408.5q0 -263 -143 -411.5t-388 -148.5zM587 200q108 0 171 88t63 248q0 158 -63 247t-171 89t-171.5 -89t-63.5 -247q0 -160 63 -248t172 -88zM731 1218q-39 0 -73.5 14t-59 34 t-46.5 40t-44 34t-42 14q-34 0 -52 -33t-18 -89h-159q0 128 62 201t158 73q40 0 75.5 -14t60 -34t46 -39.5t43 -33.5t40.5 -14q66 0 69 124h159q0 -126 -62.5 -201.5t-156.5 -75.5z" />
<glyph unicode="&#xf6;" horiz-adv-x="1173" d="M587 -23q-245 0 -388 149t-143 411q0 259 144.5 408.5t386.5 149.5q243 0 387 -149.5t144 -408.5q0 -263 -143 -411.5t-388 -148.5zM587 200q108 0 171 88t63 248q0 158 -63 247t-171 89t-171.5 -89t-63.5 -247q0 -160 63 -248t172 -88zM383 1220q-57 0 -95.5 38 t-38.5 92t38.5 92t95.5 38t95.5 -38t38.5 -92t-38.5 -92t-95.5 -38zM791 1220q-57 0 -95.5 38t-38.5 92t38.5 92t95.5 38t95.5 -38t38.5 -92t-38.5 -92t-95.5 -38z" />
<glyph unicode="&#xf7;" horiz-adv-x="1326" d="M664 810q-74 0 -120.5 44t-46.5 114q0 71 46.5 115t120.5 44t120.5 -44t46.5 -115q0 -70 -46.5 -114t-120.5 -44zM664 32q-74 0 -120.5 44t-46.5 114q0 71 46.5 115t120.5 44t120.5 -44t46.5 -115q0 -70 -46.5 -114t-120.5 -44zM1203 470h-1079v218h1079v-218z" />
<glyph unicode="&#xf8;" horiz-adv-x="1173" d="M786 733l-313 -501q50 -32 114 -32q108 0 171 88t63 248q0 116 -35 197zM393 325l317 508q-51 39 -123 39q-108 0 -171.5 -89t-63.5 -247q0 -126 41 -211zM1004 1082l-65 -104q179 -151 179 -441q0 -263 -143 -411.5t-388 -148.5q-137 0 -243 48l-59 -95l-100 61l59 94 q-188 149 -188 452q0 259 144.5 408.5t386.5 149.5q142 0 253 -53l61 97z" />
<glyph unicode="&#xf9;" horiz-adv-x="1180" d="M1085 1072v-1072h-282v193h-6q-84 -213 -321 -213q-176 0 -281 107.5t-105 293.5v691h292v-630q0 -107 51.5 -163t148.5 -56t154 64t57 171v614h292zM708 1223h-233l-256 310h268z" />
<glyph unicode="&#xfa;" horiz-adv-x="1180" d="M1085 1072v-1072h-282v193h-6q-84 -213 -321 -213q-176 0 -281 107.5t-105 293.5v691h292v-630q0 -107 51.5 -163t148.5 -56t154 64t57 171v614h292zM703 1223h-233l221 310h268z" />
<glyph unicode="&#xfb;" horiz-adv-x="1180" d="M1085 1072v-1072h-282v193h-6q-84 -213 -321 -213q-176 0 -281 107.5t-105 293.5v691h292v-630q0 -107 51.5 -163t148.5 -56t154 64t57 171v614h292zM701 1531l263 -318h-223l-149 186h-7l-148 -186h-224l264 318h224z" />
<glyph unicode="&#xfc;" horiz-adv-x="1180" d="M1085 1072v-1072h-282v193h-6q-84 -213 -321 -213q-176 0 -281 107.5t-105 293.5v691h292v-630q0 -107 51.5 -163t148.5 -56t154 64t57 171v614h292zM385 1220q-57 0 -95.5 38t-38.5 92t38.5 92t95.5 38t95.5 -38t38.5 -92t-38.5 -92t-95.5 -38zM793 1220q-57 0 -95.5 38 t-38.5 92t38.5 92t95.5 38t95.5 -38t38.5 -92t-38.5 -92t-95.5 -38z" />
<glyph unicode="&#xfd;" horiz-adv-x="1112" d="M232 -397q-96 0 -110 3v225q9 -2 73 -2q81 0 123 27.5t57 91.5q0 1 5 25t4 26l-373 1073h321l228 -838h5l228 838h308l-369 -1096q-69 -206 -181.5 -289.5t-318.5 -83.5zM671 1223h-233l221 310h268z" />
<glyph unicode="&#xfe;" horiz-adv-x="1224" d="M731 1089q204 0 319.5 -146.5t115.5 -406.5q0 -259 -115 -406t-317 -147q-115 0 -199.5 47.5t-123.5 133.5h-18v-500h-291v1779h288v-547h17q44 91 129 142t195 51zM629 218q112 0 175 84.5t63 233.5t-63 234t-175 85q-110 0 -174 -85.5t-65 -233.5q1 -148 65 -233 t174 -85z" />
<glyph unicode="&#xff;" horiz-adv-x="1112" d="M232 -397q-96 0 -110 3v225q9 -2 73 -2q81 0 123 27.5t57 91.5q0 1 5 25t4 26l-373 1073h321l228 -838h5l228 838h308l-369 -1096q-69 -206 -181.5 -289.5t-318.5 -83.5zM353 1220q-57 0 -95.5 38t-38.5 92t38.5 92t95.5 38t95.5 -38t38.5 -92t-38.5 -92t-95.5 -38z M761 1220q-57 0 -95.5 38t-38.5 92t38.5 92t95.5 38t95.5 -38t38.5 -92t-38.5 -92t-95.5 -38z" />
<glyph unicode="&#x131;" horiz-adv-x="491" d="M100 0v1072h292v-1072h-292z" />
<glyph unicode="&#x152;" horiz-adv-x="2216" d="M779 1219q-178 0 -284.5 -135.5t-106.5 -362.5q0 -226 106 -361t285 -135t285 135t106 361q0 227 -106.5 362.5t-284.5 135.5zM1203 0v236q-54 -121 -183.5 -194.5t-288.5 -73.5q-143 0 -264 54.5t-206 152.5t-133 238.5t-48 307.5q0 224 82.5 395.5t231.5 265t341 93.5 q159 0 282 -71t186 -200v239h916v-249h-644v-348h606v-232h-606v-364h644v-250h-916z" />
<glyph unicode="&#x153;" horiz-adv-x="1893" d="M1364 -23q-128 0 -232.5 51.5t-157.5 138.5h-14q-129 -190 -383 -190q-238 0 -379.5 151.5t-141.5 405.5q0 255 141.5 408t376.5 153q257 0 386 -194h14q53 89 153.5 141.5t223.5 52.5q220 0 353.5 -147.5t133.5 -389.5v-89h-727v-27q0 -110 68 -179.5t177 -69.5 q77 0 132.5 34.5t72.5 90.5h269q-23 -148 -153.5 -244.5t-312.5 -96.5zM1554 648q-4 104 -63.5 167.5t-153.5 63.5q-95 0 -158 -64.5t-68 -166.5h443zM344 535q0 -155 62 -242t171 -87t170.5 87t61.5 242t-61.5 243t-170.5 88t-171 -88t-62 -243z" />
<glyph unicode="&#x178;" horiz-adv-x="1362" d="M832 0h-302v539l-502 904h329l323 -616h7l324 616h324l-503 -904v-539zM477 1571q-57 0 -95.5 38t-38.5 92t38.5 92t95.5 38t95.5 -38t38.5 -92t-38.5 -92t-95.5 -38zM885 1571q-57 0 -95.5 38t-38.5 92t38.5 92t95.5 38t95.5 -38t38.5 -92t-38.5 -92t-95.5 -38z" />
<glyph unicode="&#x192;" horiz-adv-x="1326" d="M1260 1424v-234q-74 36 -169 36q-102 0 -158 -48.5t-72 -149.5l-24 -156h350v-210h-382l-43 -278q-33 -209 -151.5 -308.5t-327.5 -99.5q-134 0 -216 40v239q79 -43 179 -43t151 48t68 157l38 245h-318v210h350l29 187q32 205 152.5 303t340.5 98q54 0 111.5 -10 t91.5 -26z" />
<glyph unicode="&#x2c6;" horiz-adv-x="1011" d="M618 1590l263 -318h-223l-149 186h-7l-148 -186h-224l264 318h224z" />
<glyph unicode="&#x2c7;" horiz-adv-x="1011" d="M618 1272h-224l-264 318h224l148 -188h7l149 188h223z" />
<glyph unicode="&#x2d8;" horiz-adv-x="1000" d="M142 1589h181q2 -79 49.5 -127t127.5 -48t128 48t50 127h181q-2 -140 -98.5 -231t-260.5 -91t-260 91t-98 231z" />
<glyph unicode="&#x2d9;" horiz-adv-x="949" d="M474 1282q-63 0 -107 43.5t-44 104.5q0 62 44 105.5t107 43.5t106.5 -43.5t43.5 -105.5q0 -61 -43.5 -104.5t-106.5 -43.5z" />
<glyph unicode="&#x2da;" horiz-adv-x="1032" d="M516 1234q-89 0 -153 62.5t-64 150.5t64 150.5t153 62.5t153 -62.5t64 -150.5t-64 -150.5t-153 -62.5zM516 1353q39 0 67.5 27.5t28.5 66.5t-28.5 66.5t-67.5 27.5t-67 -27.5t-28 -66.5t28 -66.5t67 -27.5z" />
<glyph unicode="&#x2db;" horiz-adv-x="1000" d="M694 -296v-154q-57 -20 -138 -20q-106 0 -172 57.5t-66 149.5q0 154 168 263h155q-69 -50 -101 -98.5t-32 -103.5q0 -46 31.5 -74.5t83.5 -28.5q37 0 71 9z" />
<glyph unicode="&#x2dc;" horiz-adv-x="1011" d="M643 1277q-47 0 -89.5 21.5t-67.5 46.5t-54.5 46.5t-53.5 21.5q-34 0 -52 -33t-18 -89h-159q0 128 62 201t158 73q40 0 75.5 -14t60 -33.5t46 -39.5t43 -34t40.5 -14q66 0 69 124h159q0 -126 -62.5 -201.5t-156.5 -75.5z" />
<glyph unicode="&#x2dd;" horiz-adv-x="1000" d="M469 1282l189 310h246l-226 -310h-209zM98 1282l190 310h246l-227 -310h-209z" />
<glyph unicode="&#x3a9;" horiz-adv-x="1566" d="M1178 788q0 199 -107 313.5t-288 114.5t-288 -114.5t-107 -313.5q0 -167 68 -285t206 -204v-299h-577v239h292v8q-136 82 -214 230t-78 333q0 293 193.5 475.5t504.5 182.5q312 0 505.5 -182.5t193.5 -475.5q0 -185 -78.5 -332.5t-213.5 -230.5v-8h292v-239h-577v299 q138 86 205.5 204t67.5 285z" />
<glyph unicode="&#x3c0;" horiz-adv-x="1441" d="M278 0v844h-214v228h1302v-228h-223v-518q0 -61 25 -89t77 -28q30 0 57 10l5 -210q-46 -18 -147 -18q-162 0 -228.5 65.5t-66.5 225.5v562h-309v-844h-278z" />
<glyph unicode="&#x400;" horiz-adv-x="1195" d="M1086 250v-250h-956v1443h956v-249h-654v-348h617v-232h-617v-364h654zM490 1563l-267 305h271l226 -305h-230z" />
<glyph unicode="&#x401;" horiz-adv-x="1195" d="M1086 250v-250h-956v1443h956v-249h-654v-348h617v-232h-617v-364h654zM404 1571q-57 0 -95.5 38t-38.5 92t38.5 92t95.5 38t95.5 -38t38.5 -92t-38.5 -92t-95.5 -38zM812 1571q-57 0 -95.5 38t-38.5 92t38.5 92t95.5 38t95.5 -38t38.5 -92t-38.5 -92t-95.5 -38z" />
<glyph unicode="&#x402;" horiz-adv-x="1733" d="M1129 -67q-105 0 -146 17v237q36 -12 118 -12q109 0 171.5 62.5t62.5 173.5q0 110 -69 174.5t-187 64.5q-97 0 -178.5 -45.5t-117.5 -117.5v-487h-302v1194h-423v249h1148v-249h-423v-409h8q130 122 348 122q234 0 366.5 -133t132.5 -345q0 -225 -136.5 -360.5 t-372.5 -135.5z" />
<glyph unicode="&#x403;" horiz-adv-x="1123" d="M433 0h-303v1443h930v-250h-627v-1193zM733 1543h-230l226 305h271z" />
<glyph unicode="&#x404;" horiz-adv-x="1477" d="M1401 472q-35 -232 -205.5 -368t-427.5 -136q-315 0 -499 202.5t-184 551.5q0 348 184.5 550.5t498.5 202.5q252 0 427.5 -144.5t204.5 -374.5h-297q-29 119 -120 190.5t-215 71.5q-148 0 -248.5 -99.5t-118.5 -269.5h566v-234h-569q14 -180 115.5 -285t255.5 -105 q126 0 214.5 65.5t120.5 181.5h297z" />
<glyph unicode="&#x405;" horiz-adv-x="1313" d="M76 411h291q10 -88 93.5 -142.5t204.5 -54.5q120 0 195.5 51.5t75.5 131.5q0 70 -56 113t-187 72l-188 41q-397 85 -397 403q0 198 154.5 320t397.5 122q250 0 399 -118.5t153 -315.5h-283q-7 91 -80.5 143.5t-187.5 52.5q-112 0 -180.5 -49t-68.5 -129q0 -66 55.5 -107 t180.5 -70l175 -37q217 -46 316 -143.5t99 -262.5q0 -210 -158 -333.5t-427 -123.5q-261 0 -415.5 116.5t-161.5 319.5z" />
<glyph unicode="&#x406;" horiz-adv-x="562" d="M432 0h-302v1443h302v-1443z" />
<glyph unicode="&#x407;" horiz-adv-x="562" d="M432 0h-302v1443h302v-1443zM77 1571q-57 0 -95.5 38t-38.5 92t38.5 92t95.5 38t95.5 -38t38.5 -92t-38.5 -92t-95.5 -38zM485 1571q-57 0 -95.5 38t-38.5 92t38.5 92t95.5 38t95.5 -38t38.5 -92t-38.5 -92t-95.5 -38z" />
<glyph unicode="&#x408;" horiz-adv-x="1163" d="M41 425h293q2 -88 54.5 -141t137.5 -53q95 0 144.5 57t49.5 166v989h302v-991q0 -229 -130 -355.5t-363 -126.5q-221 0 -354.5 124t-133.5 331z" />
<glyph unicode="&#x409;" horiz-adv-x="2201" d="M581 570q-7 -138 -33 -241.5t-75 -182t-129 -119t-190 -40.5q-71 0 -109 14v264q37 -8 67 -8q43 0 75.5 17t52.5 45t33.5 72t20 90.5t9.5 108.5l43 853h993v-484h279q229 0 372 -132.5t143 -346.5q0 -215 -138 -347.5t-361 -132.5h-597v1194h-421zM1339 241h215 q129 0 200 62t71 177q0 116 -71.5 178.5t-201.5 62.5h-213v-480z" />
<glyph unicode="&#x40a;" horiz-adv-x="2216" d="M432 623v-623h-302v1443h302v-576h620v576h302v-576h280q230 0 372.5 -118t142.5 -309q0 -197 -138 -318.5t-362 -121.5h-597v623h-620zM1354 241h230q124 0 192 52.5t68 148.5q0 91 -68 140.5t-193 49.5h-229v-391z" />
<glyph unicode="&#x40b;" horiz-adv-x="1748" d="M1068 650q-94 0 -171.5 -46t-113.5 -117v-487h-302v1194h-423v249h1148v-249h-423v-408h8q127 121 339 121q234 0 363.5 -141.5t129.5 -378.5v-387h-302v369q0 133 -66 207t-187 74z" />
<glyph unicode="&#x40c;" horiz-adv-x="1380" d="M1075 1848l-267 -305h-230l226 305h271zM716 760l645 -760h-377l-544 634h-8v-634h-302v1443h302v-611h8l533 611h341z" />
<glyph unicode="&#x40d;" horiz-adv-x="1519" d="M1088 0v976h-12l-655 -976h-291v1443h301v-977h12l655 977h291v-1443h-301zM665 1558l-267 305h271l226 -305h-230z" />
<glyph unicode="&#x40e;" horiz-adv-x="1336" d="M350 -13q-42 0 -80 5t-45 10v246q30 -9 88 -9q69 0 118 24t86 81l-479 1099h320l315 -802h12l300 802h318l-442 -1030q-98 -228 -211 -327t-300 -99zM332 1838h176q1 -76 48.5 -122t122.5 -46t122.5 46t48.5 122h176q0 -140 -96 -225t-251 -85t-251 85t-96 225z" />
<glyph unicode="&#x40f;" horiz-adv-x="1499" d="M608 0h-478v1443h302v-1194h635v1194h302v-1443h-478v-285h-283v285z" />
<glyph unicode="&#x410;" horiz-adv-x="1433" d="M1075 0l-110 350h-507l-110 -350h-310l501 1443h355l502 -1443h-321zM708 1167l-185 -591h377l-185 591h-7z" />
<glyph unicode="&#x411;" horiz-adv-x="1307" d="M1222 455q0 -204 -138.5 -329.5t-361.5 -125.5h-592v1443h959v-249h-657v-293h280q227 0 368.5 -123t141.5 -323zM432 241h215q127 0 196.5 55t69.5 159t-69.5 160t-197.5 56h-214v-430z" />
<glyph unicode="&#x412;" horiz-adv-x="1330" d="M769 0h-639v1443h628q203 0 322 -97t119 -263q0 -118 -77.5 -207t-193.5 -106v-8q148 -11 244 -109t96 -240q0 -191 -134 -302t-365 -111zM432 1218v-375h217q121 0 187 50.5t66 142.5q0 87 -58 134.5t-164 47.5h-248zM432 225h260q131 0 199.5 54.5t68.5 157.5 q0 101 -70.5 154t-204.5 53h-253v-419z" />
<glyph unicode="&#x413;" horiz-adv-x="1123" d="M433 0h-303v1443h930v-250h-627v-1193z" />
<glyph unicode="&#x414;" horiz-adv-x="1561" d="M546 605q-9 -131 -30 -212.5t-66 -134.5v-8h589v945h-455zM299 0v-285h-274v535h101q72 49 102 135.5t40 242.5l50 815h1023v-1193h180v-535h-273v285h-949z" />
<glyph unicode="&#x415;" horiz-adv-x="1195" d="M1086 250v-250h-956v1443h956v-249h-654v-348h617v-232h-617v-364h654z" />
<glyph unicode="&#x416;" horiz-adv-x="2064" d="M1451 759l596 -759h-370l-492 634h-8v-634h-294v634h-8l-495 -634h-362l590 754l-556 689h342l481 -611h8v611h294v-611h8l482 611h336z" />
<glyph unicode="&#x417;" horiz-adv-x="1286" d="M445 620v235h191q108 0 175.5 55t67.5 144t-64 140t-175 51q-112 0 -181 -56t-75 -151h-279q7 204 153.5 323t389.5 119q232 0 375.5 -108.5t143.5 -282.5q0 -122 -75 -213t-197 -117v-8q146 -16 232 -111.5t86 -240.5q0 -190 -161.5 -313t-410.5 -123q-248 0 -403 122.5 t-165 324.5h289q7 -93 83 -148t199 -55q116 0 187.5 58.5t71.5 153.5q0 94 -70 147.5t-194 53.5h-194z" />
<glyph unicode="&#x418;" horiz-adv-x="1519" d="M1088 0v976h-12l-655 -976h-291v1443h301v-977h12l655 977h291v-1443h-301z" />
<glyph unicode="&#x419;" horiz-adv-x="1519" d="M1088 0v976h-12l-655 -976h-291v1443h301v-977h12l655 977h291v-1443h-301zM412 1838h176q1 -76 48.5 -122t122.5 -46t122.5 46t48.5 122h176q0 -140 -96 -225t-251 -85t-251 85t-96 225z" />
<glyph unicode="&#x41a;" horiz-adv-x="1380" d="M716 760l645 -760h-377l-544 634h-8v-634h-302v1443h302v-611h8l533 611h341z" />
<glyph unicode="&#x41b;" horiz-adv-x="1469" d="M1339 0h-302v1194h-421l-35 -624q-16 -290 -116.5 -436.5t-310.5 -146.5q-69 0 -109 14v264q37 -8 67 -8q97 0 139.5 81t51.5 252l43 853h993v-1443z" />
<glyph unicode="&#x41c;" horiz-adv-x="1788" d="M1658 0h-269v974h-8l-392 -960h-190l-392 960h-8v-974h-269v1443h350l410 -1023h8l410 1023h350v-1443z" />
<glyph unicode="&#x41d;" horiz-adv-x="1514" d="M1384 0h-302v608h-650v-608h-302v1443h302v-586h650v586h302v-1443z" />
<glyph unicode="&#x41e;" horiz-adv-x="1561" d="M781 1468q321 0 508.5 -201t187.5 -546q0 -344 -188 -545t-508 -201q-321 0 -508.5 201t-187.5 545q0 345 187.5 546t508.5 201zM781 1216q-177 0 -282.5 -134t-105.5 -361q0 -226 105 -359.5t283 -133.5q177 0 282 133.5t105 359.5q0 227 -105 361t-282 134z" />
<glyph unicode="&#x41f;" horiz-adv-x="1499" d="M1369 0h-301v1193h-635v-1193h-303v1443h1239v-1443z" />
<glyph unicode="&#x420;" horiz-adv-x="1295" d="M130 1443h587q223 0 361.5 -136t138.5 -358q0 -221 -143 -357.5t-372 -136.5h-270v-455h-302v1443zM432 1204v-513h204q130 0 202 67t72 190t-71.5 189.5t-201.5 66.5h-205z" />
<glyph unicode="&#x421;" horiz-adv-x="1477" d="M768 -32q-315 0 -499 202.5t-184 551.5q0 348 184.5 550.5t498.5 202.5q252 0 427.5 -144.5t204.5 -374.5h-297q-29 119 -120 190.5t-215 71.5q-171 0 -273 -134t-102 -361q0 -231 101 -364.5t275 -133.5q126 0 214.5 65.5t120.5 181.5h297q-35 -232 -205.5 -368 t-427.5 -136z" />
<glyph unicode="&#x422;" horiz-adv-x="1252" d="M777 0h-302v1194h-417v249h1137v-249h-418v-1194z" />
<glyph unicode="&#x423;" horiz-adv-x="1336" d="M350 -13q-42 0 -80 5t-45 10v246q30 -9 88 -9q69 0 118 24t86 81l-479 1099h320l315 -802h12l300 802h318l-442 -1030q-98 -228 -211 -327t-300 -99z" />
<glyph unicode="&#x424;" horiz-adv-x="1766" d="M738 367v715q-167 -8 -265.5 -103.5t-98.5 -253.5q0 -160 98.5 -255.5t265.5 -102.5zM1392 724q0 159 -98.5 254.5t-265.5 103.5v-715q167 8 265.5 103t98.5 254zM735 124q-304 9 -484.5 169t-180.5 432q0 270 180.5 429.5t484.5 169.5v149h297v-149q304 -9 484 -168.5 t180 -431.5q0 -271 -180.5 -430.5t-483.5 -169.5v-154h-297v154z" />
<glyph unicode="&#x425;" horiz-adv-x="1424" d="M53 0l458 723v8l-455 712h355l306 -520h8l309 520h337l-472 -718v-7l466 -718h-344l-316 505h-8l-318 -505h-326z" />
<glyph unicode="&#x426;" horiz-adv-x="1589" d="M1549 -285h-273v285h-1146v1443h302v-1194h635v1194h302v-1194h180v-534z" />
<glyph unicode="&#x427;" horiz-adv-x="1437" d="M1307 0h-302v593h-12q-44 -34 -131 -64.5t-203 -30.5q-260 0 -405.5 148.5t-145.5 386.5v410h302v-387q0 -142 78.5 -220.5t225.5 -78.5q107 0 179.5 31t111.5 70v585h302v-1443z" />
<glyph unicode="&#x428;" horiz-adv-x="1986" d="M130 0v1443h302v-1194h410v1194h302v-1194h410v1194h302v-1443h-1726z" />
<glyph unicode="&#x429;" horiz-adv-x="2076" d="M2036 -285h-273v285h-1633v1443h302v-1194h410v1194h302v-1194h410v1194h302v-1194h180v-534z" />
<glyph unicode="&#x42a;" horiz-adv-x="1557" d="M990 0h-597v1195h-335v248h637v-484h279q229 0 372 -132.5t143 -346.5q0 -215 -138 -347.5t-361 -132.5zM695 241h215q129 0 200 62t71 177q0 116 -71.5 178.5t-201.5 62.5h-213v-480z" />
<glyph unicode="&#x42b;" horiz-adv-x="1817" d="M130 0v1443h302v-484h280q229 0 372 -132.5t143 -346.5q0 -215 -138.5 -347.5t-361.5 -132.5h-597zM432 241h215q130 0 200.5 61.5t70.5 177.5t-71 178.5t-201 62.5h-214v-480zM1687 0h-302v1443h302v-1443z" />
<glyph unicode="&#x42c;" horiz-adv-x="1294" d="M130 0v1443h302v-484h280q229 0 372 -132.5t143 -346.5q0 -215 -138.5 -347.5t-361.5 -132.5h-597zM432 241h215q130 0 200.5 61.5t70.5 177.5t-71 178.5t-201 62.5h-214v-480z" />
<glyph unicode="&#x42d;" horiz-adv-x="1477" d="M715 -32q-258 0 -431 136.5t-208 367.5h297q32 -116 122.5 -181.5t218.5 -65.5q152 0 252 105t113 285h-569v234h566q-16 170 -115 269.5t-246 99.5q-126 0 -219.5 -71.5t-121.5 -190.5h-297q19 152 106 270t226 183.5t306 65.5q312 0 494.5 -202.5t182.5 -550.5 q0 -349 -181.5 -551.5t-495.5 -202.5z" />
<glyph unicode="&#x42e;" horiz-adv-x="2089" d="M1321 -37q-288 0 -468 172t-210 473h-211v-608h-302v1443h302v-586h213q35 291 214.5 457t461.5 166q315 0 499 -204t184 -554t-183.5 -554.5t-499.5 -204.5zM1320 1224q-171 0 -274 -136t-103 -366t102 -366.5t275 -136.5q172 0 274 136.5t102 366.5t-102 366t-274 136z " />
<glyph unicode="&#x42f;" horiz-adv-x="1369" d="M939 746v460h-249q-121 0 -189.5 -61.5t-68.5 -168.5q0 -109 68 -169.5t190 -60.5h249zM732 521l-343 -521h-334l380 563q-142 44 -227 154t-85 260q0 210 142.5 338t381.5 128h592v-1443h-300v521h-207z" />
<glyph unicode="&#x430;" horiz-adv-x="1140" d="M519 194q97 0 164.5 56.5t67.5 142.5v78l-226 -14q-82 -6 -126.5 -41t-44.5 -92q0 -60 45 -95t120 -35zM423 -17q-155 0 -257 91t-102 234q0 146 108 229t309 95l270 16v71q0 74 -48.5 116t-131.5 42q-80 0 -130.5 -36t-61.5 -97h-267q8 158 135 254.5t337 96.5 q206 0 330 -98t124 -260v-737h-282v164h-6q-44 -84 -134 -132.5t-193 -48.5z" />
<glyph unicode="&#x431;" horiz-adv-x="1210" d="M614 -23q-261 0 -401.5 162.5t-140.5 474.5q0 298 68.5 485t197.5 272t329 91l125 3q94 3 175.5 17t106.5 27v-226q-14 -13 -89 -28t-175 -18l-118 -4q-194 -6 -281 -100.5t-114 -305.5h8q104 202 362 202q217 0 347 -137.5t130 -370.5q0 -253 -142.5 -398.5 t-387.5 -145.5zM609 207q112 0 174 80t62 227q0 141 -62.5 219.5t-173.5 78.5q-112 0 -175 -78.5t-63 -219.5q0 -147 62.5 -227t175.5 -80z" />
<glyph unicode="&#x432;" horiz-adv-x="1117" d="M564 887h-173v-249h158q80 0 122.5 32.5t42.5 93.5q0 59 -39 91t-111 32zM564 469h-173v-284h186q86 0 131.5 36.5t45.5 106.5q0 141 -190 141zM105 0v1072h537q167 0 262 -71.5t95 -198.5q0 -86 -55.5 -152.5t-138.5 -79.5v-8q108 -13 175 -82t67 -170 q0 -141 -106.5 -225.5t-288.5 -84.5h-547z" />
<glyph unicode="&#x433;" horiz-adv-x="915" d="M852 852h-456v-852h-291v1072h747v-220z" />
<glyph unicode="&#x434;" horiz-adv-x="1298" d="M822 221v632h-321l-24 -339q-13 -188 -78 -285v-8h423zM285 -278h-265v499h82q100 57 118 312l35 539h858v-851h159v-499h-266v278h-721v-278z" />
<glyph unicode="&#x435;" horiz-adv-x="1156" d="M586 879q-95 0 -158.5 -65t-71.5 -166h455q-5 103 -66.5 167t-158.5 64zM815 328h268q-24 -158 -157.5 -254.5t-331.5 -96.5q-247 0 -387.5 148t-140.5 406q0 257 140 410.5t377 153.5q233 0 371 -146t138 -391v-89h-739v-18q0 -115 67.5 -186.5t178.5 -71.5 q80 0 138 36.5t78 98.5z" />
<glyph unicode="&#x436;" horiz-adv-x="1670" d="M1248 573l411 -573h-347l-327 460h-8v-460h-288v460h-7l-328 -460h-343l408 568l-394 504h335l322 -431h7v431h288v-431h8l321 431h332z" />
<glyph unicode="&#x437;" horiz-adv-x="1081" d="M539 -23q-209 0 -337 96.5t-143 266.5h278q38 -137 202 -137q86 0 133 35t47 94q0 123 -179 123h-148v190h140q156 0 156 113q0 54 -39.5 85.5t-114.5 31.5q-77 0 -123.5 -32.5t-56.5 -93.5h-275q16 161 136.5 253.5t316.5 92.5q213 0 326.5 -80t113.5 -225 q0 -81 -43 -141t-118 -81v-8q97 -25 148 -87t51 -152q0 -159 -126.5 -251.5t-344.5 -92.5z" />
<glyph unicode="&#x438;" horiz-adv-x="1215" d="M391 0h-286v1072h286v-670h8l426 670h286v-1072h-286v678h-8z" />
<glyph unicode="&#x439;" horiz-adv-x="1215" d="M391 0h-286v1072h286v-670h8l426 670h286v-1072h-286v678h-8zM265 1557h178q2 -81 49 -132.5t125 -51.5q77 0 124 51.5t49 132.5h179q0 -148 -97 -238.5t-255 -90.5t-255 90.5t-97 238.5z" />
<glyph unicode="&#x43a;" horiz-adv-x="1130" d="M666 576l453 -576h-353l-362 460h-8v-460h-291v1072h291v-431h8l356 431h334z" />
<glyph unicode="&#x43b;" horiz-adv-x="1185" d="M496 514q-7 -125 -29 -217.5t-64 -164.5t-111.5 -108.5t-166.5 -36.5q-58 0 -93 14v246q28 -7 63 -7q71 0 102.5 76t39.5 217l30 539h813v-1072h-291v852h-272z" />
<glyph unicode="&#x43c;" horiz-adv-x="1529" d="M379 0h-274v1072h378l280 -700h7l280 700h374v-1072h-274v717h-7l-278 -657h-202l-277 657h-7v-717z" />
<glyph unicode="&#x43d;" horiz-adv-x="1204" d="M808 0v439h-412v-439h-291v1072h291v-412h412v412h291v-1072h-291z" />
<glyph unicode="&#x43e;" horiz-adv-x="1192" d="M597 -23q-245 0 -388 149t-143 411q0 259 144.5 408.5t386.5 149.5q243 0 387 -149.5t144 -408.5q0 -263 -143 -411.5t-388 -148.5zM597 200q108 0 171 88t63 248q0 158 -63 247t-171 89t-171.5 -89t-63.5 -247q0 -160 63 -248t172 -88z" />
<glyph unicode="&#x43f;" horiz-adv-x="1194" d="M798 0v852h-402v-852h-291v1072h984v-1072h-291z" />
<glyph unicode="&#x440;" horiz-adv-x="1237" d="M731 1089q204 0 321.5 -147t117.5 -406q0 -258 -116 -405.5t-318 -147.5q-115 0 -202.5 52.5t-130.5 144.5h-6v-530h-292v1422h288v-187h6q44 96 130.5 150t201.5 54zM633 218q109 0 173.5 86t64.5 232t-64.5 232.5t-173.5 86.5q-107 0 -172 -87.5t-65 -231.5 q0 -145 64.5 -231.5t172.5 -86.5z" />
<glyph unicode="&#x441;" horiz-adv-x="1127" d="M1070 706h-273q-19 73 -72 116.5t-133 43.5q-108 0 -170.5 -88t-62.5 -241q0 -156 62.5 -243.5t171.5 -87.5q81 0 134 42t72 118h272q-20 -179 -149 -284t-332 -105q-242 0 -383.5 150t-141.5 410q0 256 141.5 407t381.5 151q203 0 331.5 -108t150.5 -281z" />
<glyph unicode="&#x442;" horiz-adv-x="1018" d="M974 1072v-220h-319v-852h-291v852h-320v220h930z" />
<glyph unicode="&#x443;" horiz-adv-x="1132" d="M242 -397q-96 0 -110 3v225q9 -2 73 -2q81 0 123 27.5t57 91.5q0 1 5 25t4 26l-373 1073h321l228 -838h5l228 838h308l-369 -1096q-69 -206 -181.5 -289.5t-318.5 -83.5z" />
<glyph unicode="&#x444;" horiz-adv-x="1577" d="M649 205v663q-133 -4 -211 -92t-78 -240t77.5 -239.5t211.5 -91.5zM1217 536q0 153 -77.5 240t-211.5 92v-663q132 4 210.5 92t78.5 239zM646 -16q-268 6 -424.5 153t-156.5 400q0 249 157.5 397t423.5 154v324h285v-324q267 -6 423.5 -153t156.5 -399 q0 -249 -157.5 -397.5t-422.5 -154.5v-334h-285v334z" />
<glyph unicode="&#x445;" horiz-adv-x="1100" d="M546 372h-6l-201 -372h-307l336 534l-334 538h329l193 -362h6l190 362h318l-335 -530l332 -542h-317z" />
<glyph unicode="&#x446;" horiz-adv-x="1272" d="M1246 -278h-266v278h-875v1072h291v-851h397v851h291v-851h162v-499z" />
<glyph unicode="&#x447;" horiz-adv-x="1160" d="M1055 0h-291v446h-11q-99 -107 -275 -107q-183 0 -288 106.5t-105 289.5v337h291v-295q0 -92 49.5 -144t137.5 -52q136 0 201 85v406h291v-1072z" />
<glyph unicode="&#x448;" horiz-adv-x="1680" d="M105 0v1072h291v-851h299v851h291v-851h299v851h291v-1072h-1471z" />
<glyph unicode="&#x449;" horiz-adv-x="1756" d="M1730 -278h-266v278h-1359v1072h291v-851h299v851h291v-851h299v851h291v-851h154v-499z" />
<glyph unicode="&#x44a;" horiz-adv-x="1294" d="M821 0h-500v852h-277v220h568v-310h209q191 0 303.5 -103t112.5 -278t-112.5 -278t-303.5 -103zM773 547h-161v-329h161q79 0 126.5 45.5t47.5 119.5t-47.5 119t-126.5 45z" />
<glyph unicode="&#x44b;" horiz-adv-x="1520" d="M1125 0v1072h291v-1072h-291zM557 547h-161v-329h161q79 0 126.5 45.5t47.5 119.5t-47.5 119t-126.5 45zM105 0v1072h291v-310h209q190 0 302.5 -103t112.5 -278t-112.5 -278t-302.5 -103h-500z" />
<glyph unicode="&#x44c;" horiz-adv-x="1078" d="M557 547h-161v-329h161q79 0 126.5 45.5t47.5 119.5t-47.5 119t-126.5 45zM105 0v1072h291v-310h209q190 0 302.5 -103t112.5 -278t-112.5 -278t-302.5 -103h-500z" />
<glyph unicode="&#x44d;" horiz-adv-x="1127" d="M328 365q19 -76 73.5 -117.5t137.5 -41.5q94 0 156.5 65.5t71.5 183.5h-385v190h381q-14 104 -75 162.5t-148 58.5q-83 0 -137.5 -43.5t-72.5 -116.5h-273q21 173 151.5 281t335.5 108q238 0 378 -151t140 -407q0 -260 -139.5 -410t-380.5 -150q-205 0 -335.5 104.5 t-150.5 283.5h272z" />
<glyph unicode="&#x44e;" horiz-adv-x="1662" d="M1070 -23q-220 0 -357 121.5t-163 340.5h-154v-439h-291v1072h291v-412h158q33 206 169 320.5t347 114.5q244 0 385.5 -148.5t141.5 -409.5q0 -264 -140.5 -412t-386.5 -148zM1069 207q108 0 168.5 86t60.5 243q0 156 -60.5 243t-168.5 87t-168.5 -87t-60.5 -243 q0 -157 60.5 -243t168.5 -86z" />
<glyph unicode="&#x44f;" horiz-adv-x="1115" d="M550 551h175v304h-175q-77 0 -122.5 -42.5t-45.5 -113.5q0 -65 46 -106.5t122 -41.5zM725 0v346h-117l-238 -346h-324l282 390q-111 35 -173.5 115.5t-62.5 194.5q0 171 116.5 271.5t312.5 100.5h489v-1072h-285z" />
<glyph unicode="&#x450;" horiz-adv-x="1156" d="M586 879q-95 0 -158.5 -65t-71.5 -166h455q-5 103 -66.5 167t-158.5 64zM815 328h268q-24 -158 -157.5 -254.5t-331.5 -96.5q-247 0 -387.5 148t-140.5 406q0 257 140 410.5t377 153.5q233 0 371 -146t138 -391v-89h-739v-18q0 -115 67.5 -186.5t178.5 -71.5 q80 0 138 36.5t78 98.5zM702 1223h-233l-256 310h268z" />
<glyph unicode="&#x451;" horiz-adv-x="1156" d="M586 879q-95 0 -158.5 -65t-71.5 -166h455q-5 103 -66.5 167t-158.5 64zM815 328h268q-24 -158 -157.5 -254.5t-331.5 -96.5q-247 0 -387.5 148t-140.5 406q0 257 140 410.5t377 153.5q233 0 371 -146t138 -391v-89h-739v-18q0 -115 67.5 -186.5t178.5 -71.5 q80 0 138 36.5t78 98.5zM379 1220q-57 0 -95.5 38t-38.5 92t38.5 92t95.5 38t95.5 -38t38.5 -92t-38.5 -92t-95.5 -38zM787 1220q-57 0 -95.5 38t-38.5 92t38.5 92t95.5 38t95.5 -38t38.5 -92t-38.5 -92t-95.5 -38z" />
<glyph unicode="&#x452;" horiz-adv-x="1216" d="M399 883h6q92 209 337 209q177 0 275.5 -107.5t98.5 -294.5v-725q0 -163 -98 -246.5t-287 -83.5q-59 0 -79 3v215q7 -1 37 -1q73 0 104 28t31 94v654q0 105 -51.5 163.5t-149.5 58.5q-102 0 -160.5 -65.5t-58.5 -172.5v-612h-292v1216h-77v148h77v94h287v-94h226v-148 h-226v-333z" />
<glyph unicode="&#x453;" horiz-adv-x="920" d="M852 852h-456v-852h-291v1072h747v-220zM590 1233h-233l221 310h268z" />
<glyph unicode="&#x454;" horiz-adv-x="1127" d="M799 365h272q-19 -178 -148 -283t-333 -105q-243 0 -384 149.5t-141 410.5q0 257 141 407.5t382 150.5q201 0 332.5 -109.5t149.5 -279.5h-273q-17 73 -71.5 116.5t-136.5 43.5q-88 0 -149.5 -59t-75.5 -162h381v-190h-384q8 -117 71.5 -183t157.5 -66q83 0 137 41.5 t72 117.5z" />
<glyph unicode="&#x455;" horiz-adv-x="1074" d="M87 757q0 153 123 245.5t329 92.5q201 0 323 -94t125 -250h-269q-5 65 -53.5 102t-129.5 37q-76 0 -121.5 -31.5t-45.5 -83.5q0 -78 140 -111l205 -44q161 -36 231.5 -104.5t70.5 -188.5q0 -158 -132 -254t-345 -96q-212 0 -339 94t-139 253h285q11 -68 62.5 -105 t138.5 -37q83 0 130.5 30.5t47.5 83.5q0 41 -30 65.5t-102 41.5l-198 44q-307 70 -307 310z" />
<glyph unicode="&#x456;" horiz-adv-x="511" d="M110 0v1072h292v-1072h-292zM256 1190q-66 0 -111 44t-45 107q0 64 45 107.5t111 43.5t111 -43.5t45 -107.5q0 -63 -45 -107t-111 -44z" />
<glyph unicode="&#x457;" horiz-adv-x="511" d="M87 1209q-56 0 -95 39.5t-39 94.5q0 56 38.5 94.5t95.5 38.5q56 0 94.5 -38.5t38.5 -94.5q0 -55 -38.5 -94.5t-94.5 -39.5zM432 1209q-56 0 -94.5 39.5t-38.5 94.5q0 56 38.5 94.5t94.5 38.5q57 0 95.5 -38.5t38.5 -94.5q0 -55 -39 -94.5t-95 -39.5zM110 0v1072h292 v-1072h-292z" />
<glyph unicode="&#x458;" horiz-adv-x="511" d="M402 1072v-1122q0 -163 -98 -247t-286 -84q-54 0 -80 4v215q14 -2 37 -2q73 0 104 28.5t31 93.5v1114h292zM256 1190q-66 0 -111 44t-45 107q0 64 45 107.5t111 43.5t111 -43.5t45 -107.5q0 -63 -45 -107t-111 -44z" />
<glyph unicode="&#x459;" horiz-adv-x="1765" d="M496 514q-7 -125 -29 -217.5t-64 -164.5t-111.5 -108.5t-166.5 -36.5q-58 0 -93 14v246q28 -7 63 -7q71 0 102.5 76t39.5 217l30 539h816v-310h209q190 0 302.5 -103t112.5 -278t-112.5 -278t-302.5 -103h-500v852h-275zM1244 547h-161v-329h161q79 0 126 45.5t47 119.5 t-47.5 119t-125.5 45z" />
<glyph unicode="&#x45a;" horiz-adv-x="1767" d="M1264 487h-180v-271h180q72 0 115.5 37.5t43.5 97.5t-44 98t-115 38zM793 0v478h-397v-478h-291v1072h291v-377h397v377h291v-372h214q188 0 299.5 -95t111.5 -256q0 -160 -111.5 -254.5t-299.5 -94.5h-505z" />
<glyph unicode="&#x45b;" horiz-adv-x="1216" d="M412 881h6q42 102 128.5 156.5t208.5 54.5q177 0 275.5 -107.5t98.5 -294.5v-690h-292v628q0 105 -52 163.5t-150 58.5q-101 0 -159.5 -65.5t-58.5 -172.5v-612h-292v1193h-89v148h89v102h287v-102h213v-148h-213v-312z" />
<glyph unicode="&#x45c;" horiz-adv-x="1130" d="M951 1543l-256 -310h-233l221 310h268zM666 576l453 -576h-353l-362 460h-8v-460h-291v1072h291v-431h8l356 431h334z" />
<glyph unicode="&#x45d;" horiz-adv-x="1215" d="M391 0h-286v1072h286v-670h8l426 670h286v-1072h-286v678h-8zM747 1233h-233l-256 310h268z" />
<glyph unicode="&#x45e;" horiz-adv-x="1132" d="M242 -397q-96 0 -110 3v225q9 -2 73 -2q81 0 123 27.5t57 91.5q0 1 5 25t4 26l-373 1073h321l228 -838h5l228 838h308l-369 -1096q-69 -206 -181.5 -289.5t-318.5 -83.5zM234 1557h178q2 -81 49 -132.5t125 -51.5q77 0 124 51.5t49 132.5h179q0 -148 -97 -238.5 t-255 -90.5t-255 90.5t-97 238.5z" />
<glyph unicode="&#x45f;" horiz-adv-x="1199" d="M1094 0h-362v-278h-265v278h-362v1072h291v-851h407v851h291v-1072z" />
<glyph unicode="&#x462;" horiz-adv-x="1512" d="M650 241h220q127 0 196.5 59.5t69.5 169.5q0 112 -70 171.5t-198 59.5h-218v-460zM650 939h284q227 0 368.5 -129.5t141.5 -339.5q0 -211 -137 -340.5t-357 -129.5h-602v1140h-335v215h335v167h302v-167h403v-215h-403v-201z" />
<glyph unicode="&#x463;" horiz-adv-x="1244" d="M557 221h166q79 0 126.5 44.5t47.5 117.5q0 72 -47.5 116.5t-126.5 44.5h-166v-323zM557 762h213q191 0 303.5 -103t112.5 -278t-112.5 -278t-303.5 -103h-504v915h-252v157h252v371h291v-371h387v-157h-387v-153z" />
<glyph unicode="&#x472;" horiz-adv-x="1557" d="M780 217q158 0 260 111t122 303q-74 -63 -181 -63q-76 0 -151.5 23t-143 45.5t-126.5 22.5q-110 0 -161 -58q26 -179 127 -281.5t254 -102.5zM780 1227q-156 0 -258 -107.5t-125 -295.5q72 58 172 58q75 0 150 -23t143.5 -45.5t129.5 -22.5q113 0 165 61 q-28 176 -127.5 275.5t-249.5 99.5zM780 1480q319 0 506 -204t187 -554t-186.5 -554.5t-506.5 -204.5q-322 0 -508.5 204t-186.5 555q0 350 188 554t507 204z" />
<glyph unicode="&#x473;" horiz-adv-x="1192" d="M597 204q93 0 153.5 64.5t76.5 182.5q-46 -37 -117 -37q-56 0 -130.5 26t-119.5 26q-65 0 -90 -36q19 -109 78.5 -167.5t148.5 -58.5zM597 869q-96 0 -158 -70.5t-75 -197.5q49 46 120 46q56 1 130 -24t121 -25q65 0 90 30q-17 114 -77.5 177.5t-150.5 63.5zM597 1095 q244 0 387.5 -149.5t143.5 -408.5q0 -262 -142.5 -411t-388.5 -149t-389 149.5t-143 410.5q0 258 144 408t388 150z" />
<glyph unicode="&#x474;" horiz-adv-x="1564" d="M891 0h-365l-488 1443h341l328 -1113h18l227 758q33 124 72.5 199t95.5 116q75 58 200 58q58 0 122 -16t109 -43l-82 -240q-50 20 -91 20q-44 0 -73 -27q-32 -30 -63 -120z" />
<glyph unicode="&#x475;" horiz-adv-x="1217" d="M1242 1043l-74 -216q-41 18 -81 18q-38 0 -64 -25q-25 -24 -54 -103l-247 -717h-329l-371 1072h313l217 -789h18l135 480q28 111 62.5 176.5t85.5 102.5q73 54 178 54q52 0 110 -14.5t101 -38.5z" />
<glyph unicode="&#x48a;" horiz-adv-x="1583" d="M930 1838h176q0 -140 -96 -225t-251 -85t-251 85t-96 225h176q1 -76 48.5 -122t122.5 -46t122.5 46t48.5 122zM1389 249h179v-62l-120 -472h-267l80 285h-173v249v727h-12l-655 -976h-291v1443h301v-977h12l655 977h291v-1194z" />
<glyph unicode="&#x48b;" horiz-adv-x="1293" d="M790 1557h179q0 -148 -97 -238.5t-255 -90.5t-255 90.5t-97 238.5h178q2 -81 49 -132.5t125 -51.5q77 0 124 51.5t49 132.5zM1111 221h178v-63l-107 -436h-265l74 278h-166v221v457h-8l-426 -678h-286v1072h286v-670h8l426 670h286v-851z" />
<glyph unicode="&#x48c;" horiz-adv-x="1512" d="M650 241h220q127 0 196.5 59.5t69.5 169.5q0 112 -70 171.5t-198 59.5h-218v-460zM650 939h284q227 0 368.5 -129.5t141.5 -339.5q0 -211 -137 -340.5t-357 -129.5h-602v1140h-335v215h335v167h302v-167h403v-215h-403v-201z" />
<glyph unicode="&#x48d;" horiz-adv-x="1244" d="M557 221h166q79 0 126.5 44.5t47.5 117.5q0 72 -47.5 116.5t-126.5 44.5h-166v-323zM557 762h213q191 0 303.5 -103t112.5 -278t-112.5 -278t-303.5 -103h-504v915h-252v157h252v371h291v-371h387v-157h-387v-153z" />
<glyph unicode="&#x48e;" horiz-adv-x="1290" d="M427 688h204q15 0 45 2l-110 173l145 94l129 -198q68 65 68 187q0 125 -72 191t-204 66h-205v-515zM125 1443h587q223 0 361.5 -136.5t138.5 -359.5q0 -126 -54.5 -228.5t-153.5 -168.5l128 -194l-185 -127l-153 239q-63 -12 -133 -12h-234v-456h-302v1443z" />
<glyph unicode="&#x48f;" horiz-adv-x="1237" d="M717 503l110 -169q43 80 43 202q0 148 -64 233t-174 85t-174.5 -86t-64.5 -232q0 -148 64.5 -233.5t174.5 -85.5q28 0 61 7l-119 187zM392 886h12q44 96 131 149.5t199 53.5q204 0 319.5 -146.5t115.5 -406.5q0 -299 -155 -446l111 -167l-183 -126l-124 193 q-38 -7 -84 -7q-114 0 -200 50.5t-126 140.5h-12v-524h-291v1422h287v-186z" />
<glyph unicode="&#x490;" horiz-adv-x="1123" d="M433 1193v-1193h-303v1443h647v285h283v-535h-627z" />
<glyph unicode="&#x491;" horiz-adv-x="915" d="M852 852h-456v-852h-291v1072h481v278h266v-498z" />
<glyph unicode="&#x492;" horiz-adv-x="1144" d="M1082 1193h-627v-385h448v-210h-448v-598h-303v598h-98v210h98v635h930v-250z" />
<glyph unicode="&#x493;" horiz-adv-x="971" d="M908 852h-456v-253h322v-157h-322v-442h-291v442h-104v157h104v473h747v-220z" />
<glyph unicode="&#x494;" horiz-adv-x="1383" d="M1035 1443v-249h-603v-409h17q130 122 339 122q234 0 367 -133t133 -345q0 -225 -137 -360.5t-373 -135.5q-105 0 -146 17v237q39 -12 119 -12q109 0 171.5 62.5t62.5 173.5q0 110 -69.5 174.5t-187.5 64.5q-97 0 -178.5 -45.5t-117.5 -117.5v-487h-302v1443h905z" />
<glyph unicode="&#x495;" horiz-adv-x="1185" d="M396 521h9q115 101 274 101q205 0 325.5 -126.5t120.5 -328.5q0 -226 -129.5 -356t-347.5 -130q-96 0 -144 16v222q42 -8 110 -8q101 0 159 61.5t58 175.5q0 99 -57.5 162t-152.5 63q-150 0 -225 -130v-243h-291v1072h773v-220h-482v-331z" />
<glyph unicode="&#x496;" horiz-adv-x="2070" d="M1851 249h207v-534h-274v285h-99h-8l-492 634h-8v-634h-294v634h-8l-495 -634h-362l590 754l-556 689h342l481 -611h8v611h294v-611h8l482 611h336l-552 -684z" />
<glyph unicode="&#x497;" horiz-adv-x="1703" d="M1500 221h191v-499h-269v278h-104h-6l-327 460h-8v-460h-288v460h-7l-328 -460h-343l408 568l-394 504h335l322 -431h7v431h288v-431h8l321 431h332l-390 -499z" />
<glyph unicode="&#x498;" horiz-adv-x="1286" d="M895 759v-8q146 -16 232 -111.5t86 -240.5q0 -158 -115 -272.5t-305 -149.5v-262h-273v256q-199 29 -319 146t-128 293h289q7 -93 83 -148t199 -55q116 0 187.5 58.5t71.5 153.5q0 94 -70 147.5t-194 53.5h-194v235h191q108 0 175.5 55t67.5 144t-64 140t-175 51 q-112 0 -181 -56t-75 -151h-279q7 204 153.5 323t389.5 119q232 0 375.5 -108.5t143.5 -282.5q0 -122 -75 -213t-197 -117z" />
<glyph unicode="&#x499;" horiz-adv-x="1081" d="M811 568v-8q97 -25 148 -87t51 -152q0 -133 -90.5 -221t-252.5 -113v-265h-267v268q-150 29 -239.5 120t-101.5 230h278q38 -137 202 -137q86 0 133 35t47 94q0 123 -179 123h-148v190h140q156 0 156 113q0 54 -39.5 85.5t-114.5 31.5q-77 0 -123.5 -32.5t-56.5 -93.5 h-275q16 161 136.5 253.5t316.5 92.5q213 0 326.5 -80t113.5 -225q0 -81 -43 -141t-118 -81z" />
<glyph unicode="&#x49a;" horiz-adv-x="1382" d="M1150 249h220v-534h-274v285h-105h-7l-544 634h-8v-634h-302v1443h302v-611h8l533 611h341l-598 -683z" />
<glyph unicode="&#x49b;" horiz-adv-x="1167" d="M945 221h210v-499h-269v278h-108h-12l-362 460h-8v-460h-291v1072h291v-431h8l356 431h334l-428 -496z" />
<glyph unicode="&#x49c;" horiz-adv-x="1493" d="M1011 739l463 -739h-345l-380 603h-24v-296h-185v296h-108v-603h-302v1443h302v-619h108v296h185v-296h23l370 619h312z" />
<glyph unicode="&#x49d;" horiz-adv-x="1304" d="M941 583l351 -583h-330l-269 446h-18v-237h-178v237h-101v-446h-291v1072h291v-419h101v242h178v-242h18l264 419h314z" />
<glyph unicode="&#x49e;" horiz-adv-x="1451" d="M772 757l660 -757h-373l-546 616h-25v-616h-302v1103h-156v211h156v129h302v-129h193v-211h-193v-256h25l536 596h340z" />
<glyph unicode="&#x49f;" horiz-adv-x="1134" d="M694 612l429 -612h-336l-307 436l-76 -82v-354h-292v1206h-77v147h77v90h292v-90h261v-147h-261v-564h4l364 430h331z" />
<glyph unicode="&#x4a0;" horiz-adv-x="1902" d="M1239 760l645 -760h-377l-544 634h-8v-634h-302v1195h-595v248h595h302v-248v-363h8l533 611h341z" />
<glyph unicode="&#x4a1;" horiz-adv-x="1525" d="M1062 576l453 -576h-353l-362 460h-8v-460h-291v852h-443v220h443h290h1v-431h8l356 431h334z" />
<glyph unicode="&#x4a2;" horiz-adv-x="1604" d="M1384 249h180v-534h-273v285h-209v249v359h-650v-608h-302v1443h302v-586h650v586h302v-1194z" />
<glyph unicode="&#x4a3;" horiz-adv-x="1286" d="M1099 221h161v-499h-268v278h-184v221v218h-412v-439h-291v1072h291v-412h412v412h291v-851z" />
<glyph unicode="&#x4a4;" horiz-adv-x="2075" d="M2012 1443v-248h-628v-1195h-302v608h-650v-608h-302v1443h302v-586h650v338v248h302h628z" />
<glyph unicode="&#x4a5;" horiz-adv-x="1637" d="M1574 1072v-220h-475v-852h-291v439h-412v-439h-291v1072h291v-412h412v412h19h272h475z" />
<glyph unicode="&#x4a6;" horiz-adv-x="2264" d="M130 1443h1184v-658h17q130 122 339 122q227 0 363 -130t136 -348q0 -227 -138 -361.5t-371 -134.5q-97 0 -146 17v237q38 -12 118 -12q110 0 172 62.5t62 173.5q0 110 -69 174.5t-187 64.5q-97 0 -178.5 -45t-117.5 -118v-487h-301v1193h-580v-1193h-303v1443z" />
<glyph unicode="&#x4a7;" horiz-adv-x="1878" d="M105 1072h984v-551h9q115 101 274 101q205 0 325.5 -126.5t120.5 -328.5q0 -226 -129.5 -356t-347.5 -130q-96 0 -144 16v222q43 -8 110 -8q101 0 159 61.5t58 175.5q0 99 -57.5 162t-152.5 63q-150 0 -225 -130v-243h-291v852h-402v-852h-291v1072z" />
<glyph unicode="&#x4a8;" horiz-adv-x="1987" d="M1292 1053q-102 0 -158 -76.5t-56 -201.5q0 -133 54.5 -252t156.5 -197q101 76 159 198t58 259q0 119 -58.5 194.5t-155.5 75.5zM1856 275l96 -216q-143 -96 -322 -96q-195 0 -351 90q-169 -88 -374 -88q-184 0 -338 58t-259.5 161t-164 248t-58.5 317q0 196 83.5 357.5 t237 262t350.5 118.5v-268q-172 -37 -269.5 -166.5t-97.5 -307.5q0 -231 146.5 -380t370.5 -149q68 0 125 9q-118 102 -181.5 241t-63.5 300q0 232 140 383.5t366 151.5q230 0 368.5 -140.5t138.5 -373.5q0 -162 -72 -314t-193 -256q51 -8 98 -8q123 0 224 66z" />
<glyph unicode="&#x4a9;" horiz-adv-x="1687" d="M1099 826q-80 0 -127 -57.5t-47 -156.5q0 -94 43.5 -182t121.5 -145q86 50 134.5 140t48.5 193q0 92 -48.5 150t-125.5 58zM1569 231l79 -187q-122 -73 -273 -73q-173 0 -316 82q-144 -81 -354 -81q-292 0 -466 158.5t-174 420.5q0 231 146.5 390t387.5 176v-242 q-118 -21 -183.5 -108.5t-65.5 -214.5q0 -163 110 -263.5t285 -100.5q35 0 89 7q-90 74 -142 181.5t-52 239.5q0 196 126.5 316t332.5 120q204 0 331 -118.5t127 -303.5q0 -134 -64 -252t-176 -190q37 -5 68 -5q104 0 184 48z" />
<glyph unicode="&#x4aa;" horiz-adv-x="1479" d="M1109 501h294q-24 -224 -174 -363.5t-386 -159.5l-41 -88q86 -1 137 -44.5t51 -119.5q0 -89 -66 -137t-182 -49q-97 -2 -142 14v122q41 -12 112 -12q111 0 111 54q0 30 -28 42.5t-95 12.5h-63v98l49 108q-280 26 -440.5 222t-160.5 521q0 347 184 546.5t499 199.5 q172 0 312.5 -68t225.5 -192t96 -283h-294q-21 133 -114.5 213t-225.5 80q-171 0 -273 -134t-102 -361q0 -231 101 -364.5t275 -133.5q134 0 225 74t115 202z" />
<glyph unicode="&#x4ab;" horiz-adv-x="1136" d="M808 393h272q-10 -172 -121 -282t-292 -130l-42 -91q86 -1 137 -44.5t51 -119.5q0 -89 -66 -137t-182 -49q-97 -2 -142 14v122q41 -12 112 -12q111 0 111 54q0 30 -28 42.5t-95 12.5h-63v98l50 111q-207 26 -325.5 172t-118.5 383q0 257 142.5 407.5t383.5 150.5 q214 0 345.5 -118t141.5 -304h-271q-13 87 -68.5 140t-143.5 53q-109 0 -171.5 -87.5t-62.5 -241.5q0 -157 62.5 -244t172.5 -87q87 0 142 49.5t69 137.5z" />
<glyph unicode="&#x4ac;" horiz-adv-x="1252" d="M1195 1194h-418v-945h185v-534h-273v285h-209h-5v1194h-417v249h1137v-249z" />
<glyph unicode="&#x4ad;" horiz-adv-x="1018" d="M974 852h-319v-631h161v-499h-268v278h-184v221v631h-320v220h930v-220z" />
<glyph unicode="&#x4ae;" horiz-adv-x="1372" d="M837 0h-302v539l-502 904h329l323 -616h7l324 616h324l-503 -904v-539z" />
<glyph unicode="&#x4af;" horiz-adv-x="1082" d="M1076 1072l-388 -1069v-353h-288v353l-394 1069h313l221 -738h11l218 738h307z" />
<glyph unicode="&#x4b0;" horiz-adv-x="1372" d="M1340 1443l-438 -787h275v-199h-340v-457h-302v457h-340v199h275l-437 787h329l323 -616h7l324 616h324z" />
<glyph unicode="&#x4b1;" horiz-adv-x="1082" d="M688 3v-3h207v-148h-207v-202h-288v202h-207v148h207v3l-394 1069h313l221 -738h11l218 738h307z" />
<glyph unicode="&#x4b2;" horiz-adv-x="1433" d="M1203 249h207v-534h-274v285h-115l-316 505h-8l-318 -505h-326l458 723v8l-455 712h355l306 -520h8l309 520h337l-472 -718v-7z" />
<glyph unicode="&#x4b3;" d="M932 221h176v-499h-268v278h-90h-1v2l-203 370h-6l-201 -372h-307l336 534l-334 538h329l193 -362h6l190 362h318l-335 -530z" />
<glyph unicode="&#x4b4;" horiz-adv-x="1944" d="M1724 249h180v-534h-273v285h-1156v1194h-417v249h417h302h414v-249h-414v-945h645v1194h302v-1194z" />
<glyph unicode="&#x4b5;" horiz-adv-x="1494" d="M1306 221h162v-499h-266v278h-875v852h-283v220h283h291h264v-220h-264v-631h397v851h291v-851z" />
<glyph unicode="&#x4b6;" horiz-adv-x="1527" d="M1307 249h180v-534h-274v285h-208v249v344h-12q-44 -34 -131 -64.5t-203 -30.5q-260 0 -405.5 148.5t-145.5 386.5v410h302v-387q0 -142 78.5 -220.5t225.5 -78.5q107 0 179.5 31t111.5 70v585h302v-1194z" />
<glyph unicode="&#x4b7;" horiz-adv-x="1239" d="M1055 221h158v-499h-268v278h-180h-1v446h-11q-99 -107 -275 -107q-183 0 -288 106.5t-105 289.5v337h291v-295q0 -92 49.5 -144t137.5 -52q136 0 201 85v406h291v-851z" />
<glyph unicode="&#x4b8;" horiz-adv-x="1457" d="M1025 1443h302v-1443h-302v597h-14q-74 -56 -185 -81v-238h-200v221q-239 10 -378.5 157t-139.5 377v410h302v-387q0 -120 54.5 -195t161.5 -96v292h200v-289q127 25 199 100v575z" />
<glyph unicode="&#x4b9;" horiz-adv-x="1201" d="M806 1072h291v-1072h-291v438h-12q-39 -36 -108 -62v-210h-189v181q-190 7 -301 117.5t-111 292.5v315h291v-304q0 -143 121 -181v262h189v-259q72 20 120 63v419z" />
<glyph unicode="&#x4ba;" horiz-adv-x="1454" d="M130 1443h302v-587h18q136 104 337 104q251 0 396.5 -148t145.5 -386v-426h-302v403q0 141 -78 219.5t-222 78.5q-97 0 -173.5 -33t-121.5 -92v-576h-302v1443z" />
<glyph unicode="&#x4bb;" horiz-adv-x="1209" d="M105 0v1443h287v-562h6q43 102 129.5 156.5t207.5 54.5q177 0 275.5 -107.5t98.5 -294.5v-690h-292v628q0 105 -51.5 163.5t-149.5 58.5q-102 0 -160.5 -65.5t-58.5 -172.5v-612h-292z" />
<glyph unicode="&#x4bc;" horiz-adv-x="1786" d="M709 885h674q-10 159 -101 251t-235 92q-134 0 -226.5 -93t-111.5 -250zM704 665v-32q-1 -189 100.5 -303t269.5 -114q118 0 199 51t113 147h301q-35 -201 -205 -326t-409 -125q-304 0 -486.5 187t-197.5 514q-176 4 -275 95t-99 234q0 47 8.5 89t17.5 61l9 19h242 l-7 -18q-7 -18 -14.5 -51t-7.5 -64q0 -62 35 -97.5t104 -37.5q44 271 216.5 428.5t433.5 157.5q304 0 476.5 -189t172.5 -522l-2 -104h-995z" />
<glyph unicode="&#x4bd;" horiz-adv-x="1422" d="M622 648h455q-5 103 -66.5 167t-158.5 64q-95 0 -158.5 -65t-71.5 -166zM1358 469h-739v-18q0 -115 67.5 -186.5t178.5 -71.5q80 0 138 36.5t78 98.5h268q-24 -158 -157.5 -254.5t-331.5 -96.5q-229 0 -367.5 129t-157.5 356q-150 9 -231.5 86t-81.5 208q0 47 11 92 t22 63h217q-28 -64 -28 -132q0 -106 98 -121q33 203 167 320t340 117q233 0 371 -146t138 -391v-89z" />
<glyph unicode="&#x4be;" horiz-adv-x="1786" d="M709 885h674q-10 159 -101 251t-235 92q-134 0 -226.5 -93t-111.5 -250zM704 665v-32q-1 -189 100.5 -303t269.5 -114q118 0 199 51t113 147h301q-31 -173 -163.5 -291.5t-326.5 -149.5v-258h-272v261q-240 44 -381.5 224t-154.5 464q-176 4 -275 95t-99 234q0 47 8.5 89 t17.5 61l9 19h242l-7 -18q-7 -18 -14.5 -51t-7.5 -64q0 -62 35 -97.5t104 -37.5q44 271 216.5 428.5t433.5 157.5q304 0 476.5 -189t172.5 -522l-2 -104h-995z" />
<glyph unicode="&#x4bf;" horiz-adv-x="1422" d="M622 648h455q-5 103 -66.5 167t-158.5 64q-95 0 -158.5 -65t-71.5 -166zM1358 469h-739v-18q0 -115 67.5 -186.5t178.5 -71.5q80 0 138 36.5t78 98.5h268q-20 -130 -116 -220t-244 -119v-274h-267v276q-170 35 -270.5 157.5t-116.5 313.5q-150 9 -231.5 86t-81.5 208 q0 47 11 92t22 63h217q-28 -64 -28 -132q0 -106 98 -121q33 203 167 320t340 117q233 0 371 -146t138 -391v-89z" />
<glyph unicode="&#x4c0;" horiz-adv-x="562" d="M432 0h-302v1443h302v-1443z" />
<glyph unicode="&#x4c1;" horiz-adv-x="2064" d="M1209 1859h181q-7 -136 -102.5 -228t-255.5 -92t-255.5 92t-102.5 228h181q6 -78 53.5 -124.5t123.5 -46.5t123.5 46.5t53.5 124.5zM1451 759l596 -759h-370l-492 634h-8v-634h-294v634h-8l-495 -634h-362l590 754l-556 689h342l481 -611h8v611h294v-611h8l482 611h336z " />
<glyph unicode="&#x4c2;" horiz-adv-x="1670" d="M1022 1557h179q0 -148 -97 -238.5t-255 -90.5t-255 90.5t-97 238.5h178q2 -81 49 -132.5t125 -51.5q77 0 124 51.5t49 132.5zM1248 573l411 -573h-347l-327 460h-8v-460h-288v460h-7l-328 -460h-343l408 568l-394 504h335l322 -431h7v431h288v-431h8l321 431h332z" />
<glyph unicode="&#x4c3;" horiz-adv-x="1404" d="M1352 1443l-577 -653q237 -59 374 -221t137 -376q0 -175 -73 -314.5t-207 -219t-304 -79.5q-72 0 -122 11v240q34 -6 83 -6q145 0 231.5 102t86.5 257q0 178 -133.5 287t-355.5 109h-27v-580h-302v1443h302v-614h11l540 614h336z" />
<glyph unicode="&#x4c4;" horiz-adv-x="1144" d="M579 -373q-68 0 -118 12v223q34 -7 81 -7q112 0 174.5 72t62.5 196q0 138 -96.5 223t-256.5 85h-30v-431h-291v1072h291v-421h27l337 421h330l-398 -461q173 -51 275 -179.5t102 -302.5q0 -232 -133.5 -367t-356.5 -135z" />
<glyph unicode="&#x4c5;" horiz-adv-x="1532" d="M1339 249h178v-62l-121 -472h-266l79 285h-172v249v945h-421l-35 -624q-16 -290 -116.5 -436.5t-310.5 -146.5q-69 0 -109 14v264q37 -8 67 -8q97 0 139.5 81t51.5 252l43 853h993v-1194z" />
<glyph unicode="&#x4c6;" horiz-adv-x="1258" d="M1080 221h173v-63l-107 -436h-265l75 278h-167v221v631h-272l-21 -338q-7 -125 -29 -217.5t-64 -164.5t-111.5 -108.5t-166.5 -36.5q-58 0 -93 14v246q28 -7 63 -7q71 0 102.5 76t39.5 217l30 539h813v-851z" />
<glyph unicode="&#x4c7;" horiz-adv-x="1514" d="M1082 1443h302v-1089v-354v-23q0 -342 -401 -342q-42 0 -78 3v219q6 -1 37 -1q76 0 108 29.5t32 98.5v16v354v254h-650v-608h-302v1443h302v-586h650v586z" />
<glyph unicode="&#x4c8;" horiz-adv-x="1204" d="M808 1072h291v-724v-348v-20q0 -164 -98 -248t-286 -84q-42 0 -78 3v216q12 -2 35 -2q74 0 105 28.5t31 93.5v13v348v91h-412v-439h-291v1072h291v-412h412v412z" />
<glyph unicode="&#x4c9;" horiz-adv-x="1577" d="M1384 249h178v-62l-120 -472h-267l80 285h-173v249v359h-650v-608h-302v1443h302v-586h650v586h302v-1194z" />
<glyph unicode="&#x4ca;" horiz-adv-x="1276" d="M1099 221h173v-63l-107 -436h-265l74 278h-166v221v218h-412v-439h-291v1072h291v-412h412v412h291v-851z" />
<glyph unicode="&#x4cb;" horiz-adv-x="1437" d="M1005 1443h302v-1194v-249h-209v-285h-273v534h180v344h-12q-44 -34 -131 -64.5t-203 -30.5q-260 0 -405.5 148.5t-145.5 386.5v410h302v-387q0 -142 78.5 -220.5t225.5 -78.5q107 0 179.5 31t111.5 70v585z" />
<glyph unicode="&#x4cc;" horiz-adv-x="1160" d="M764 1072h291v-851v-221h-184v-278h-268v499h161v244h-11q-106 -115 -285 -115q-176 0 -279.5 106.5t-103.5 288.5v327h291v-284q0 -93 48.5 -144.5t134.5 -51.5q77 0 128.5 30t76.5 67v383z" />
<glyph unicode="&#x4cd;" horiz-adv-x="1884" d="M1658 249h211v-62l-121 -472h-266l79 285h-172v249v725h-8l-392 -960h-190l-392 960h-8v-974h-269v1443h350l410 -1023h8l410 1023h350v-1194z" />
<glyph unicode="&#x4ce;" horiz-adv-x="1619" d="M1424 221h191v-63l-108 -436h-265l74 278h-166v221v496h-7l-278 -657h-202l-277 657h-7v-717h-274v1072h378l280 -700h7l280 700h374v-851z" />
<glyph unicode="&#x4cf;" horiz-adv-x="500" d="M105 0v1443h291v-1443h-291z" />
<glyph unicode="&#x4d0;" horiz-adv-x="1433" d="M1075 0l-110 350h-507l-110 -350h-310l501 1443h355l502 -1443h-321zM708 1167l-185 -591h377l-185 591h-7zM358 1863h176q1 -76 48.5 -122t122.5 -46t122.5 46t48.5 122h176q0 -140 -96 -225t-251 -85t-251 85t-96 225z" />
<glyph unicode="&#x4d1;" horiz-adv-x="1140" d="M519 194q97 0 164.5 56.5t67.5 142.5v78l-226 -14q-82 -6 -126.5 -41t-44.5 -92q0 -60 45 -95t120 -35zM423 -17q-155 0 -257 91t-102 234q0 146 108 229t309 95l270 16v71q0 74 -48.5 116t-131.5 42q-80 0 -130.5 -36t-61.5 -97h-267q8 158 135 254.5t337 96.5 q206 0 330 -98t124 -260v-737h-282v164h-6q-44 -84 -134 -132.5t-193 -48.5zM234 1557h178q2 -81 49 -132.5t125 -51.5q77 0 124 51.5t49 132.5h179q0 -148 -97 -238.5t-255 -90.5t-255 90.5t-97 238.5z" />
<glyph unicode="&#x4d2;" horiz-adv-x="1433" d="M1075 0l-110 350h-507l-110 -350h-310l501 1443h355l502 -1443h-321zM708 1167l-185 -591h377l-185 591h-7zM513 1571q-57 0 -95.5 38t-38.5 92t38.5 92t95.5 38t95.5 -38t38.5 -92t-38.5 -92t-95.5 -38zM921 1571q-57 0 -95.5 38t-38.5 92t38.5 92t95.5 38t95.5 -38 t38.5 -92t-38.5 -92t-95.5 -38z" />
<glyph unicode="&#x4d3;" horiz-adv-x="1140" d="M519 194q97 0 164.5 56.5t67.5 142.5v78l-226 -14q-82 -6 -126.5 -41t-44.5 -92q0 -60 45 -95t120 -35zM423 -17q-155 0 -257 91t-102 234q0 146 108 229t309 95l270 16v71q0 74 -48.5 116t-131.5 42q-80 0 -130.5 -36t-61.5 -97h-267q8 158 135 254.5t337 96.5 q206 0 330 -98t124 -260v-737h-282v164h-6q-44 -84 -134 -132.5t-193 -48.5zM372 1220q-57 0 -95.5 38t-38.5 92t38.5 92t95.5 38t95.5 -38t38.5 -92t-38.5 -92t-95.5 -38zM780 1220q-57 0 -95.5 38t-38.5 92t38.5 92t95.5 38t95.5 -38t38.5 -92t-38.5 -92t-95.5 -38z" />
<glyph unicode="&#x4d4;" horiz-adv-x="2019" d="M830 1211l-255 -612h391v612h-136zM966 0v373h-479l-158 -373h-301l613 1443h1270v-249h-669v-353h632v-232h-632v-360h669v-249h-945z" />
<glyph unicode="&#x4d5;" horiz-adv-x="1817" d="M1262 -23q-133 0 -237.5 54.5t-155.5 149.5h-9q-57 -94 -157 -146t-233 -52q-188 0 -298.5 89.5t-110.5 235.5q0 145 109 228t315 94l266 15v59q0 74 -54.5 123.5t-137.5 49.5q-79 0 -131.5 -37.5t-59.5 -96.5h-263q8 157 130.5 254.5t316.5 97.5q126 0 219.5 -43 t137.5 -118h8q114 161 353 161q218 0 350 -145t132 -392v-88h-730v-19q0 -114 67.5 -186t176.5 -72q77 0 133 36.5t77 98.5h268q-24 -158 -156 -254.5t-326 -96.5zM1254 879q-95 0 -158 -64.5t-71 -166.5h446q-4 105 -63 168t-154 63zM511 190q99 0 169.5 60t70.5 143v75 l-231 -15q-85 -6 -132.5 -40t-47.5 -90q0 -58 48.5 -95.5t122.5 -37.5z" />
<glyph unicode="&#x4d6;" horiz-adv-x="1195" d="M1086 250v-250h-956v1443h956v-249h-654v-348h617v-232h-617v-364h654zM259 1863h176q1 -76 48.5 -122t122.5 -46t122.5 46t48.5 122h176q0 -140 -96 -225t-251 -85t-251 85t-96 225z" />
<glyph unicode="&#x4d7;" horiz-adv-x="1156" d="M586 879q-95 0 -158.5 -65t-71.5 -166h455q-5 103 -66.5 167t-158.5 64zM815 328h268q-24 -158 -157.5 -254.5t-331.5 -96.5q-247 0 -387.5 148t-140.5 406q0 257 140 410.5t377 153.5q233 0 371 -146t138 -391v-89h-739v-18q0 -115 67.5 -186.5t178.5 -71.5 q80 0 138 36.5t78 98.5zM241 1557h178q2 -81 49 -132.5t125 -51.5q77 0 124 51.5t49 132.5h179q0 -148 -97 -238.5t-255 -90.5t-255 90.5t-97 238.5z" />
<glyph unicode="&#x4d8;" horiz-adv-x="1488" d="M744 -37q-307 0 -482 197t-177 527l2 107h1000v16q1 183 -101.5 300.5t-260.5 117.5q-237 0 -318 -199h-306q55 210 222.5 330.5t402.5 120.5q308 0 492.5 -207t184.5 -553q0 -225 -82 -397t-232 -266t-345 -94zM746 216q136 0 229 97.5t109 259.5h-681 q12 -165 104.5 -261t238.5 -96z" />
<glyph unicode="&#x4d9;" horiz-adv-x="1156" d="M570 193q96 0 160.5 64.5t70.5 167.5h-454q2 -105 63.5 -168.5t159.5 -63.5zM342 757h-268q36 158 166 248t329 90q243 0 382.5 -148.5t139.5 -406.5t-141 -410.5t-381 -152.5q-231 0 -367.5 146t-136.5 393l2 88h737v17q0 115 -65 187t-173 72q-166 0 -224 -123z" />
<glyph unicode="&#x4da;" horiz-adv-x="1488" d="M744 -37q-307 0 -482 197t-177 527l2 107h1000v16q1 183 -101.5 300.5t-260.5 117.5q-237 0 -318 -199h-306q55 210 222.5 330.5t402.5 120.5q308 0 492.5 -207t184.5 -553q0 -225 -82 -397t-232 -266t-345 -94zM746 216q136 0 229 97.5t109 259.5h-681 q12 -165 104.5 -261t238.5 -96zM516 1571q-57 0 -95.5 38t-38.5 92t38.5 92t95.5 38t95.5 -38t38.5 -92t-38.5 -92t-95.5 -38zM924 1571q-57 0 -95.5 38t-38.5 92t38.5 92t95.5 38t95.5 -38t38.5 -92t-38.5 -92t-95.5 -38z" />
<glyph unicode="&#x4db;" horiz-adv-x="1156" d="M570 193q96 0 160.5 64.5t70.5 167.5h-454q2 -105 63.5 -168.5t159.5 -63.5zM342 757h-268q36 158 166 248t329 90q243 0 382.5 -148.5t139.5 -406.5t-141 -410.5t-381 -152.5q-231 0 -367.5 146t-136.5 393l2 88h737v17q0 115 -65 187t-173 72q-166 0 -224 -123z M375 1230q-57 0 -95.5 38t-38.5 92t38.5 92t95.5 38t95.5 -38t38.5 -92t-38.5 -92t-95.5 -38zM783 1230q-57 0 -95.5 38t-38.5 92t38.5 92t95.5 38t95.5 -38t38.5 -92t-38.5 -92t-95.5 -38z" />
<glyph unicode="&#x4dc;" horiz-adv-x="2064" d="M1236 1571q-57 0 -95.5 38t-38.5 92t38.5 92t95.5 38t95.5 -38t38.5 -92t-38.5 -92t-95.5 -38zM828 1571q-57 0 -95.5 38t-38.5 92t38.5 92t95.5 38t95.5 -38t38.5 -92t-38.5 -92t-95.5 -38zM1451 759l596 -759h-370l-492 634h-8v-634h-294v634h-8l-495 -634h-362 l590 754l-556 689h342l481 -611h8v611h294v-611h8l482 611h336z" />
<glyph unicode="&#x4dd;" horiz-adv-x="1670" d="M1052 1230q-57 0 -95.5 38t-38.5 92t38.5 92t95.5 38t95.5 -38t38.5 -92t-38.5 -92t-95.5 -38zM644 1230q-57 0 -95.5 38t-38.5 92t38.5 92t95.5 38t95.5 -38t38.5 -92t-38.5 -92t-95.5 -38zM1248 573l411 -573h-347l-327 460h-8v-460h-288v460h-7l-328 -460h-343 l408 568l-394 504h335l322 -431h7v431h288v-431h8l321 431h332z" />
<glyph unicode="&#x4de;" horiz-adv-x="1286" d="M445 620v235h191q108 0 175.5 55t67.5 144t-64 140t-175 51q-112 0 -181 -56t-75 -151h-279q7 204 153.5 323t389.5 119q232 0 375.5 -108.5t143.5 -282.5q0 -122 -75 -213t-197 -117v-8q146 -16 232 -111.5t86 -240.5q0 -190 -161.5 -313t-410.5 -123q-248 0 -403 122.5 t-165 324.5h289q7 -93 83 -148t199 -55q116 0 187.5 58.5t71.5 153.5q0 94 -70 147.5t-194 53.5h-194zM440 1571q-57 0 -95.5 38t-38.5 92t38.5 92t95.5 38t95.5 -38t38.5 -92t-38.5 -92t-95.5 -38zM848 1571q-57 0 -95.5 38t-38.5 92t38.5 92t95.5 38t95.5 -38t38.5 -92 t-38.5 -92t-95.5 -38z" />
<glyph unicode="&#x4df;" horiz-adv-x="1081" d="M539 -23q-209 0 -337 96.5t-143 266.5h278q38 -137 202 -137q86 0 133 35t47 94q0 123 -179 123h-148v190h140q156 0 156 113q0 54 -39.5 85.5t-114.5 31.5q-77 0 -123.5 -32.5t-56.5 -93.5h-275q16 161 136.5 253.5t316.5 92.5q213 0 326.5 -80t113.5 -225 q0 -81 -43 -141t-118 -81v-8q97 -25 148 -87t51 -152q0 -159 -126.5 -251.5t-344.5 -92.5zM341 1230q-57 0 -95.5 38t-38.5 92t38.5 92t95.5 38t95.5 -38t38.5 -92t-38.5 -92t-95.5 -38zM749 1230q-57 0 -95.5 38t-38.5 92t38.5 92t95.5 38t95.5 -38t38.5 -92t-38.5 -92 t-95.5 -38z" />
<glyph unicode="&#x4e0;" horiz-adv-x="1268" d="M621 -37q-241 0 -392 122t-161 325h289q7 -94 79 -149t188 -55t186 60t70 161q0 116 -82 175t-239 59h-159v213l343 302v18h-619v249h1012v-196l-413 -367v-18q215 -15 340 -127t125 -307q0 -209 -156 -337t-411 -128z" />
<glyph unicode="&#x4e1;" horiz-adv-x="1108" d="M532 -368q-215 0 -349.5 116t-143.5 309h284q7 -90 64 -143t144 -53q102 0 157 59.5t55 163.5q0 108 -79.5 168t-223.5 60h-132v227l296 292v18h-504v223h866v-185l-348 -346v-17q203 -31 312.5 -143.5t109.5 -292.5q0 -204 -139.5 -330t-368.5 -126z" />
<glyph unicode="&#x4e2;" horiz-adv-x="1519" d="M1088 0v976h-12l-655 -976h-291v1443h301v-977h12l655 977h291v-1443h-301zM1103 1768v-148h-692v148h692z" />
<glyph unicode="&#x4e3;" horiz-adv-x="1215" d="M391 0h-286v1072h286v-670h8l426 670h286v-1072h-286v678h-8zM944 1413v-148h-639v148h639z" />
<glyph unicode="&#x4e4;" horiz-adv-x="1519" d="M1088 0v976h-12l-655 -976h-291v1443h301v-977h12l655 977h291v-1443h-301zM547 1571q-57 0 -95.5 38t-38.5 92t38.5 92t95.5 38t95.5 -38t38.5 -92t-38.5 -92t-95.5 -38zM955 1571q-57 0 -95.5 38t-38.5 92t38.5 92t95.5 38t95.5 -38t38.5 -92t-38.5 -92t-95.5 -38z" />
<glyph unicode="&#x4e5;" horiz-adv-x="1215" d="M391 0h-286v1072h286v-670h8l426 670h286v-1072h-286v678h-8zM390 1249q-57 0 -95.5 38t-38.5 92t38.5 92t95.5 38t95.5 -38t38.5 -92t-38.5 -92t-95.5 -38zM798 1249q-57 0 -95.5 38t-38.5 92t38.5 92t95.5 38t95.5 -38t38.5 -92t-38.5 -92t-95.5 -38z" />
<glyph unicode="&#x4e6;" horiz-adv-x="1561" d="M781 1468q321 0 508.5 -201t187.5 -546q0 -344 -188 -545t-508 -201q-321 0 -508.5 201t-187.5 545q0 345 187.5 546t508.5 201zM781 1216q-177 0 -282.5 -134t-105.5 -361q0 -226 105 -359.5t283 -133.5q177 0 282 133.5t105 359.5q0 227 -105 361t-282 134zM577 1571 q-57 0 -95.5 38t-38.5 92t38.5 92t95.5 38t95.5 -38t38.5 -92t-38.5 -92t-95.5 -38zM985 1571q-57 0 -95.5 38t-38.5 92t38.5 92t95.5 38t95.5 -38t38.5 -92t-38.5 -92t-95.5 -38z" />
<glyph unicode="&#x4e7;" horiz-adv-x="1192" d="M597 -23q-245 0 -388 149t-143 411q0 259 144.5 408.5t386.5 149.5q243 0 387 -149.5t144 -408.5q0 -263 -143 -411.5t-388 -148.5zM597 200q108 0 171 88t63 248q0 158 -63 247t-171 89t-171.5 -89t-63.5 -247q0 -160 63 -248t172 -88zM393 1220q-57 0 -95.5 38 t-38.5 92t38.5 92t95.5 38t95.5 -38t38.5 -92t-38.5 -92t-95.5 -38zM801 1220q-57 0 -95.5 38t-38.5 92t38.5 92t95.5 38t95.5 -38t38.5 -92t-38.5 -92t-95.5 -38z" />
<glyph unicode="&#x4e8;" horiz-adv-x="1557" d="M1161 618h-764q23 -187 124.5 -294t258.5 -107q155 0 256.5 107.5t124.5 293.5zM400 848h758q-27 177 -127 278t-251 101t-251.5 -101t-128.5 -278zM780 1480q319 0 506 -204t187 -554t-186.5 -554.5t-506.5 -204.5q-322 0 -508.5 204t-186.5 555q0 350 188 554t507 204z " />
<glyph unicode="&#x4e9;" horiz-adv-x="1192" d="M827 452h-461q16 -119 76.5 -183.5t154.5 -64.5q93 0 153.5 64.5t76.5 183.5zM368 633h457q-19 112 -79 174t-149 62q-90 0 -150 -62t-79 -174zM597 1095q244 0 387.5 -149.5t143.5 -408.5q0 -262 -142.5 -411t-388.5 -149t-389 149.5t-143 410.5q0 258 144 408t388 150z " />
<glyph unicode="&#x4ea;" horiz-adv-x="1557" d="M985 1571q-57 0 -95.5 38t-38.5 92t38.5 92t95.5 38t95.5 -38t38.5 -92t-38.5 -92t-95.5 -38zM577 1571q-57 0 -95.5 38t-38.5 92t38.5 92t95.5 38t95.5 -38t38.5 -92t-38.5 -92t-95.5 -38zM1161 618h-764q23 -187 124.5 -294t258.5 -107q155 0 256.5 107.5t124.5 293.5z M400 848h758q-27 177 -127 278t-251 101t-251.5 -101t-128.5 -278zM780 1480q319 0 506 -204t187 -554t-186.5 -554.5t-506.5 -204.5q-322 0 -508.5 204t-186.5 555q0 350 188 554t507 204z" />
<glyph unicode="&#x4eb;" horiz-adv-x="1192" d="M797 1230q-57 0 -95.5 38t-38.5 92t38.5 92t95.5 38t95.5 -38t38.5 -92t-38.5 -92t-95.5 -38zM389 1230q-57 0 -95.5 38t-38.5 92t38.5 92t95.5 38t95.5 -38t38.5 -92t-38.5 -92t-95.5 -38zM827 452h-461q16 -119 76.5 -183.5t154.5 -64.5q93 0 153.5 64.5t76.5 183.5z M368 633h457q-19 112 -79 174t-149 62q-90 0 -150 -62t-79 -174zM597 1095q244 0 387.5 -149.5t143.5 -408.5q0 -262 -142.5 -411t-388.5 -149t-389 149.5t-143 410.5q0 258 144 408t388 150z" />
<glyph unicode="&#x4ec;" horiz-adv-x="1477" d="M715 -32q-258 0 -431 136.5t-208 367.5h297q32 -116 122.5 -181.5t218.5 -65.5q152 0 252 105t113 285h-569v234h566q-16 170 -115 269.5t-246 99.5q-126 0 -219.5 -71.5t-121.5 -190.5h-297q19 152 106 270t226 183.5t306 65.5q312 0 494.5 -202.5t182.5 -550.5 q0 -349 -181.5 -551.5t-495.5 -202.5zM513 1571q-57 0 -95.5 38t-38.5 92t38.5 92t95.5 38t95.5 -38t38.5 -92t-38.5 -92t-95.5 -38zM921 1571q-57 0 -95.5 38t-38.5 92t38.5 92t95.5 38t95.5 -38t38.5 -92t-38.5 -92t-95.5 -38z" />
<glyph unicode="&#x4ed;" horiz-adv-x="1127" d="M328 365q19 -76 73.5 -117.5t137.5 -41.5q94 0 156.5 65.5t71.5 183.5h-385v190h381q-14 104 -75 162.5t-148 58.5q-83 0 -137.5 -43.5t-72.5 -116.5h-273q21 173 151.5 281t335.5 108q238 0 378 -151t140 -407q0 -260 -139.5 -410t-380.5 -150q-205 0 -335.5 104.5 t-150.5 283.5h272zM349 1230q-57 0 -95.5 38t-38.5 92t38.5 92t95.5 38t95.5 -38t38.5 -92t-38.5 -92t-95.5 -38zM757 1230q-57 0 -95.5 38t-38.5 92t38.5 92t95.5 38t95.5 -38t38.5 -92t-38.5 -92t-95.5 -38z" />
<glyph unicode="&#x4ee;" horiz-adv-x="1336" d="M350 -13q-42 0 -80 5t-45 10v246q30 -9 88 -9q69 0 118 24t86 81l-479 1099h320l315 -802h12l300 802h318l-442 -1030q-98 -228 -211 -327t-300 -99zM1025 1769v-148h-692v148h692z" />
<glyph unicode="&#x4ef;" horiz-adv-x="1132" d="M242 -397q-96 0 -110 3v225q9 -2 73 -2q81 0 123 27.5t57 91.5q0 1 5 25t4 26l-373 1073h321l228 -838h5l228 838h308l-369 -1096q-69 -206 -181.5 -289.5t-318.5 -83.5zM906 1413v-148h-639v148h639z" />
<glyph unicode="&#x4f0;" horiz-adv-x="1336" d="M350 -13q-42 0 -80 5t-45 10v246q30 -9 88 -9q69 0 118 24t86 81l-479 1099h320l315 -802h12l300 802h318l-442 -1030q-98 -228 -211 -327t-300 -99zM475 1571q-57 0 -95.5 38t-38.5 92t38.5 92t95.5 38t95.5 -38t38.5 -92t-38.5 -92t-95.5 -38zM883 1571q-57 0 -95.5 38 t-38.5 92t38.5 92t95.5 38t95.5 -38t38.5 -92t-38.5 -92t-95.5 -38z" />
<glyph unicode="&#x4f1;" horiz-adv-x="1132" d="M242 -397q-96 0 -110 3v225q9 -2 73 -2q81 0 123 27.5t57 91.5q0 1 5 25t4 26l-373 1073h321l228 -838h5l228 838h308l-369 -1096q-69 -206 -181.5 -289.5t-318.5 -83.5zM382 1230q-57 0 -95.5 38t-38.5 92t38.5 92t95.5 38t95.5 -38t38.5 -92t-38.5 -92t-95.5 -38z M790 1230q-57 0 -95.5 38t-38.5 92t38.5 92t95.5 38t95.5 -38t38.5 -92t-38.5 -92t-95.5 -38z" />
<glyph unicode="&#x4f2;" horiz-adv-x="1336" d="M350 -13q-42 0 -80 5t-45 10v246q30 -9 88 -9q69 0 118 24t86 81l-479 1099h320l315 -802h12l300 802h318l-442 -1030q-98 -228 -211 -327t-300 -99zM998 1558h-230l226 305h271zM598 1558h-230l226 305h271z" />
<glyph unicode="&#x4f3;" horiz-adv-x="1132" d="M242 -397q-96 0 -110 3v225q9 -2 73 -2q81 0 123 27.5t57 91.5q0 1 5 25t4 26l-373 1073h321l228 -838h5l228 838h308l-369 -1096q-69 -206 -181.5 -289.5t-318.5 -83.5zM657 1233l189 310h246l-226 -310h-209zM286 1233l190 310h246l-227 -310h-209z" />
<glyph unicode="&#x4f4;" horiz-adv-x="1437" d="M1307 0h-302v593h-12q-44 -34 -131 -64.5t-203 -30.5q-260 0 -405.5 148.5t-145.5 386.5v410h302v-387q0 -142 78.5 -220.5t225.5 -78.5q107 0 179.5 31t111.5 70v585h302v-1443zM520 1571q-57 0 -95.5 38t-38.5 92t38.5 92t95.5 38t95.5 -38t38.5 -92t-38.5 -92 t-95.5 -38zM928 1571q-57 0 -95.5 38t-38.5 92t38.5 92t95.5 38t95.5 -38t38.5 -92t-38.5 -92t-95.5 -38z" />
<glyph unicode="&#x4f5;" horiz-adv-x="1160" d="M1055 0h-291v446h-11q-99 -107 -275 -107q-183 0 -288 106.5t-105 289.5v337h291v-295q0 -92 49.5 -144t137.5 -52q136 0 201 85v406h291v-1072zM369 1230q-57 0 -95.5 38t-38.5 92t38.5 92t95.5 38t95.5 -38t38.5 -92t-38.5 -92t-95.5 -38zM777 1230q-57 0 -95.5 38 t-38.5 92t38.5 92t95.5 38t95.5 -38t38.5 -92t-38.5 -92t-95.5 -38z" />
<glyph unicode="&#x4f6;" horiz-adv-x="1123" d="M1060 1193h-627v-944h202v-534h-274v285h-209h-22v1443h930v-250z" />
<glyph unicode="&#x4f7;" horiz-adv-x="915" d="M852 852h-456v-631h187v-499h-268v278h-184h-26v1072h747v-220z" />
<glyph unicode="&#x4f8;" horiz-adv-x="1817" d="M130 0v1443h302v-484h280q229 0 372 -132.5t143 -346.5q0 -215 -138.5 -347.5t-361.5 -132.5h-597zM432 241h215q130 0 200.5 61.5t70.5 177.5t-71 178.5t-201 62.5h-214v-480zM1687 0h-302v1443h302v-1443zM704 1571q-57 0 -95.5 38t-38.5 92t38.5 92t95.5 38t95.5 -38 t38.5 -92t-38.5 -92t-95.5 -38zM1112 1571q-57 0 -95.5 38t-38.5 92t38.5 92t95.5 38t95.5 -38t38.5 -92t-38.5 -92t-95.5 -38z" />
<glyph unicode="&#x4f9;" horiz-adv-x="1571" d="M1125 0v1072h291v-1072h-291zM557 547h-161v-329h161q79 0 126.5 45.5t47.5 119.5t-47.5 119t-126.5 45zM105 0v1072h291v-310h209q190 0 302.5 -103t112.5 -278t-112.5 -278t-302.5 -103h-500zM548 1240q-57 0 -95.5 38t-38.5 92t38.5 92t95.5 38t95.5 -38t38.5 -92 t-38.5 -92t-95.5 -38zM956 1240q-57 0 -95.5 38t-38.5 92t38.5 92t95.5 38t95.5 -38t38.5 -92t-38.5 -92t-95.5 -38z" />
<glyph unicode="&#x4fa;" horiz-adv-x="1144" d="M1082 1193h-627v-385h518v-210h-518v-598h-1v-23q0 -170 -103 -256t-299 -86q-42 0 -78 3v219q6 -1 37 -1q77 0 109 29.5t32 98.5v16v354v244h-93v210h93v635h930v-250z" />
<glyph unicode="&#x4fb;" horiz-adv-x="971" d="M908 852h-456v-253h330v-157h-330v-126v-316v-24q0 -163 -98 -245.5t-286 -82.5q-40 0 -79 3v216q12 -2 37 -2q73 0 104 28.5t31 93.5v13v316v126h-104v157h104v473h747v-220z" />
<glyph unicode="&#x4fc;" horiz-adv-x="1422" d="M56 1443h355l301 -511h18l304 511h338l-475 -721l239 -369q76 -117 121 -207q55 -111 55 -216q0 -151 -103 -244t-269 -93q-79 0 -126 9v230q35 -5 69 -5q57 0 92.5 30t35.5 78q0 53 -27 110q-32 68 -89 157l-184 294h-18l-314 -496h-326l461 727z" />
<glyph unicode="&#x4fd;" horiz-adv-x="1102" d="M1071 1072l-337 -533l152 -249q73 -121 97 -178q37 -81 37 -164q0 -142 -92.5 -229.5t-241.5 -87.5q-85 0 -118 8v215q24 -5 58 -5q56 0 89.5 28.5t33.5 75.5q0 39 -15 75q-21 53 -64 124l-119 199h-11l-199 -351h-308l335 530l-337 542h334l189 -352h11l189 352h317z " />
<glyph unicode="&#x4fe;" horiz-adv-x="1424" d="M1264 632h-309l410 -632h-344l-316 505h-8l-318 -505h-326l400 632h-294v189h294l-397 622h355l306 -520h8l309 520h337l-409 -622h302v-189z" />
<glyph unicode="&#x4ff;" horiz-adv-x="1100" d="M983 464h-200l284 -464h-317l-204 372h-6l-201 -372h-307l292 464h-195v152h188l-283 456h329l193 -362h6l190 362h318l-288 -456h201v-152z" />
<glyph unicode="&#x1e00;" horiz-adv-x="1413" d="M1065 0l-110 350h-507l-110 -350h-310l501 1443h355l502 -1443h-321zM698 1167l-185 -591h377l-185 591h-7zM707 -537q-89 0 -153 62.5t-64 150.5t64 150.5t153 62.5t153 -62.5t64 -150.5t-64 -150.5t-153 -62.5zM707 -418q39 0 67.5 27.5t28.5 66.5t-28.5 66.5 t-67.5 27.5t-67 -27.5t-28 -66.5t28 -66.5t67 -27.5z" />
<glyph unicode="&#x1e01;" d="M509 194q97 0 164.5 56.5t67.5 142.5v78l-226 -14q-82 -6 -126.5 -41t-44.5 -92q0 -60 45 -95t120 -35zM413 -17q-155 0 -257 91t-102 234q0 146 108 229t309 95l270 16v71q0 74 -48.5 116t-131.5 42q-80 0 -130.5 -36t-61.5 -97h-267q8 158 135 254.5t337 96.5 q206 0 330 -98t124 -260v-737h-282v164h-6q-44 -84 -134 -132.5t-193 -48.5zM555 -537q-89 0 -153 62.5t-64 150.5t64 150.5t153 62.5t153 -62.5t64 -150.5t-64 -150.5t-153 -62.5zM555 -418q39 0 67.5 27.5t28.5 66.5t-28.5 66.5t-67.5 27.5t-67 -27.5t-28 -66.5t28 -66.5 t67 -27.5z" />
<glyph unicode="&#x1e02;" horiz-adv-x="1310" d="M759 0h-639v1443h628q203 0 322 -97t119 -263q0 -118 -77.5 -207t-193.5 -106v-8q148 -11 244 -109t96 -240q0 -191 -134 -302t-365 -111zM422 1218v-375h217q121 0 187 50.5t66 142.5q0 87 -58 134.5t-164 47.5h-248zM422 225h260q131 0 199.5 54.5t68.5 157.5 q0 101 -70.5 154t-204.5 53h-253v-419zM626 1561q-63 0 -106 43.5t-43 105.5t43 105.5t106 43.5t106 -43.5t43 -105.5t-43 -105.5t-106 -43.5z" />
<glyph unicode="&#x1e03;" horiz-adv-x="1223" d="M732 -17q-116 0 -203.5 53t-132.5 148h-6v-184h-288v1443h292v-557h6q45 96 131 149.5t200 53.5q203 0 319.5 -147t116.5 -406q0 -258 -116 -405.5t-319 -147.5zM631 855q-106 0 -172 -88t-66 -231q0 -145 65.5 -231.5t172.5 -86.5q110 0 173.5 85.5t63.5 232.5 q0 146 -64 232.5t-173 86.5zM248 1561q-63 0 -106 43.5t-43 105.5t43 105.5t106 43.5t106 -43.5t43 -105.5t-43 -105.5t-106 -43.5z" />
<glyph unicode="&#x1e04;" horiz-adv-x="1310" d="M759 0h-639v1443h628q203 0 322 -97t119 -263q0 -118 -77.5 -207t-193.5 -106v-8q148 -11 244 -109t96 -240q0 -191 -134 -302t-365 -111zM422 1218v-375h217q121 0 187 50.5t66 142.5q0 87 -58 134.5t-164 47.5h-248zM422 225h260q131 0 199.5 54.5t68.5 157.5 q0 101 -70.5 154t-204.5 53h-253v-419zM626 -456q-63 0 -106 43.5t-43 105.5t43 105.5t106 43.5t106 -43.5t43 -105.5t-43 -105.5t-106 -43.5z" />
<glyph unicode="&#x1e05;" horiz-adv-x="1223" d="M732 -17q-116 0 -203.5 53t-132.5 148h-6v-184h-288v1443h292v-557h6q45 96 131 149.5t200 53.5q203 0 319.5 -147t116.5 -406q0 -258 -116 -405.5t-319 -147.5zM631 855q-106 0 -172 -88t-66 -231q0 -145 65.5 -231.5t172.5 -86.5q110 0 173.5 85.5t63.5 232.5 q0 146 -64 232.5t-173 86.5zM626 -456q-63 0 -106 43.5t-43 105.5t43 105.5t106 43.5t106 -43.5t43 -105.5t-43 -105.5t-106 -43.5z" />
<glyph unicode="&#x1e06;" horiz-adv-x="1310" d="M759 0h-639v1443h628q203 0 322 -97t119 -263q0 -118 -77.5 -207t-193.5 -106v-8q148 -11 244 -109t96 -240q0 -191 -134 -302t-365 -111zM422 1218v-375h217q121 0 187 50.5t66 142.5q0 87 -58 134.5t-164 47.5h-248zM422 225h260q131 0 199.5 54.5t68.5 157.5 q0 101 -70.5 154t-204.5 53h-253v-419zM972 -229v-148h-692v148h692z" />
<glyph unicode="&#x1e07;" horiz-adv-x="1223" d="M732 -17q-116 0 -203.5 53t-132.5 148h-6v-184h-288v1443h292v-557h6q45 96 131 149.5t200 53.5q203 0 319.5 -147t116.5 -406q0 -258 -116 -405.5t-319 -147.5zM631 855q-106 0 -172 -88t-66 -231q0 -145 65.5 -231.5t172.5 -86.5q110 0 173.5 85.5t63.5 232.5 q0 146 -64 232.5t-173 86.5zM972 -229v-148h-692v148h692z" />
<glyph unicode="&#x1e08;" horiz-adv-x="1459" d="M1127 1864l-267 -305h-230l226 305h271zM1099 501h294q-24 -224 -174 -363.5t-386 -159.5l-41 -88q86 -1 137 -44.5t51 -119.5q0 -89 -66 -137t-182 -49q-97 -2 -142 14v122q41 -12 112 -12q111 0 111 54q0 30 -28 42.5t-95 12.5h-63v98l49 108q-280 26 -440.5 222 t-160.5 521q0 347 184 546.5t499 199.5q172 0 312.5 -68t225.5 -192t96 -283h-294q-21 133 -114.5 213t-225.5 80q-171 0 -273 -134t-102 -361q0 -231 101 -364.5t275 -133.5q134 0 225 74t115 202z" />
<glyph unicode="&#x1e09;" horiz-adv-x="1116" d="M938 1533l-256 -310h-233l221 310h268zM798 393h272q-10 -172 -121 -282t-292 -130l-42 -91q86 -1 137 -44.5t51 -119.5q0 -89 -66 -137t-182 -49q-97 -2 -142 14v122q41 -12 112 -12q111 0 111 54q0 30 -28 42.5t-95 12.5h-63v98l50 111q-207 26 -325.5 172t-118.5 383 q0 257 142.5 407.5t383.5 150.5q214 0 345.5 -118t141.5 -304h-271q-13 87 -68.5 140t-143.5 53q-109 0 -171.5 -87.5t-62.5 -241.5q0 -157 62.5 -244t172.5 -87q87 0 142 49.5t69 137.5z" />
<glyph unicode="&#x1e0a;" horiz-adv-x="1433" d="M120 1443h551q326 0 507 -187t181 -529q0 -343 -181.5 -535t-506.5 -192h-551v1443zM422 1194v-944h213q203 0 309.5 121.5t106.5 354.5q0 226 -108 347t-308 121h-213zM644 1561q-63 0 -106 43.5t-43 105.5t43 105.5t106 43.5t106 -43.5t43 -105.5t-43 -105.5 t-106 -43.5z" />
<glyph unicode="&#x1e0b;" horiz-adv-x="1220" d="M493 -17q-201 0 -319 149t-118 406q0 255 118.5 403t320.5 148q114 0 200.5 -55t126.5 -146h6v555h292v-1443h-288v184h-5q-40 -91 -129 -146t-205 -55zM592 855q-110 0 -173.5 -86t-63.5 -233q0 -148 63.5 -233t173.5 -85q109 0 173.5 85.5t64.5 232.5 q0 146 -64.5 232.5t-173.5 86.5zM981 1561q-63 0 -106 43.5t-43 105.5t43 105.5t106 43.5t106 -43.5t43 -105.5t-43 -105.5t-106 -43.5z" />
<glyph unicode="&#x1e0c;" horiz-adv-x="1433" d="M120 1443h551q326 0 507 -187t181 -529q0 -343 -181.5 -535t-506.5 -192h-551v1443zM422 1194v-944h213q203 0 309.5 121.5t106.5 354.5q0 226 -108 347t-308 121h-213zM644 -456q-63 0 -106 43.5t-43 105.5t43 105.5t106 43.5t106 -43.5t43 -105.5t-43 -105.5 t-106 -43.5z" />
<glyph unicode="&#x1e0d;" horiz-adv-x="1220" d="M493 -17q-201 0 -319 149t-118 406q0 255 118.5 403t320.5 148q114 0 200.5 -55t126.5 -146h6v555h292v-1443h-288v184h-5q-40 -91 -129 -146t-205 -55zM592 855q-110 0 -173.5 -86t-63.5 -233q0 -148 63.5 -233t173.5 -85q109 0 173.5 85.5t64.5 232.5 q0 146 -64.5 232.5t-173.5 86.5zM583 -456q-63 0 -106 43.5t-43 105.5t43 105.5t106 43.5t106 -43.5t43 -105.5t-43 -105.5t-106 -43.5z" />
<glyph unicode="&#x1e0e;" horiz-adv-x="1433" d="M120 1443h551q326 0 507 -187t181 -529q0 -343 -181.5 -535t-506.5 -192h-551v1443zM422 1194v-944h213q203 0 309.5 121.5t106.5 354.5q0 226 -108 347t-308 121h-213zM990 -229v-148h-692v148h692z" />
<glyph unicode="&#x1e0f;" horiz-adv-x="1220" d="M493 -17q-201 0 -319 149t-118 406q0 255 118.5 403t320.5 148q114 0 200.5 -55t126.5 -146h6v555h292v-1443h-288v184h-5q-40 -91 -129 -146t-205 -55zM592 855q-110 0 -173.5 -86t-63.5 -233q0 -148 63.5 -233t173.5 -85q109 0 173.5 85.5t64.5 232.5 q0 146 -64.5 232.5t-173.5 86.5zM929 -229v-148h-692v148h692z" />
<glyph unicode="&#x1e10;" horiz-adv-x="1433" d="M120 1443h551q326 0 507 -187t181 -529q0 -343 -181.5 -535t-506.5 -192h-551v1443zM422 1194v-944h213q203 0 309.5 121.5t106.5 354.5q0 226 -108 347t-308 121h-213zM615 -472h-217l130 340h256z" />
<glyph unicode="&#x1e11;" horiz-adv-x="1220" d="M493 -17q-201 0 -319 149t-118 406q0 255 118.5 403t320.5 148q114 0 200.5 -55t126.5 -146h6v555h292v-1443h-288v184h-5q-40 -91 -129 -146t-205 -55zM592 855q-110 0 -173.5 -86t-63.5 -233q0 -148 63.5 -233t173.5 -85q109 0 173.5 85.5t64.5 232.5 q0 146 -64.5 232.5t-173.5 86.5zM554 -472h-217l130 340h256z" />
<glyph unicode="&#x1e12;" horiz-adv-x="1433" d="M120 1443h551q326 0 507 -187t181 -529q0 -343 -181.5 -535t-506.5 -192h-551v1443zM422 1194v-944h213q203 0 309.5 121.5t106.5 354.5q0 226 -108 347t-308 121h-213zM532 -141h224l269 -317h-221l-156 192h-8l-156 -192h-221z" />
<glyph unicode="&#x1e13;" horiz-adv-x="1220" d="M493 -17q-201 0 -319 149t-118 406q0 255 118.5 403t320.5 148q114 0 200.5 -55t126.5 -146h6v555h292v-1443h-288v184h-5q-40 -91 -129 -146t-205 -55zM592 855q-110 0 -173.5 -86t-63.5 -233q0 -148 63.5 -233t173.5 -85q109 0 173.5 85.5t64.5 232.5 q0 146 -64.5 232.5t-173.5 86.5zM471 -141h224l269 -317h-221l-156 192h-8l-156 -192h-221z" />
<glyph unicode="&#x1e14;" horiz-adv-x="1174" d="M1076 250v-250h-956v1443h956v-249h-654v-348h617v-232h-617v-364h654zM252 1599v148h692v-148h-692zM712 1878h-216l-215 248h246z" />
<glyph unicode="&#x1e15;" horiz-adv-x="1137" d="M576 879q-95 0 -158.5 -65t-71.5 -166h455q-5 103 -66.5 167t-158.5 64zM805 328h268q-24 -158 -157.5 -254.5t-331.5 -96.5q-247 0 -387.5 148t-140.5 406q0 257 140 410.5t377 153.5q233 0 371 -146t138 -391v-89h-739v-18q0 -115 67.5 -186.5t178.5 -71.5 q80 0 138 36.5t78 98.5zM686 1559h-202l-232 291h243zM893 1382v-148h-639v148h639z" />
<glyph unicode="&#x1e16;" horiz-adv-x="1174" d="M1076 250v-250h-956v1443h956v-249h-654v-348h617v-232h-617v-364h654zM944 1599h-692v148h692v-148zM487 1878l185 248h246l-215 -248h-216z" />
<glyph unicode="&#x1e17;" horiz-adv-x="1137" d="M576 879q-95 0 -158.5 -65t-71.5 -166h455q-5 103 -66.5 167t-158.5 64zM805 328h268q-24 -158 -157.5 -254.5t-331.5 -96.5q-247 0 -387.5 148t-140.5 406q0 257 140 410.5t377 153.5q233 0 371 -146t138 -391v-89h-739v-18q0 -115 67.5 -186.5t178.5 -71.5 q80 0 138 36.5t78 98.5zM457 1562l206 288h243l-235 -288h-214zM893 1382v-148h-639v148h639z" />
<glyph unicode="&#x1e18;" horiz-adv-x="1174" d="M1076 250v-250h-956v1443h956v-249h-654v-348h617v-232h-617v-364h654zM486 -141h224l269 -317h-221l-156 192h-8l-156 -192h-221z" />
<glyph unicode="&#x1e19;" horiz-adv-x="1137" d="M576 879q-95 0 -158.5 -65t-71.5 -166h455q-5 103 -66.5 167t-158.5 64zM805 328h268q-24 -158 -157.5 -254.5t-331.5 -96.5q-247 0 -387.5 148t-140.5 406q0 257 140 410.5t377 153.5q233 0 371 -146t138 -391v-89h-739v-18q0 -115 67.5 -186.5t178.5 -71.5 q80 0 138 36.5t78 98.5zM464 -141h224l269 -317h-221l-156 192h-8l-156 -192h-221z" />
<glyph unicode="&#x1e1a;" horiz-adv-x="1174" d="M1076 250v-250h-956v1443h956v-249h-654v-348h617v-232h-617v-364h654zM740 -400q-39 0 -73.5 14t-59 34t-46.5 40t-44 34t-42 14q-34 0 -52 -33t-18 -89h-159q0 128 62 201t158 73q40 0 75.5 -14t60 -33.5t46 -39.5t43 -34t40.5 -14q66 0 69 124h159 q0 -126 -62.5 -201.5t-156.5 -75.5z" />
<glyph unicode="&#x1e1b;" horiz-adv-x="1137" d="M576 879q-95 0 -158.5 -65t-71.5 -166h455q-5 103 -66.5 167t-158.5 64zM805 328h268q-24 -158 -157.5 -254.5t-331.5 -96.5q-247 0 -387.5 148t-140.5 406q0 257 140 410.5t377 153.5q233 0 371 -146t138 -391v-89h-739v-18q0 -115 67.5 -186.5t178.5 -71.5 q80 0 138 36.5t78 98.5zM718 -400q-39 0 -73.5 14t-59 34t-46.5 40t-44 34t-42 14q-34 0 -52 -33t-18 -89h-159q0 128 62 201t158 73q40 0 75.5 -14t60 -33.5t46 -39.5t43 -34t40.5 -14q66 0 69 124h159q0 -126 -62.5 -201.5t-156.5 -75.5z" />
<glyph unicode="&#x1e1c;" horiz-adv-x="1174" d="M775 1859h181q-7 -136 -102.5 -228t-255.5 -92t-255.5 92t-102.5 228h181q6 -78 53.5 -124.5t123.5 -46.5t123.5 46.5t53.5 124.5zM1076 1194h-654v-348h617v-232h-617v-364h654v-250h-380l-51 -110q86 -1 137 -44.5t51 -119.5q0 -89 -66 -137t-182 -49q-97 -2 -142 14 v122q41 -12 112 -12q111 0 111 54q0 30 -28 42.5t-95 12.5h-63v98l59 129h-419v1443h956v-249z" />
<glyph unicode="&#x1e1d;" horiz-adv-x="1137" d="M750 1530h181q-2 -140 -98.5 -231t-260.5 -91t-260 91t-98 231h181q2 -79 49.5 -127t127.5 -48t128 48t50 127zM346 648h455q-5 103 -66.5 167t-158.5 64q-95 0 -158.5 -65t-71.5 -166zM1082 469h-739v-18q0 -115 67.5 -186.5t178.5 -71.5q80 0 138 36.5t78 98.5h268 q-22 -141 -131.5 -233.5t-276.5 -112.5l-42 -92q86 -1 137 -44.5t51 -119.5q0 -89 -66 -137t-182 -49q-97 -2 -142 14v122q41 -12 112 -12q111 0 111 54q0 30 -28 42.5t-95 12.5h-63v98l50 110q-213 23 -332.5 168t-119.5 382q0 257 140 410.5t377 153.5q233 0 371 -146 t138 -391v-89z" />
<glyph unicode="&#x1e1e;" horiz-adv-x="1123" d="M422 0h-302v1443h945v-249h-643v-387h587v-239h-587v-568zM580 1561q-63 0 -106 43.5t-43 105.5t43 105.5t106 43.5t106 -43.5t43 -105.5t-43 -105.5t-106 -43.5z" />
<glyph unicode="&#x1e1f;" horiz-adv-x="721" d="M173 0v852h-146v215h146v81q0 160 82.5 234t270.5 74q86 0 149 -13v-193q-32 6 -79 6q-138 0 -138 -118v-71h213v-215h-206v-852h-292zM430 1572q-63 0 -106 43.5t-43 105.5t43 105.5t106 43.5t106 -43.5t43 -105.5t-43 -105.5t-106 -43.5z" />
<glyph unicode="&#x1e20;" horiz-adv-x="1489" d="M1410 606q0 -295 -169.5 -463t-470.5 -168q-324 0 -509.5 200t-185.5 551q0 346 184.5 544t503.5 198q252 0 427 -136t207 -355h-303q-33 113 -120.5 177t-209.5 64q-179 0 -280 -129t-101 -359q0 -234 105.5 -369t286.5 -135q148 0 241.5 83t98.5 217l1 23h-314v220h608 v-163zM1097 1768v-148h-692v148h692z" />
<glyph unicode="&#x1e21;" horiz-adv-x="1215" d="M590 228q110 0 174.5 82.5t64.5 227.5t-65 231t-174 86q-108 0 -171.5 -85.5t-63.5 -231.5t63 -228t172 -82zM585 -404q-209 0 -343.5 91.5t-152.5 236.5h286q17 -56 76.5 -90.5t141.5 -34.5q111 0 173 56.5t62 151.5v188h-6q-38 -87 -127 -139.5t-204 -52.5 q-198 0 -316.5 144t-118.5 393q0 255 118 402t322 147q114 0 201 -55t130 -149h5v187h288v-1057q0 -191 -146.5 -305t-388.5 -114zM916 1403v-148h-639v148h639z" />
<glyph unicode="&#x1e22;" horiz-adv-x="1494" d="M1374 0h-302v608h-650v-608h-302v1443h302v-586h650v586h302v-1443zM747 1561q-63 0 -106 43.5t-43 105.5t43 105.5t106 43.5t106 -43.5t43 -105.5t-43 -105.5t-106 -43.5z" />
<glyph unicode="&#x1e23;" horiz-adv-x="1197" d="M102 0v1443h287v-562h6q43 102 129.5 156.5t207.5 54.5q177 0 275.5 -107.5t98.5 -294.5v-690h-292v628q0 105 -51.5 163.5t-149.5 58.5q-102 0 -160.5 -65.5t-58.5 -172.5v-612h-292zM248 1561q-63 0 -106 43.5t-43 105.5t43 105.5t106 43.5t106 -43.5t43 -105.5 t-43 -105.5t-106 -43.5z" />
<glyph unicode="&#x1e24;" horiz-adv-x="1494" d="M1374 0h-302v608h-650v-608h-302v1443h302v-586h650v586h302v-1443zM747 -456q-63 0 -106 43.5t-43 105.5t43 105.5t106 43.5t106 -43.5t43 -105.5t-43 -105.5t-106 -43.5z" />
<glyph unicode="&#x1e25;" horiz-adv-x="1197" d="M102 0v1443h287v-562h6q43 102 129.5 156.5t207.5 54.5q177 0 275.5 -107.5t98.5 -294.5v-690h-292v628q0 105 -51.5 163.5t-149.5 58.5q-102 0 -160.5 -65.5t-58.5 -172.5v-612h-292zM603 -456q-63 0 -106 43.5t-43 105.5t43 105.5t106 43.5t106 -43.5t43 -105.5 t-43 -105.5t-106 -43.5z" />
<glyph unicode="&#x1e26;" horiz-adv-x="1494" d="M1374 0h-302v608h-650v-608h-302v1443h302v-586h650v586h302v-1443zM543 1571q-57 0 -95.5 38t-38.5 92t38.5 92t95.5 38t95.5 -38t38.5 -92t-38.5 -92t-95.5 -38zM951 1571q-57 0 -95.5 38t-38.5 92t38.5 92t95.5 38t95.5 -38t38.5 -92t-38.5 -92t-95.5 -38z" />
<glyph unicode="&#x1e27;" horiz-adv-x="1197" d="M102 0v1443h287v-562h6q43 102 129.5 156.5t207.5 54.5q177 0 275.5 -107.5t98.5 -294.5v-690h-292v628q0 105 -51.5 163.5t-149.5 58.5q-102 0 -160.5 -65.5t-58.5 -172.5v-612h-292zM44 1571q-57 0 -95.5 38t-38.5 92t38.5 92t95.5 38t95.5 -38t38.5 -92t-38.5 -92 t-95.5 -38zM452 1571q-57 0 -95.5 38t-38.5 92t38.5 92t95.5 38t95.5 -38t38.5 -92t-38.5 -92t-95.5 -38z" />
<glyph unicode="&#x1e28;" horiz-adv-x="1494" d="M1072 1443h302v-1443h-302v608h-650v-596v-12l-51 -110q86 -1 137 -44.5t51 -119.5q0 -89 -66 -137t-182 -49q-97 -2 -142 14v122q41 -12 112 -12q111 0 111 54q0 30 -28 42.5t-95 12.5h-63v98l59 129h-145v1443h302v-586h650v586z" />
<glyph unicode="&#x1e29;" horiz-adv-x="1197" d="M389 881h6q43 102 129.5 156.5t207.5 54.5q177 0 275.5 -107.5t98.5 -294.5v-690h-292v628q0 105 -51.5 163.5t-149.5 58.5q-102 0 -160.5 -65.5t-58.5 -172.5v-600v-12l-51 -110q86 -1 137 -44.5t51 -119.5q0 -89 -66 -137t-182 -49q-97 -2 -142 14v122q41 -12 112 -12 q111 0 111 54q0 30 -28 42.5t-95 12.5h-63v98l59 129h-135v1443h287v-562z" />
<glyph unicode="&#x1e2a;" horiz-adv-x="1494" d="M1374 0h-302v608h-650v-608h-302v1443h302v-586h650v586h302v-1443zM389 -128h181q6 -78 53.5 -124.5t123.5 -46.5t123.5 46.5t53.5 124.5h181q-7 -136 -102.5 -228t-255.5 -92t-255.5 92t-102.5 228z" />
<glyph unicode="&#x1e2b;" horiz-adv-x="1197" d="M102 0v1443h287v-562h6q43 102 129.5 156.5t207.5 54.5q177 0 275.5 -107.5t98.5 -294.5v-690h-292v628q0 105 -51.5 163.5t-149.5 58.5q-102 0 -160.5 -65.5t-58.5 -172.5v-612h-292zM245 -128h181q6 -78 53.5 -124.5t123.5 -46.5t123.5 46.5t53.5 124.5h181 q-7 -136 -102.5 -228t-255.5 -92t-255.5 92t-102.5 228z" />
<glyph unicode="&#x1e2c;" horiz-adv-x="542" d="M422 0h-302v1443h302v-1443zM413 -400q-39 0 -73.5 14t-59 34t-46.5 40t-44 34t-42 14q-34 0 -52 -33t-18 -89h-159q0 128 62 201t158 73q40 0 75.5 -14t60 -33.5t46 -39.5t43 -34t40.5 -14q66 0 69 124h159q0 -126 -62.5 -201.5t-156.5 -75.5z" />
<glyph unicode="&#x1e2d;" horiz-adv-x="491" d="M100 0v1072h292v-1072h-292zM246 1190q-66 0 -111 44t-45 107q0 64 45 107.5t111 43.5t111 -43.5t45 -107.5q0 -63 -45 -107t-111 -44zM388 -400q-39 0 -73.5 14t-59 34t-46.5 40t-44 34t-42 14q-34 0 -52 -33t-18 -89h-159q0 128 62 201t158 73q40 0 75.5 -14t60 -33.5 t46 -39.5t43 -34t40.5 -14q66 0 69 124h159q0 -126 -62.5 -201.5t-156.5 -75.5z" />
<glyph unicode="&#x1e2e;" horiz-adv-x="542" d="M422 0h-302v1443h302v-1443zM152 1878l185 248h246l-215 -248h-216zM71 1545q-56 0 -93.5 37.5t-37.5 90.5q0 54 37.5 91t93.5 37t93.5 -37t37.5 -91q0 -53 -37.5 -90.5t-93.5 -37.5zM471 1545q-56 0 -93.5 37.5t-37.5 90.5q0 54 37.5 91t93.5 37t93.5 -37t37.5 -91 q0 -53 -37.5 -90.5t-93.5 -37.5z" />
<glyph unicode="&#x1e2f;" horiz-adv-x="491" d="M100 0v1072h292v-1072h-292zM130 1562l206 288h243l-235 -288h-214zM42 1195q-57 0 -95.5 38t-38.5 92t38.5 92t95.5 38t95.5 -38t38.5 -92t-38.5 -92t-95.5 -38zM450 1195q-57 0 -95.5 38t-38.5 92t38.5 92t95.5 38t95.5 -38t38.5 -92t-38.5 -92t-95.5 -38z" />
<glyph unicode="&#x1e30;" horiz-adv-x="1353" d="M422 0h-302v1443h302v-658h9l542 658h336l-534 -640l571 -803h-361l-428 603l-135 -162v-441zM781 1558h-230l226 305h271z" />
<glyph unicode="&#x1e31;" horiz-adv-x="1102" d="M398 642l364 430h331l-409 -460l429 -612h-336l-307 436l-76 -82v-354h-292v1443h292v-801h4zM362 1558h-230l226 305h271z" />
<glyph unicode="&#x1e32;" horiz-adv-x="1353" d="M422 0h-302v1443h302v-658h9l542 658h336l-534 -640l571 -803h-361l-428 603l-135 -162v-441zM666 -456q-63 0 -106 43.5t-43 105.5t43 105.5t106 43.5t106 -43.5t43 -105.5t-43 -105.5t-106 -43.5z" />
<glyph unicode="&#x1e33;" horiz-adv-x="1102" d="M398 642l364 430h331l-409 -460l429 -612h-336l-307 436l-76 -82v-354h-292v1443h292v-801h4zM570 -456q-63 0 -106 43.5t-43 105.5t43 105.5t106 43.5t106 -43.5t43 -105.5t-43 -105.5t-106 -43.5z" />
<glyph unicode="&#x1e34;" horiz-adv-x="1353" d="M422 0h-302v1443h302v-658h9l542 658h336l-534 -640l571 -803h-361l-428 603l-135 -162v-441zM1012 -229v-148h-692v148h692z" />
<glyph unicode="&#x1e35;" horiz-adv-x="1102" d="M398 642l364 430h331l-409 -460l429 -612h-336l-307 436l-76 -82v-354h-292v1443h292v-801h4zM916 -229v-148h-692v148h692z" />
<glyph unicode="&#x1e36;" horiz-adv-x="1112" d="M1053 250v-250h-933v1443h302v-1193h631zM577 -456q-63 0 -106 43.5t-43 105.5t43 105.5t106 43.5t106 -43.5t43 -105.5t-43 -105.5t-106 -43.5z" />
<glyph unicode="&#x1e37;" horiz-adv-x="496" d="M102 0v1443h292v-1443h-292zM248 -456q-63 0 -106 43.5t-43 105.5t43 105.5t106 43.5t106 -43.5t43 -105.5t-43 -105.5t-106 -43.5z" />
<glyph unicode="&#x1e38;" horiz-adv-x="1112" d="M1053 250v-250h-933v1443h302v-1193h631zM577 -456q-63 0 -106 43.5t-43 105.5t43 105.5t106 43.5t106 -43.5t43 -105.5t-43 -105.5t-106 -43.5zM617 1768v-148h-692v148h692z" />
<glyph unicode="&#x1e39;" horiz-adv-x="496" d="M102 0v1443h292v-1443h-292zM248 -456q-63 0 -106 43.5t-43 105.5t43 105.5t106 43.5t106 -43.5t43 -105.5t-43 -105.5t-106 -43.5zM594 1768v-148h-692v148h692z" />
<glyph unicode="&#x1e3a;" horiz-adv-x="1112" d="M1053 250v-250h-933v1443h302v-1193h631zM923 -229v-148h-692v148h692z" />
<glyph unicode="&#x1e3b;" horiz-adv-x="496" d="M102 0v1443h292v-1443h-292zM594 -229v-148h-692v148h692z" />
<glyph unicode="&#x1e3c;" horiz-adv-x="1112" d="M1053 250v-250h-933v1443h302v-1193h631zM465 -141h224l269 -317h-221l-156 192h-8l-156 -192h-221z" />
<glyph unicode="&#x1e3d;" horiz-adv-x="496" d="M102 0v1443h292v-1443h-292zM136 -141h224l269 -317h-221l-156 192h-8l-156 -192h-221z" />
<glyph unicode="&#x1e3e;" horiz-adv-x="1768" d="M1648 0h-269v974h-8l-392 -960h-190l-392 960h-8v-974h-269v1443h350l410 -1023h8l410 1023h350v-1443zM999 1558h-230l226 305h271z" />
<glyph unicode="&#x1e3f;" horiz-adv-x="1768" d="M95 0v1072h282v-194h6q34 98 116 156t190 58q116 0 194 -57.5t105 -162.5h6q36 101 125.5 160.5t207.5 59.5q158 0 254.5 -99t96.5 -261v-732h-292v659q0 93 -45 142.5t-130 49.5q-83 0 -133.5 -55t-50.5 -145v-651h-281v668q0 86 -46 134.5t-127 48.5q-83 0 -134.5 -57 t-51.5 -147v-647h-292zM999 1223h-233l221 310h268z" />
<glyph unicode="&#x1e40;" horiz-adv-x="1768" d="M1648 0h-269v974h-8l-392 -960h-190l-392 960h-8v-974h-269v1443h350l410 -1023h8l410 1023h350v-1443zM884 1561q-63 0 -106 43.5t-43 105.5t43 105.5t106 43.5t106 -43.5t43 -105.5t-43 -105.5t-106 -43.5z" />
<glyph unicode="&#x1e41;" horiz-adv-x="1768" d="M95 0v1072h282v-194h6q34 98 116 156t190 58q116 0 194 -57.5t105 -162.5h6q36 101 125.5 160.5t207.5 59.5q158 0 254.5 -99t96.5 -261v-732h-292v659q0 93 -45 142.5t-130 49.5q-83 0 -133.5 -55t-50.5 -145v-651h-281v668q0 86 -46 134.5t-127 48.5q-83 0 -134.5 -57 t-51.5 -147v-647h-292zM884 1223q-63 0 -107 43.5t-44 104.5q0 62 44 105.5t107 43.5t106.5 -43.5t43.5 -105.5q0 -61 -43.5 -104.5t-106.5 -43.5z" />
<glyph unicode="&#x1e42;" horiz-adv-x="1768" d="M1648 0h-269v974h-8l-392 -960h-190l-392 960h-8v-974h-269v1443h350l410 -1023h8l410 1023h350v-1443zM884 -456q-63 0 -106 43.5t-43 105.5t43 105.5t106 43.5t106 -43.5t43 -105.5t-43 -105.5t-106 -43.5z" />
<glyph unicode="&#x1e43;" horiz-adv-x="1768" d="M95 0v1072h282v-194h6q34 98 116 156t190 58q116 0 194 -57.5t105 -162.5h6q36 101 125.5 160.5t207.5 59.5q158 0 254.5 -99t96.5 -261v-732h-292v659q0 93 -45 142.5t-130 49.5q-83 0 -133.5 -55t-50.5 -145v-651h-281v668q0 86 -46 134.5t-127 48.5q-83 0 -134.5 -57 t-51.5 -147v-647h-292zM885 -456q-63 0 -106 43.5t-43 105.5t43 105.5t106 43.5t106 -43.5t43 -105.5t-43 -105.5t-106 -43.5z" />
<glyph unicode="&#x1e44;" horiz-adv-x="1463" d="M409 0h-289v1443h252l674 -940h8v940h289v-1443h-250l-675 945h-9v-945zM732 1561q-63 0 -106 43.5t-43 105.5t43 105.5t106 43.5t106 -43.5t43 -105.5t-43 -105.5t-106 -43.5z" />
<glyph unicode="&#x1e45;" horiz-adv-x="1180" d="M95 0v1072h282v-191h6q44 102 128.5 156.5t206.5 54.5q178 0 275 -106t97 -295v-691h-292v630q0 106 -50 163t-147 57t-155.5 -65t-58.5 -170v-615h-292zM591 1223q-63 0 -107 43.5t-44 104.5q0 62 44 105.5t107 43.5t106.5 -43.5t43.5 -105.5q0 -61 -43.5 -104.5 t-106.5 -43.5z" />
<glyph unicode="&#x1e46;" horiz-adv-x="1463" d="M409 0h-289v1443h252l674 -940h8v940h289v-1443h-250l-675 945h-9v-945zM732 -456q-63 0 -106 43.5t-43 105.5t43 105.5t106 43.5t106 -43.5t43 -105.5t-43 -105.5t-106 -43.5z" />
<glyph unicode="&#x1e47;" horiz-adv-x="1180" d="M95 0v1072h282v-191h6q44 102 128.5 156.5t206.5 54.5q178 0 275 -106t97 -295v-691h-292v630q0 106 -50 163t-147 57t-155.5 -65t-58.5 -170v-615h-292zM597 -456q-63 0 -106 43.5t-43 105.5t43 105.5t106 43.5t106 -43.5t43 -105.5t-43 -105.5t-106 -43.5z" />
<glyph unicode="&#x1e48;" horiz-adv-x="1463" d="M409 0h-289v1443h252l674 -940h8v940h289v-1443h-250l-675 945h-9v-945zM1078 -229v-148h-692v148h692z" />
<glyph unicode="&#x1e49;" horiz-adv-x="1180" d="M95 0v1072h282v-191h6q44 102 128.5 156.5t206.5 54.5q178 0 275 -106t97 -295v-691h-292v630q0 106 -50 163t-147 57t-155.5 -65t-58.5 -170v-615h-292zM943 -229v-148h-692v148h692z" />
<glyph unicode="&#x1e4a;" horiz-adv-x="1463" d="M409 0h-289v1443h252l674 -940h8v940h289v-1443h-250l-675 945h-9v-945zM620 -141h224l269 -317h-221l-156 192h-8l-156 -192h-221z" />
<glyph unicode="&#x1e4b;" horiz-adv-x="1180" d="M95 0v1072h282v-191h6q44 102 128.5 156.5t206.5 54.5q178 0 275 -106t97 -295v-691h-292v630q0 106 -50 163t-147 57t-155.5 -65t-58.5 -170v-615h-292zM485 -141h224l269 -317h-221l-156 192h-8l-156 -192h-221z" />
<glyph unicode="&#x1e4c;" horiz-adv-x="1541" d="M771 1468q321 0 508.5 -201t187.5 -546q0 -344 -188 -545t-508 -201q-321 0 -508.5 201t-187.5 545q0 345 187.5 546t508.5 201zM771 1216q-177 0 -282.5 -134t-105.5 -361q0 -226 105 -359.5t283 -133.5q177 0 282 133.5t105 359.5q0 227 -105 361t-282 134zM907 1539 q-46 0 -88 21t-67 46.5t-54 46.5t-52 21q-33 0 -51.5 -32t-17.5 -83h-156q0 123 60 194t155 71q46 0 87.5 -21t66.5 -46t54 -46t53 -21q66 0 68 118h156q0 -122 -61 -195.5t-153 -73.5zM660 1888l185 238h246l-215 -238h-216z" />
<glyph unicode="&#x1e4d;" horiz-adv-x="1173" d="M587 -23q-245 0 -388 149t-143 411q0 259 144.5 408.5t386.5 149.5q243 0 387 -149.5t144 -408.5q0 -263 -143 -411.5t-388 -148.5zM587 200q108 0 171 88t63 248q0 158 -63 247t-171 89t-171.5 -89t-63.5 -247q0 -160 63 -248t172 -88zM474 1572l198 278h243l-227 -278 h-214zM731 1192q-39 0 -73.5 14t-59 34t-46.5 40t-44 34t-42 14q-34 0 -52 -33t-18 -89h-159q0 128 62 201t158 73q40 0 75.5 -14t60 -34t46 -39.5t43 -33.5t40.5 -14q66 0 69 124h159q0 -126 -62.5 -201.5t-156.5 -75.5z" />
<glyph unicode="&#x1e4e;" horiz-adv-x="1541" d="M771 1468q321 0 508.5 -201t187.5 -546q0 -344 -188 -545t-508 -201q-321 0 -508.5 201t-187.5 545q0 345 187.5 546t508.5 201zM771 1216q-177 0 -282.5 -134t-105.5 -361q0 -226 105 -359.5t283 -133.5q177 0 282 133.5t105 359.5q0 227 -105 361t-282 134zM907 1541 q-46 0 -88 21t-67 45.5t-54 45.5t-52 21q-33 0 -51.5 -31.5t-17.5 -82.5h-156q0 122 60 192.5t155 70.5q46 0 87.5 -21t66.5 -45.5t54 -45.5t53 -21q32 0 49.5 30t18.5 82h156q0 -118 -61 -189.5t-153 -71.5zM571 2152q56 0 93.5 -37t37.5 -91t-37.5 -91t-93.5 -37t-93.5 37 t-37.5 91t37.5 91t93.5 37zM971 2152q56 0 93.5 -37t37.5 -91t-37.5 -91t-93.5 -37t-93.5 37t-37.5 91t37.5 91t93.5 37z" />
<glyph unicode="&#x1e4f;" horiz-adv-x="1173" d="M587 -23q-245 0 -388 149t-143 411q0 259 144.5 408.5t386.5 149.5q243 0 387 -149.5t144 -408.5q0 -263 -143 -411.5t-388 -148.5zM587 200q108 0 171 88t63 248q0 158 -63 247t-171 89t-171.5 -89t-63.5 -247q0 -160 63 -248t172 -88zM388 1572q-55 0 -93 37t-38 89 q0 53 38 90t93 37t92.5 -37t37.5 -90q0 -52 -38 -89t-92 -37zM787 1572q-54 0 -92 37t-38 89q0 53 37.5 90t92.5 37t93 -37t38 -90q0 -52 -38 -89t-93 -37zM731 1192q-39 0 -73.5 14t-59 34t-46.5 40t-44 34t-42 14q-34 0 -52 -33t-18 -89h-159q0 128 62 201t158 73 q40 0 75.5 -14t60 -34t46 -39.5t43 -33.5t40.5 -14q66 0 69 124h159q0 -126 -62.5 -201.5t-156.5 -75.5z" />
<glyph unicode="&#x1e50;" horiz-adv-x="1541" d="M771 1468q321 0 508.5 -201t187.5 -546q0 -344 -188 -545t-508 -201q-321 0 -508.5 201t-187.5 545q0 345 187.5 546t508.5 201zM771 1216q-177 0 -282.5 -134t-105.5 -361q0 -226 105 -359.5t283 -133.5q177 0 282 133.5t105 359.5q0 227 -105 361t-282 134zM425 1599 v148h692v-148h-692zM885 1878h-216l-215 248h246z" />
<glyph unicode="&#x1e51;" horiz-adv-x="1173" d="M587 -23q-245 0 -388 149t-143 411q0 259 144.5 408.5t386.5 149.5q243 0 387 -149.5t144 -408.5q0 -263 -143 -411.5t-388 -148.5zM587 200q108 0 171 88t63 248q0 158 -63 247t-171 89t-171.5 -89t-63.5 -247q0 -160 63 -248t172 -88zM700 1559h-202l-232 291h243z M907 1382v-148h-639v148h639z" />
<glyph unicode="&#x1e52;" horiz-adv-x="1541" d="M771 1468q321 0 508.5 -201t187.5 -546q0 -344 -188 -545t-508 -201q-321 0 -508.5 201t-187.5 545q0 345 187.5 546t508.5 201zM771 1216q-177 0 -282.5 -134t-105.5 -361q0 -226 105 -359.5t283 -133.5q177 0 282 133.5t105 359.5q0 227 -105 361t-282 134zM1117 1599 h-692v148h692v-148zM660 1878l185 248h246l-215 -248h-216z" />
<glyph unicode="&#x1e53;" horiz-adv-x="1173" d="M587 -23q-245 0 -388 149t-143 411q0 259 144.5 408.5t386.5 149.5q243 0 387 -149.5t144 -408.5q0 -263 -143 -411.5t-388 -148.5zM587 200q108 0 171 88t63 248q0 158 -63 247t-171 89t-171.5 -89t-63.5 -247q0 -160 63 -248t172 -88zM471 1562l206 288h243l-235 -288 h-214zM907 1382v-148h-639v148h639z" />
<glyph unicode="&#x1e54;" horiz-adv-x="1265" d="M120 1443h587q223 0 361.5 -136t138.5 -358q0 -221 -143 -357.5t-372 -136.5h-270v-455h-302v1443zM422 1204v-513h204q130 0 202 67t72 190t-71.5 189.5t-201.5 66.5h-205zM704 1558h-230l226 305h271z" />
<glyph unicode="&#x1e55;" horiz-adv-x="1215" d="M721 1089q204 0 321.5 -147t117.5 -406q0 -258 -116 -405.5t-318 -147.5q-115 0 -202.5 52.5t-130.5 144.5h-6v-530h-292v1422h288v-187h6q44 96 130.5 150t201.5 54zM623 218q109 0 173.5 86t64.5 232t-64.5 232.5t-173.5 86.5q-107 0 -172 -87.5t-65 -231.5 q0 -145 64.5 -231.5t172.5 -86.5zM734 1223h-233l221 310h268z" />
<glyph unicode="&#x1e56;" horiz-adv-x="1265" d="M120 1443h587q223 0 361.5 -136t138.5 -358q0 -221 -143 -357.5t-372 -136.5h-270v-455h-302v1443zM422 1204v-513h204q130 0 202 67t72 190t-71.5 189.5t-201.5 66.5h-205zM589 1561q-63 0 -106 43.5t-43 105.5t43 105.5t106 43.5t106 -43.5t43 -105.5t-43 -105.5 t-106 -43.5z" />
<glyph unicode="&#x1e57;" horiz-adv-x="1215" d="M721 1089q204 0 321.5 -147t117.5 -406q0 -258 -116 -405.5t-318 -147.5q-115 0 -202.5 52.5t-130.5 144.5h-6v-530h-292v1422h288v-187h6q44 96 130.5 150t201.5 54zM623 218q109 0 173.5 86t64.5 232t-64.5 232.5t-173.5 86.5q-107 0 -172 -87.5t-65 -231.5 q0 -145 64.5 -231.5t172.5 -86.5zM619 1223q-63 0 -107 43.5t-44 104.5q0 62 44 105.5t107 43.5t106.5 -43.5t43.5 -105.5q0 -61 -43.5 -104.5t-106.5 -43.5z" />
<glyph unicode="&#x1e58;" horiz-adv-x="1311" d="M422 1207v-460h260q114 0 177.5 61t63.5 169q0 105 -66 167.5t-178 62.5h-257zM422 528v-528h-302v1443h591q247 0 384.5 -122.5t137.5 -337.5q0 -141 -69.5 -251.5t-192.5 -158.5l304 -573h-342l-269 528h-242zM616 1561q-63 0 -106 43.5t-43 105.5t43 105.5t106 43.5 t106 -43.5t43 -105.5t-43 -105.5t-106 -43.5z" />
<glyph unicode="&#x1e59;" horiz-adv-x="745" d="M95 0v1072h282v-193h6q28 102 94 156t161 54q46 0 83 -11v-257q-41 17 -106 17q-108 0 -168 -63t-60 -176v-599h-292zM394 1223q-63 0 -107 43.5t-44 104.5q0 62 44 105.5t107 43.5t106.5 -43.5t43.5 -105.5q0 -61 -43.5 -104.5t-106.5 -43.5z" />
<glyph unicode="&#x1e5a;" horiz-adv-x="1311" d="M422 1207v-460h260q114 0 177.5 61t63.5 169q0 105 -66 167.5t-178 62.5h-257zM422 528v-528h-302v1443h591q247 0 384.5 -122.5t137.5 -337.5q0 -141 -69.5 -251.5t-192.5 -158.5l304 -573h-342l-269 528h-242zM616 -456q-63 0 -106 43.5t-43 105.5t43 105.5t106 43.5 t106 -43.5t43 -105.5t-43 -105.5t-106 -43.5z" />
<glyph unicode="&#x1e5b;" horiz-adv-x="745" d="M95 0v1072h282v-193h6q28 102 94 156t161 54q46 0 83 -11v-257q-41 17 -106 17q-108 0 -168 -63t-60 -176v-599h-292zM243 -456q-63 0 -106 43.5t-43 105.5t43 105.5t106 43.5t106 -43.5t43 -105.5t-43 -105.5t-106 -43.5z" />
<glyph unicode="&#x1e5c;" horiz-adv-x="1311" d="M422 1207v-460h260q114 0 177.5 61t63.5 169q0 105 -66 167.5t-178 62.5h-257zM422 528v-528h-302v1443h591q247 0 384.5 -122.5t137.5 -337.5q0 -141 -69.5 -251.5t-192.5 -158.5l304 -573h-342l-269 528h-242zM616 -456q-63 0 -106 43.5t-43 105.5t43 105.5t106 43.5 t106 -43.5t43 -105.5t-43 -105.5t-106 -43.5zM962 1768v-148h-692v148h692z" />
<glyph unicode="&#x1e5d;" horiz-adv-x="745" d="M95 0v1072h282v-193h6q28 102 94 156t161 54q46 0 83 -11v-257q-41 17 -106 17q-108 0 -168 -63t-60 -176v-599h-292zM243 -456q-63 0 -106 43.5t-43 105.5t43 105.5t106 43.5t106 -43.5t43 -105.5t-43 -105.5t-106 -43.5zM715 1403v-148h-639v148h639z" />
<glyph unicode="&#x1e5e;" horiz-adv-x="1311" d="M422 1207v-460h260q114 0 177.5 61t63.5 169q0 105 -66 167.5t-178 62.5h-257zM422 528v-528h-302v1443h591q247 0 384.5 -122.5t137.5 -337.5q0 -141 -69.5 -251.5t-192.5 -158.5l304 -573h-342l-269 528h-242zM962 -229v-148h-692v148h692z" />
<glyph unicode="&#x1e5f;" horiz-adv-x="745" d="M95 0v1072h282v-193h6q28 102 94 156t161 54q46 0 83 -11v-257q-41 17 -106 17q-108 0 -168 -63t-60 -176v-599h-292zM589 -229v-148h-692v148h692z" />
<glyph unicode="&#x1e60;" horiz-adv-x="1293" d="M66 411h291q10 -88 93.5 -142.5t204.5 -54.5q120 0 195.5 51.5t75.5 131.5q0 70 -56 113t-187 72l-188 41q-397 85 -397 403q0 198 154.5 320t397.5 122q250 0 399 -118.5t153 -315.5h-283q-7 91 -80.5 143.5t-187.5 52.5q-112 0 -180.5 -49t-68.5 -129q0 -66 55.5 -107 t180.5 -70l175 -37q217 -46 316 -143.5t99 -262.5q0 -210 -158 -333.5t-427 -123.5q-261 0 -415.5 116.5t-161.5 319.5zM654 1561q-63 0 -106 43.5t-43 105.5t43 105.5t106 43.5t106 -43.5t43 -105.5t-43 -105.5t-106 -43.5z" />
<glyph unicode="&#x1e61;" horiz-adv-x="1055" d="M77 757q0 153 123 245.5t329 92.5q201 0 323 -94t125 -250h-269q-5 65 -53.5 102t-129.5 37q-76 0 -121.5 -31.5t-45.5 -83.5q0 -78 140 -111l205 -44q161 -36 231.5 -104.5t70.5 -188.5q0 -158 -132 -254t-345 -96q-212 0 -339 94t-139 253h285q11 -68 62.5 -105 t138.5 -37q83 0 130.5 30.5t47.5 83.5q0 41 -30 65.5t-102 41.5l-198 44q-307 70 -307 310zM530 1223q-63 0 -107 43.5t-44 104.5q0 62 44 105.5t107 43.5t106.5 -43.5t43.5 -105.5q0 -61 -43.5 -104.5t-106.5 -43.5z" />
<glyph unicode="&#x1e62;" horiz-adv-x="1293" d="M66 411h291q10 -88 93.5 -142.5t204.5 -54.5q120 0 195.5 51.5t75.5 131.5q0 70 -56 113t-187 72l-188 41q-397 85 -397 403q0 198 154.5 320t397.5 122q250 0 399 -118.5t153 -315.5h-283q-7 91 -80.5 143.5t-187.5 52.5q-112 0 -180.5 -49t-68.5 -129q0 -66 55.5 -107 t180.5 -70l175 -37q217 -46 316 -143.5t99 -262.5q0 -210 -158 -333.5t-427 -123.5q-261 0 -415.5 116.5t-161.5 319.5zM646 -456q-63 0 -106 43.5t-43 105.5t43 105.5t106 43.5t106 -43.5t43 -105.5t-43 -105.5t-106 -43.5z" />
<glyph unicode="&#x1e63;" horiz-adv-x="1055" d="M77 757q0 153 123 245.5t329 92.5q201 0 323 -94t125 -250h-269q-5 65 -53.5 102t-129.5 37q-76 0 -121.5 -31.5t-45.5 -83.5q0 -78 140 -111l205 -44q161 -36 231.5 -104.5t70.5 -188.5q0 -158 -132 -254t-345 -96q-212 0 -339 94t-139 253h285q11 -68 62.5 -105 t138.5 -37q83 0 130.5 30.5t47.5 83.5q0 41 -30 65.5t-102 41.5l-198 44q-307 70 -307 310zM525 -456q-63 0 -106 43.5t-43 105.5t43 105.5t106 43.5t106 -43.5t43 -105.5t-43 -105.5t-106 -43.5z" />
<glyph unicode="&#x1e64;" horiz-adv-x="1293" d="M66 411h291q10 -88 93.5 -142.5t204.5 -54.5q120 0 195.5 51.5t75.5 131.5q0 70 -56 113t-187 72l-188 41q-397 85 -397 403q0 198 154.5 320t397.5 122q250 0 399 -118.5t153 -315.5h-283q-7 91 -80.5 143.5t-187.5 52.5q-112 0 -180.5 -49t-68.5 -129q0 -66 55.5 -107 t180.5 -70l175 -37q217 -46 316 -143.5t99 -262.5q0 -210 -158 -333.5t-427 -123.5q-261 0 -415.5 116.5t-161.5 319.5zM888 1558h-230l226 305h271zM427 1569q-63 0 -106 43.5t-43 105.5t43 105.5t106 43.5t106 -43.5t43 -105.5t-43 -105.5t-106 -43.5z" />
<glyph unicode="&#x1e65;" horiz-adv-x="1055" d="M77 757q0 153 123 245.5t329 92.5q201 0 323 -94t125 -250h-269q-5 65 -53.5 102t-129.5 37q-76 0 -121.5 -31.5t-45.5 -83.5q0 -78 140 -111l205 -44q161 -36 231.5 -104.5t70.5 -188.5q0 -158 -132 -254t-345 -96q-212 0 -339 94t-139 253h285q11 -68 62.5 -105 t138.5 -37q83 0 130.5 30.5t47.5 83.5q0 41 -30 65.5t-102 41.5l-198 44q-307 70 -307 310zM751 1193h-233l221 310h268zM288 1195q-63 0 -107 43.5t-44 104.5q0 62 44 105.5t107 43.5t106.5 -43.5t43.5 -105.5q0 -61 -43.5 -104.5t-106.5 -43.5z" />
<glyph unicode="&#x1e66;" horiz-adv-x="1293" d="M66 411h291q10 -88 93.5 -142.5t204.5 -54.5q120 0 195.5 51.5t75.5 131.5q0 70 -56 113t-187 72l-188 41q-397 85 -397 403q0 198 154.5 320t397.5 122q250 0 399 -118.5t153 -315.5h-283q-7 91 -80.5 143.5t-187.5 52.5q-112 0 -180.5 -49t-68.5 -129q0 -66 55.5 -107 t180.5 -70l175 -37q217 -46 316 -143.5t99 -262.5q0 -210 -158 -333.5t-427 -123.5q-261 0 -415.5 116.5t-161.5 319.5zM538 1538l-268 282h227l153 -167h8l153 167h227l-268 -282h-232zM654 1852q-57 0 -95.5 38t-38.5 92t38.5 92t95.5 38t95.5 -38t38.5 -92t-38.5 -92 t-95.5 -38z" />
<glyph unicode="&#x1e67;" horiz-adv-x="1055" d="M77 757q0 153 123 245.5t329 92.5q201 0 323 -94t125 -250h-269q-5 65 -53.5 102t-129.5 37q-76 0 -121.5 -31.5t-45.5 -83.5q0 -78 140 -111l205 -44q161 -36 231.5 -104.5t70.5 -188.5q0 -158 -132 -254t-345 -96q-212 0 -339 94t-139 253h285q11 -68 62.5 -105 t138.5 -37q83 0 130.5 30.5t47.5 83.5q0 41 -30 65.5t-102 41.5l-198 44q-307 70 -307 310zM645 1213h-226l-263 308h224l148 -179h8l148 179h224zM532 1592q-59 0 -100 40.5t-41 98.5q0 57 41.5 98t99.5 41t99.5 -41t41.5 -98q0 -58 -41 -98.5t-100 -40.5z" />
<glyph unicode="&#x1e68;" horiz-adv-x="1293" d="M66 411h291q10 -88 93.5 -142.5t204.5 -54.5q120 0 195.5 51.5t75.5 131.5q0 70 -56 113t-187 72l-188 41q-397 85 -397 403q0 198 154.5 320t397.5 122q250 0 399 -118.5t153 -315.5h-283q-7 91 -80.5 143.5t-187.5 52.5q-112 0 -180.5 -49t-68.5 -129q0 -66 55.5 -107 t180.5 -70l175 -37q217 -46 316 -143.5t99 -262.5q0 -210 -158 -333.5t-427 -123.5q-261 0 -415.5 116.5t-161.5 319.5zM646 -456q-63 0 -106 43.5t-43 105.5t43 105.5t106 43.5t106 -43.5t43 -105.5t-43 -105.5t-106 -43.5zM654 1561q-63 0 -106 43.5t-43 105.5t43 105.5 t106 43.5t106 -43.5t43 -105.5t-43 -105.5t-106 -43.5z" />
<glyph unicode="&#x1e69;" horiz-adv-x="1055" d="M77 757q0 153 123 245.5t329 92.5q201 0 323 -94t125 -250h-269q-5 65 -53.5 102t-129.5 37q-76 0 -121.5 -31.5t-45.5 -83.5q0 -78 140 -111l205 -44q161 -36 231.5 -104.5t70.5 -188.5q0 -158 -132 -254t-345 -96q-212 0 -339 94t-139 253h285q11 -68 62.5 -105 t138.5 -37q83 0 130.5 30.5t47.5 83.5q0 41 -30 65.5t-102 41.5l-198 44q-307 70 -307 310zM525 -456q-63 0 -106 43.5t-43 105.5t43 105.5t106 43.5t106 -43.5t43 -105.5t-43 -105.5t-106 -43.5zM530 1223q-63 0 -107 43.5t-44 104.5q0 62 44 105.5t107 43.5t106.5 -43.5 t43.5 -105.5q0 -61 -43.5 -104.5t-106.5 -43.5z" />
<glyph unicode="&#x1e6a;" horiz-adv-x="1232" d="M767 0h-302v1194h-417v249h1137v-249h-418v-1194zM616 1561q-63 0 -106 43.5t-43 105.5t43 105.5t106 43.5t106 -43.5t43 -105.5t-43 -105.5t-106 -43.5z" />
<glyph unicode="&#x1e6b;" horiz-adv-x="728" d="M173 1319h292v-247h198v-220h-198v-513q0 -121 126 -121q41 0 71 5v-215q-51 -12 -139 -12q-189 0 -269.5 68t-80.5 225v563h-151v220h151v247zM319 1451q-63 0 -107 43.5t-44 104.5q0 62 44 105.5t107 43.5t106.5 -43.5t43.5 -105.5q0 -61 -43.5 -104.5t-106.5 -43.5z " />
<glyph unicode="&#x1e6c;" horiz-adv-x="1232" d="M767 0h-302v1194h-417v249h1137v-249h-418v-1194zM616 -456q-63 0 -106 43.5t-43 105.5t43 105.5t106 43.5t106 -43.5t43 -105.5t-43 -105.5t-106 -43.5z" />
<glyph unicode="&#x1e6d;" horiz-adv-x="728" d="M173 1319h292v-247h198v-220h-198v-513q0 -121 126 -121q41 0 71 5v-215q-51 -12 -139 -12q-189 0 -269.5 68t-80.5 225v563h-151v220h151v247zM417 -456q-63 0 -106 43.5t-43 105.5t43 105.5t106 43.5t106 -43.5t43 -105.5t-43 -105.5t-106 -43.5z" />
<glyph unicode="&#x1e6e;" horiz-adv-x="1232" d="M767 0h-302v1194h-417v249h1137v-249h-418v-1194zM962 -229v-148h-692v148h692z" />
<glyph unicode="&#x1e6f;" horiz-adv-x="728" d="M173 1319h292v-247h198v-220h-198v-513q0 -121 126 -121q41 0 71 5v-215q-51 -12 -139 -12q-189 0 -269.5 68t-80.5 225v563h-151v220h151v247zM763 -229v-148h-692v148h692z" />
<glyph unicode="&#x1e70;" horiz-adv-x="1232" d="M767 0h-302v1194h-417v249h1137v-249h-418v-1194zM504 -141h224l269 -317h-221l-156 192h-8l-156 -192h-221z" />
<glyph unicode="&#x1e71;" horiz-adv-x="728" d="M173 1319h292v-247h198v-220h-198v-513q0 -121 126 -121q41 0 71 5v-215q-51 -12 -139 -12q-189 0 -269.5 68t-80.5 225v563h-151v220h151v247zM305 -141h224l269 -317h-221l-156 192h-8l-156 -192h-221z" />
<glyph unicode="&#x1e72;" horiz-adv-x="1449" d="M422 1443v-903q0 -141 79.5 -223.5t223.5 -82.5q143 0 222.5 82.5t79.5 223.5v903h302v-933q0 -240 -164.5 -387.5t-439.5 -147.5q-276 0 -440.5 147.5t-164.5 387.5v933h302zM521 -407q-57 0 -95.5 38t-38.5 92t38.5 92t95.5 38t95.5 -38t38.5 -92t-38.5 -92t-95.5 -38z M929 -407q-57 0 -95.5 38t-38.5 92t38.5 92t95.5 38t95.5 -38t38.5 -92t-38.5 -92t-95.5 -38z" />
<glyph unicode="&#x1e73;" horiz-adv-x="1180" d="M1085 1072v-1072h-282v193h-6q-84 -213 -321 -213q-176 0 -281 107.5t-105 293.5v691h292v-630q0 -107 51.5 -163t148.5 -56t154 64t57 171v614h292zM385 -407q-57 0 -95.5 38t-38.5 92t38.5 92t95.5 38t95.5 -38t38.5 -92t-38.5 -92t-95.5 -38zM793 -407q-57 0 -95.5 38 t-38.5 92t38.5 92t95.5 38t95.5 -38t38.5 -92t-38.5 -92t-95.5 -38z" />
<glyph unicode="&#x1e74;" horiz-adv-x="1449" d="M422 1443v-903q0 -141 79.5 -223.5t223.5 -82.5q143 0 222.5 82.5t79.5 223.5v903h302v-933q0 -240 -164.5 -387.5t-439.5 -147.5q-276 0 -440.5 147.5t-164.5 387.5v933h302zM867 -400q-39 0 -73.5 14t-59 34t-46.5 40t-44 34t-42 14q-34 0 -52 -33t-18 -89h-159 q0 128 62 201t158 73q40 0 75.5 -14t60 -33.5t46 -39.5t43 -34t40.5 -14q66 0 69 124h159q0 -126 -62.5 -201.5t-156.5 -75.5z" />
<glyph unicode="&#x1e75;" horiz-adv-x="1180" d="M1085 1072v-1072h-282v193h-6q-84 -213 -321 -213q-176 0 -281 107.5t-105 293.5v691h292v-630q0 -107 51.5 -163t148.5 -56t154 64t57 171v614h292zM731 -400q-39 0 -73.5 14t-59 34t-46.5 40t-44 34t-42 14q-34 0 -52 -33t-18 -89h-159q0 128 62 201t158 73 q40 0 75.5 -14t60 -33.5t46 -39.5t43 -34t40.5 -14q66 0 69 124h159q0 -126 -62.5 -201.5t-156.5 -75.5z" />
<glyph unicode="&#x1e76;" horiz-adv-x="1449" d="M422 1443v-903q0 -141 79.5 -223.5t223.5 -82.5q143 0 222.5 82.5t79.5 223.5v903h302v-933q0 -240 -164.5 -387.5t-439.5 -147.5q-276 0 -440.5 147.5t-164.5 387.5v933h302zM613 -141h224l269 -317h-221l-156 192h-8l-156 -192h-221z" />
<glyph unicode="&#x1e77;" horiz-adv-x="1180" d="M1085 1072v-1072h-282v193h-6q-84 -213 -321 -213q-176 0 -281 107.5t-105 293.5v691h292v-630q0 -107 51.5 -163t148.5 -56t154 64t57 171v614h292zM477 -141h224l269 -317h-221l-156 192h-8l-156 -192h-221z" />
<glyph unicode="&#x1e78;" horiz-adv-x="1449" d="M422 1443v-903q0 -141 79.5 -223.5t223.5 -82.5q143 0 222.5 82.5t79.5 223.5v903h302v-933q0 -240 -164.5 -387.5t-439.5 -147.5q-276 0 -440.5 147.5t-164.5 387.5v933h302zM861 1539q-46 0 -88 21t-67 46.5t-54 46.5t-52 21q-33 0 -51.5 -32t-17.5 -83h-156 q0 123 60 194t155 71q46 0 87.5 -21t66.5 -46t54 -46t53 -21q66 0 68 118h156q0 -122 -61 -195.5t-153 -73.5zM614 1888l185 238h246l-215 -238h-216z" />
<glyph unicode="&#x1e79;" horiz-adv-x="1180" d="M1085 1072v-1072h-282v193h-6q-84 -213 -321 -213q-176 0 -281 107.5t-105 293.5v691h292v-630q0 -107 51.5 -163t148.5 -56t154 64t57 171v614h292zM476 1572l198 278h243l-227 -278h-214zM733 1192q-39 0 -73.5 14t-59 34t-46.5 40t-44 34t-42 14q-34 0 -52 -33 t-18 -89h-159q0 128 62 201t158 73q40 0 75.5 -14t60 -34t46 -39.5t43 -33.5t40.5 -14q66 0 69 124h159q0 -126 -62.5 -201.5t-156.5 -75.5z" />
<glyph unicode="&#x1e7a;" horiz-adv-x="1449" d="M422 1443v-903q0 -141 79.5 -223.5t223.5 -82.5q143 0 222.5 82.5t79.5 223.5v903h302v-933q0 -240 -164.5 -387.5t-439.5 -147.5q-276 0 -440.5 147.5t-164.5 387.5v933h302zM1071 1599h-692v148h692v-148zM525 1883q-56 0 -93.5 37t-37.5 91t37.5 91t93.5 37t93.5 -37 t37.5 -91t-37.5 -91t-93.5 -37zM925 1883q-56 0 -93.5 37t-37.5 91t37.5 91t93.5 37t93.5 -37t37.5 -91t-37.5 -91t-93.5 -37z" />
<glyph unicode="&#x1e7b;" horiz-adv-x="1180" d="M1085 1072v-1072h-282v193h-6q-84 -213 -321 -213q-176 0 -281 107.5t-105 293.5v691h292v-630q0 -107 51.5 -163t148.5 -56t154 64t57 171v614h292zM390 1535q-55 0 -93 37t-38 90t38 89.5t93 36.5t92.5 -36.5t37.5 -89.5t-37.5 -90t-92.5 -37zM789 1535q-55 0 -92.5 37 t-37.5 90t37.5 89.5t92.5 36.5t93 -36.5t38 -89.5t-38 -90t-93 -37zM909 1382v-148h-639v148h639z" />
<glyph unicode="&#x1e7c;" horiz-adv-x="1389" d="M877 0h-364l-485 1443h338l330 -1132h7l330 1132h329zM837 1563q-47 0 -89.5 21.5t-67.5 46.5t-54.5 46.5t-53.5 21.5q-34 0 -52 -33t-18 -89h-159q0 128 62 201t158 73q40 0 75.5 -14t60 -33.5t46 -39.5t43 -34t40.5 -14q66 0 69 124h159q0 -126 -62.5 -201.5 t-156.5 -75.5z" />
<glyph unicode="&#x1e7d;" horiz-adv-x="1081" d="M1075 1072l-368 -1072h-330l-371 1072h313l223 -814h6l222 814h305zM685 1218q-39 0 -73.5 14t-59 34t-46.5 40t-44 34t-42 14q-34 0 -52 -33t-18 -89h-159q0 128 62 201t158 73q40 0 75.5 -14t60 -34t46 -39.5t43 -33.5t40.5 -14q66 0 69 124h159q0 -126 -62.5 -201.5 t-156.5 -75.5z" />
<glyph unicode="&#x1e7e;" horiz-adv-x="1389" d="M877 0h-364l-485 1443h338l330 -1132h7l330 1132h329zM695 -456q-63 0 -106 43.5t-43 105.5t43 105.5t106 43.5t106 -43.5t43 -105.5t-43 -105.5t-106 -43.5z" />
<glyph unicode="&#x1e7f;" horiz-adv-x="1081" d="M1075 1072l-368 -1072h-330l-371 1072h313l223 -814h6l222 814h305zM541 -456q-63 0 -106 43.5t-43 105.5t43 105.5t106 43.5t106 -43.5t43 -105.5t-43 -105.5t-106 -43.5z" />
<glyph unicode="&#x1e80;" horiz-adv-x="1977" d="M984 986l-274 -986h-285l-382 1443h313l227 -1045h8l270 1045h255l270 -1045h8l228 1045h313l-383 -1443h-285l-274 986h-9zM871 1563l-267 305h271l226 -305h-230z" />
<glyph unicode="&#x1e81;" horiz-adv-x="1618" d="M1599 1072l-284 -1072h-311l-194 758h-6l-193 -758h-307l-285 1072h294l162 -795h6l190 795h280l191 -795h6l163 795h288zM928 1223h-233l-256 310h268z" />
<glyph unicode="&#x1e82;" horiz-adv-x="1977" d="M984 986l-274 -986h-285l-382 1443h313l227 -1045h8l270 1045h255l270 -1045h8l228 1045h313l-383 -1443h-285l-274 986h-9zM1104 1558h-230l226 305h271z" />
<glyph unicode="&#x1e83;" horiz-adv-x="1618" d="M1599 1072l-284 -1072h-311l-194 758h-6l-193 -758h-307l-285 1072h294l162 -795h6l190 795h280l191 -795h6l163 795h288zM923 1223h-233l221 310h268z" />
<glyph unicode="&#x1e84;" horiz-adv-x="1977" d="M984 986l-274 -986h-285l-382 1443h313l227 -1045h8l270 1045h255l270 -1045h8l228 1045h313l-383 -1443h-285l-274 986h-9zM785 1571q-57 0 -95.5 38t-38.5 92t38.5 92t95.5 38t95.5 -38t38.5 -92t-38.5 -92t-95.5 -38zM1193 1571q-57 0 -95.5 38t-38.5 92t38.5 92 t95.5 38t95.5 -38t38.5 -92t-38.5 -92t-95.5 -38z" />
<glyph unicode="&#x1e85;" horiz-adv-x="1618" d="M1599 1072l-284 -1072h-311l-194 758h-6l-193 -758h-307l-285 1072h294l162 -795h6l190 795h280l191 -795h6l163 795h288zM605 1220q-57 0 -95.5 38t-38.5 92t38.5 92t95.5 38t95.5 -38t38.5 -92t-38.5 -92t-95.5 -38zM1013 1220q-57 0 -95.5 38t-38.5 92t38.5 92 t95.5 38t95.5 -38t38.5 -92t-38.5 -92t-95.5 -38z" />
<glyph unicode="&#x1e86;" horiz-adv-x="1977" d="M984 986l-274 -986h-285l-382 1443h313l227 -1045h8l270 1045h255l270 -1045h8l228 1045h313l-383 -1443h-285l-274 986h-9zM989 1561q-63 0 -106 43.5t-43 105.5t43 105.5t106 43.5t106 -43.5t43 -105.5t-43 -105.5t-106 -43.5z" />
<glyph unicode="&#x1e87;" horiz-adv-x="1618" d="M1599 1072l-284 -1072h-311l-194 758h-6l-193 -758h-307l-285 1072h294l162 -795h6l190 795h280l191 -795h6l163 795h288zM808 1223q-63 0 -107 43.5t-44 104.5q0 62 44 105.5t107 43.5t106.5 -43.5t43.5 -105.5q0 -61 -43.5 -104.5t-106.5 -43.5z" />
<glyph unicode="&#x1e88;" horiz-adv-x="1977" d="M984 986l-274 -986h-285l-382 1443h313l227 -1045h8l270 1045h255l270 -1045h8l228 1045h313l-383 -1443h-285l-274 986h-9zM989 -456q-63 0 -106 43.5t-43 105.5t43 105.5t106 43.5t106 -43.5t43 -105.5t-43 -105.5t-106 -43.5z" />
<glyph unicode="&#x1e89;" horiz-adv-x="1618" d="M1599 1072l-284 -1072h-311l-194 758h-6l-193 -758h-307l-285 1072h294l162 -795h6l190 795h280l191 -795h6l163 795h288zM809 -456q-63 0 -106 43.5t-43 105.5t43 105.5t106 43.5t106 -43.5t43 -105.5t-43 -105.5t-106 -43.5z" />
<glyph unicode="&#x1e8a;" horiz-adv-x="1404" d="M43 0l458 723v8l-455 712h355l306 -520h8l309 520h337l-472 -718v-7l466 -718h-344l-316 505h-8l-318 -505h-326zM702 1561q-63 0 -106 43.5t-43 105.5t43 105.5t106 43.5t106 -43.5t43 -105.5t-43 -105.5t-106 -43.5z" />
<glyph unicode="&#x1e8b;" horiz-adv-x="1081" d="M536 372h-6l-201 -372h-307l336 534l-334 538h329l193 -362h6l190 362h318l-335 -530l332 -542h-317zM540 1223q-63 0 -107 43.5t-44 104.5q0 62 44 105.5t107 43.5t106.5 -43.5t43.5 -105.5q0 -61 -43.5 -104.5t-106.5 -43.5z" />
<glyph unicode="&#x1e8c;" horiz-adv-x="1404" d="M43 0l458 723v8l-455 712h355l306 -520h8l309 520h337l-472 -718v-7l466 -718h-344l-316 505h-8l-318 -505h-326zM498 1571q-57 0 -95.5 38t-38.5 92t38.5 92t95.5 38t95.5 -38t38.5 -92t-38.5 -92t-95.5 -38zM906 1571q-57 0 -95.5 38t-38.5 92t38.5 92t95.5 38 t95.5 -38t38.5 -92t-38.5 -92t-95.5 -38z" />
<glyph unicode="&#x1e8d;" horiz-adv-x="1081" d="M536 372h-6l-201 -372h-307l336 534l-334 538h329l193 -362h6l190 362h318l-335 -530l332 -542h-317zM337 1220q-57 0 -95.5 38t-38.5 92t38.5 92t95.5 38t95.5 -38t38.5 -92t-38.5 -92t-95.5 -38zM745 1220q-57 0 -95.5 38t-38.5 92t38.5 92t95.5 38t95.5 -38t38.5 -92 t-38.5 -92t-95.5 -38z" />
<glyph unicode="&#x1e8e;" horiz-adv-x="1362" d="M832 0h-302v539l-502 904h329l323 -616h7l324 616h324l-503 -904v-539zM681 1561q-63 0 -106 43.5t-43 105.5t43 105.5t106 43.5t106 -43.5t43 -105.5t-43 -105.5t-106 -43.5z" />
<glyph unicode="&#x1e8f;" horiz-adv-x="1112" d="M232 -397q-96 0 -110 3v225q9 -2 73 -2q81 0 123 27.5t57 91.5q0 1 5 25t4 26l-373 1073h321l228 -838h5l228 838h308l-369 -1096q-69 -206 -181.5 -289.5t-318.5 -83.5zM556 1223q-63 0 -107 43.5t-44 104.5q0 62 44 105.5t107 43.5t106.5 -43.5t43.5 -105.5 q0 -61 -43.5 -104.5t-106.5 -43.5z" />
<glyph unicode="&#x1e90;" horiz-adv-x="1292" d="M89 0v197l733 989v8h-716v249h1077v-196l-730 -990v-7h750v-250h-1114zM534 1855h224l269 -317h-221l-156 192h-8l-156 -192h-221z" />
<glyph unicode="&#x1e91;" horiz-adv-x="1035" d="M75 0v166l534 677v6h-526v223h865v-185l-502 -658v-5h514v-224h-885zM629 1531l263 -318h-223l-149 186h-7l-148 -186h-224l264 318h224z" />
<glyph unicode="&#x1e92;" horiz-adv-x="1292" d="M89 0v197l733 989v8h-716v249h1077v-196l-730 -990v-7h750v-250h-1114zM646 -456q-63 0 -106 43.5t-43 105.5t43 105.5t106 43.5t106 -43.5t43 -105.5t-43 -105.5t-106 -43.5z" />
<glyph unicode="&#x1e93;" horiz-adv-x="1035" d="M75 0v166l534 677v6h-526v223h865v-185l-502 -658v-5h514v-224h-885zM517 -456q-63 0 -106 43.5t-43 105.5t43 105.5t106 43.5t106 -43.5t43 -105.5t-43 -105.5t-106 -43.5z" />
<glyph unicode="&#x1e94;" horiz-adv-x="1292" d="M89 0v197l733 989v8h-716v249h1077v-196l-730 -990v-7h750v-250h-1114zM992 -229v-148h-692v148h692z" />
<glyph unicode="&#x1e95;" horiz-adv-x="1035" d="M75 0v166l534 677v6h-526v223h865v-185l-502 -658v-5h514v-224h-885zM863 -229v-148h-692v148h692z" />
<glyph unicode="&#x1e96;" horiz-adv-x="1197" d="M102 0v1443h287v-562h6q43 102 129.5 156.5t207.5 54.5q177 0 275.5 -107.5t98.5 -294.5v-690h-292v628q0 105 -51.5 163.5t-149.5 58.5q-102 0 -160.5 -65.5t-58.5 -172.5v-612h-292zM949 -229v-148h-692v148h692z" />
<glyph unicode="&#x1e97;" horiz-adv-x="728" d="M173 1319h292v-247h198v-220h-198v-513q0 -121 126 -121q41 0 71 5v-215q-51 -12 -139 -12q-189 0 -269.5 68t-80.5 225v563h-151v220h151v247zM116 1448q-57 0 -95.5 38t-38.5 92t38.5 92t95.5 38t95.5 -38t38.5 -92t-38.5 -92t-95.5 -38zM524 1448q-57 0 -95.5 38 t-38.5 92t38.5 92t95.5 38t95.5 -38t38.5 -92t-38.5 -92t-95.5 -38z" />
<glyph unicode="&#x1e98;" horiz-adv-x="1618" d="M1599 1072l-284 -1072h-311l-194 758h-6l-193 -758h-307l-285 1072h294l162 -795h6l190 795h280l191 -795h6l163 795h288zM809 1174q-89 0 -153 62.5t-64 150.5t64 150.5t153 62.5t153 -62.5t64 -150.5t-64 -150.5t-153 -62.5zM809 1293q39 0 67.5 27.5t28.5 66.5 t-28.5 66.5t-67.5 27.5t-67 -27.5t-28 -66.5t28 -66.5t67 -27.5z" />
<glyph unicode="&#x1e99;" horiz-adv-x="1112" d="M232 -397q-96 0 -110 3v225q9 -2 73 -2q81 0 123 27.5t57 91.5q0 1 5 25t4 26l-373 1073h321l228 -838h5l228 838h308l-369 -1096q-69 -206 -181.5 -289.5t-318.5 -83.5zM557 1174q-89 0 -153 62.5t-64 150.5t64 150.5t153 62.5t153 -62.5t64 -150.5t-64 -150.5 t-153 -62.5zM557 1293q39 0 67.5 27.5t28.5 66.5t-28.5 66.5t-67.5 27.5t-67 -27.5t-28 -66.5t28 -66.5t67 -27.5z" />
<glyph unicode="&#x1e9e;" horiz-adv-x="2586" d="M66 411h291q10 -88 93.5 -142.5t204.5 -54.5q120 0 195.5 51.5t75.5 131.5q0 70 -56 113t-187 72l-188 41q-397 85 -397 403q0 198 154.5 320t397.5 122q250 0 399 -118.5t153 -315.5h-283q-7 91 -80.5 143.5t-187.5 52.5q-112 0 -180.5 -49t-68.5 -129q0 -66 55.5 -107 t180.5 -70l175 -37q217 -46 316 -143.5t99 -262.5q0 -210 -158 -333.5t-427 -123.5q-261 0 -415.5 116.5t-161.5 319.5zM1359 411h291q10 -88 93.5 -142.5t204.5 -54.5q120 0 195.5 51.5t75.5 131.5q0 70 -56 113t-187 72l-188 41q-397 85 -397 403q0 198 154.5 320 t397.5 122q250 0 399 -118.5t153 -315.5h-283q-7 91 -80.5 143.5t-187.5 52.5q-112 0 -180.5 -49t-68.5 -129q0 -66 55.5 -107t180.5 -70l175 -37q217 -46 316 -143.5t99 -262.5q0 -210 -158 -333.5t-427 -123.5q-261 0 -415.5 116.5t-161.5 319.5z" />
<glyph unicode="&#x1ea0;" horiz-adv-x="1413" d="M1065 0l-110 350h-507l-110 -350h-310l501 1443h355l502 -1443h-321zM698 1167l-185 -591h377l-185 591h-7zM707 -456q-63 0 -106 43.5t-43 105.5t43 105.5t106 43.5t106 -43.5t43 -105.5t-43 -105.5t-106 -43.5z" />
<glyph unicode="&#x1ea1;" d="M509 194q97 0 164.5 56.5t67.5 142.5v78l-226 -14q-82 -6 -126.5 -41t-44.5 -92q0 -60 45 -95t120 -35zM413 -17q-155 0 -257 91t-102 234q0 146 108 229t309 95l270 16v71q0 74 -48.5 116t-131.5 42q-80 0 -130.5 -36t-61.5 -97h-267q8 158 135 254.5t337 96.5 q206 0 330 -98t124 -260v-737h-282v164h-6q-44 -84 -134 -132.5t-193 -48.5zM555 -456q-63 0 -106 43.5t-43 105.5t43 105.5t106 43.5t106 -43.5t43 -105.5t-43 -105.5t-106 -43.5z" />
<glyph unicode="&#x1ea2;" horiz-adv-x="1413" d="M1065 0l-110 350h-507l-110 -350h-310l501 1443h355l502 -1443h-321zM698 1167l-185 -591h377l-185 591h-7zM522 1780v132q55 25 143 25q109 0 173 -52.5t64 -142.5q0 -72 -52 -133.5t-136 -94.5l-86 105q43 15 70 44.5t27 62.5q0 32 -27 52.5t-70 20.5q-60 0 -106 -19z " />
<glyph unicode="&#x1ea3;" d="M509 194q97 0 164.5 56.5t67.5 142.5v78l-226 -14q-82 -6 -126.5 -41t-44.5 -92q0 -60 45 -95t120 -35zM413 -17q-155 0 -257 91t-102 234q0 146 108 229t309 95l270 16v71q0 74 -48.5 116t-131.5 42q-80 0 -130.5 -36t-61.5 -97h-267q8 158 135 254.5t337 96.5 q206 0 330 -98t124 -260v-737h-282v164h-6q-44 -84 -134 -132.5t-193 -48.5zM413 1454v135q64 27 149 27q106 0 169.5 -56t63.5 -150q0 -70 -50 -132t-139 -100l-85 104q52 23 74 49t22 65q0 35 -28.5 57t-73.5 22q-52 0 -102 -21z" />
<glyph unicode="&#x1ea4;" horiz-adv-x="1413" d="M1065 0l-110 350h-507l-110 -350h-310l501 1443h355l502 -1443h-321zM698 1167l-185 -591h377l-185 591h-7zM591 1820h232l268 -282h-227l-153 167h-8l-153 -167h-227zM816 1878l185 248h246l-215 -248h-216z" />
<glyph unicode="&#x1ea5;" d="M509 194q97 0 164.5 56.5t67.5 142.5v78l-226 -14q-82 -6 -126.5 -41t-44.5 -92q0 -60 45 -95t120 -35zM413 -17q-155 0 -257 91t-102 234q0 146 108 229t309 95l270 16v71q0 74 -48.5 116t-131.5 42q-80 0 -130.5 -36t-61.5 -97h-267q8 158 135 254.5t337 96.5 q206 0 330 -98t124 -260v-737h-282v164h-6q-44 -84 -134 -132.5t-193 -48.5zM679 1521l263 -308h-224l-148 179h-8l-148 -179h-224l263 308h226zM723 1562l206 288h243l-235 -288h-214z" />
<glyph unicode="&#x1ea6;" horiz-adv-x="1413" d="M1065 0l-110 350h-507l-110 -350h-310l501 1443h355l502 -1443h-321zM698 1167l-185 -591h377l-185 591h-7zM591 1820h232l268 -282h-227l-153 167h-8l-153 -167h-227zM1076 1878h-216l-215 248h246z" />
<glyph unicode="&#x1ea7;" d="M509 194q97 0 164.5 56.5t67.5 142.5v78l-226 -14q-82 -6 -126.5 -41t-44.5 -92q0 -60 45 -95t120 -35zM413 -17q-155 0 -257 91t-102 234q0 146 108 229t309 95l270 16v71q0 74 -48.5 116t-131.5 42q-80 0 -130.5 -36t-61.5 -97h-267q8 158 135 254.5t337 96.5 q206 0 330 -98t124 -260v-737h-282v164h-6q-44 -84 -134 -132.5t-193 -48.5zM679 1521l263 -308h-224l-148 179h-8l-148 -179h-224l263 308h226zM1011 1562h-214l-235 288h243z" />
<glyph unicode="&#x1ea8;" horiz-adv-x="1413" d="M1065 0l-110 350h-507l-110 -350h-310l501 1443h355l502 -1443h-321zM698 1167l-185 -591h377l-185 591h-7zM591 1820h232l268 -282h-227l-153 167h-8l-153 -167h-227zM825 1981v126q52 26 135 26q102 0 162.5 -51t60.5 -138q0 -67 -40.5 -123.5t-110.5 -83.5l-92 98 q74 28 74 94q0 31 -25 50t-66 19q-55 0 -98 -17z" />
<glyph unicode="&#x1ea9;" d="M509 194q97 0 164.5 56.5t67.5 142.5v78l-226 -14q-82 -6 -126.5 -41t-44.5 -92q0 -60 45 -95t120 -35zM413 -17q-155 0 -257 91t-102 234q0 146 108 229t309 95l270 16v71q0 74 -48.5 116t-131.5 42q-80 0 -130.5 -36t-61.5 -97h-267q8 158 135 254.5t337 96.5 q206 0 330 -98t124 -260v-737h-282v164h-6q-44 -84 -134 -132.5t-193 -48.5zM684 1711v130q47 22 120 22q106 0 168 -51.5t62 -138.5q0 -157 -165 -219l-88 96q42 16 65.5 44.5t23.5 60.5t-26 52t-68 20q-51 0 -92 -16zM679 1521l263 -308h-224l-148 179h-8l-148 -179h-224 l263 308h226z" />
<glyph unicode="&#x1eaa;" horiz-adv-x="1413" d="M1065 0l-110 350h-507l-110 -350h-310l501 1443h355l502 -1443h-321zM698 1167l-185 -591h377l-185 591h-7zM840 1875q-48 0 -89.5 19.5t-65 43t-50.5 43t-49 19.5q-33 0 -52 -28.5t-21 -75.5h-159q0 114 61.5 182t158.5 68q39 0 73.5 -12.5t58 -31t43.5 -36.5t40 -30.5 t39 -12.5q32 0 51 27.5t22 76.5h159q0 -112 -62.5 -182t-157.5 -70zM591 1815h232l268 -277h-227l-153 163h-8l-153 -163h-227z" />
<glyph unicode="&#x1eab;" d="M509 194q97 0 164.5 56.5t67.5 142.5v78l-226 -14q-82 -6 -126.5 -41t-44.5 -92q0 -60 45 -95t120 -35zM413 -17q-155 0 -257 91t-102 234q0 146 108 229t309 95l270 16v71q0 74 -48.5 116t-131.5 42q-80 0 -130.5 -36t-61.5 -97h-267q8 158 135 254.5t337 96.5 q206 0 330 -98t124 -260v-737h-282v164h-6q-44 -84 -134 -132.5t-193 -48.5zM679 1511l263 -298h-224l-148 171h-8l-148 -171h-224l263 298h226zM703 1580q-39 0 -73.5 14t-59 33.5t-46 39t-43.5 33.5t-42 14q-34 0 -52.5 -31.5t-18.5 -83.5h-158q0 123 62 194.5t158 71.5 q47 0 89 -21t67 -46t54.5 -46t53.5 -21q67 0 70 119h158q0 -122 -62.5 -196t-156.5 -74z" />
<glyph unicode="&#x1eac;" horiz-adv-x="1413" d="M1065 0l-110 350h-507l-110 -350h-310l501 1443h355l502 -1443h-321zM698 1167l-185 -591h377l-185 591h-7zM595 1855h224l269 -317h-221l-156 192h-8l-156 -192h-221zM707 -456q-63 0 -106 43.5t-43 105.5t43 105.5t106 43.5t106 -43.5t43 -105.5t-43 -105.5t-106 -43.5 z" />
<glyph unicode="&#x1ead;" d="M509 194q97 0 164.5 56.5t67.5 142.5v78l-226 -14q-82 -6 -126.5 -41t-44.5 -92q0 -60 45 -95t120 -35zM413 -17q-155 0 -257 91t-102 234q0 146 108 229t309 95l270 16v71q0 74 -48.5 116t-131.5 42q-80 0 -130.5 -36t-61.5 -97h-267q8 158 135 254.5t337 96.5 q206 0 330 -98t124 -260v-737h-282v164h-6q-44 -84 -134 -132.5t-193 -48.5zM678 1531l263 -318h-223l-149 186h-7l-148 -186h-224l264 318h224zM555 -456q-63 0 -106 43.5t-43 105.5t43 105.5t106 43.5t106 -43.5t43 -105.5t-43 -105.5t-106 -43.5z" />
<glyph unicode="&#x1eae;" horiz-adv-x="1413" d="M1065 0l-110 350h-507l-110 -350h-310l501 1443h355l502 -1443h-321zM698 1167l-185 -591h377l-185 591h-7zM349 1836h181q6 -65 54 -106.5t123 -41.5t123 41.5t54 106.5h181q-5 -126 -102.5 -211t-255.5 -85t-255.5 85t-102.5 211zM581 1878l185 248h246l-215 -248h-216 z" />
<glyph unicode="&#x1eaf;" d="M509 194q97 0 164.5 56.5t67.5 142.5v78l-226 -14q-82 -6 -126.5 -41t-44.5 -92q0 -60 45 -95t120 -35zM413 -17q-155 0 -257 91t-102 234q0 146 108 229t309 95l270 16v71q0 74 -48.5 116t-131.5 42q-80 0 -130.5 -36t-61.5 -97h-267q8 158 135 254.5t337 96.5 q206 0 330 -98t124 -260v-737h-282v164h-6q-44 -84 -134 -132.5t-193 -48.5zM448 1562l206 288h243l-235 -288h-214zM925 1530q-2 -140 -98.5 -231t-260.5 -91t-260.5 91t-98.5 231h181q2 -79 50 -127t128 -48t128 48t50 127h181z" />
<glyph unicode="&#x1eb0;" horiz-adv-x="1413" d="M1065 0l-110 350h-507l-110 -350h-310l501 1443h355l502 -1443h-321zM698 1167l-185 -591h377l-185 591h-7zM1065 1836q-5 -126 -102.5 -211t-255.5 -85t-255.5 85t-102.5 211h181q6 -65 54 -106.5t123 -41.5t123 41.5t54 106.5h181zM833 1878h-216l-215 248h246z" />
<glyph unicode="&#x1eb1;" d="M509 194q97 0 164.5 56.5t67.5 142.5v78l-226 -14q-82 -6 -126.5 -41t-44.5 -92q0 -60 45 -95t120 -35zM413 -17q-155 0 -257 91t-102 234q0 146 108 229t309 95l270 16v71q0 74 -48.5 116t-131.5 42q-80 0 -130.5 -36t-61.5 -97h-267q8 158 135 254.5t337 96.5 q206 0 330 -98t124 -260v-737h-282v164h-6q-44 -84 -134 -132.5t-193 -48.5zM678 1557h-193l-237 282h239zM925 1530q-2 -140 -98.5 -231t-260.5 -91t-260.5 91t-98.5 231h181q2 -79 50 -127t128 -48t128 48t50 127h181z" />
<glyph unicode="&#x1eb2;" horiz-adv-x="1413" d="M1065 0l-110 350h-507l-110 -350h-310l501 1443h355l502 -1443h-321zM698 1167l-185 -591h377l-185 591h-7zM520 2026v126q52 26 137 26q101 0 160.5 -48t59.5 -129q0 -65 -51.5 -126.5t-128.5 -88.5l-75 94q42 14 66.5 41t24.5 57t-26.5 49t-67.5 19q-56 0 -99 -20z M349 1836h181q6 -66 55 -107t122 -41t122 41t55 107h181q-5 -129 -105.5 -212.5t-252.5 -83.5t-252.5 83.5t-105.5 212.5z" />
<glyph unicode="&#x1eb3;" d="M509 194q97 0 164.5 56.5t67.5 142.5v78l-226 -14q-82 -6 -126.5 -41t-44.5 -92q0 -60 45 -95t120 -35zM413 -17q-155 0 -257 91t-102 234q0 146 108 229t309 95l270 16v71q0 74 -48.5 116t-131.5 42q-80 0 -130.5 -36t-61.5 -97h-267q8 158 135 254.5t337 96.5 q206 0 330 -98t124 -260v-737h-282v164h-6q-44 -84 -134 -132.5t-193 -48.5zM925 1530q-2 -140 -98.5 -231t-260.5 -91t-260.5 91t-98.5 231h181q2 -79 50 -127t128 -48t128 48t50 127h181zM391 1737v123q44 21 115 21q102 0 161.5 -48.5t59.5 -132.5q0 -145 -157 -204 l-84 91q84 38 84 96q0 31 -25 50.5t-65 19.5q-48 0 -89 -16z" />
<glyph unicode="&#x1eb4;" horiz-adv-x="1413" d="M1065 0l-110 350h-507l-110 -350h-310l501 1443h355l502 -1443h-321zM698 1167l-185 -591h377l-185 591h-7zM349 1826h181q6 -57 54.5 -97.5t122.5 -40.5t122.5 40.5t54.5 97.5h181q-6 -116 -104 -201t-254 -85t-254 85t-104 201zM840 1875q-48 0 -89.5 19.5t-65 43 t-50.5 43t-49 19.5q-32 0 -51.5 -28t-21.5 -71h-159q0 111 61.5 178t158.5 67q39 0 73.5 -12.5t58 -31t43.5 -36.5t40 -30.5t39 -12.5q32 0 51 27.5t22 76.5h159q0 -112 -62.5 -182t-157.5 -70z" />
<glyph unicode="&#x1eb5;" d="M509 194q97 0 164.5 56.5t67.5 142.5v78l-226 -14q-82 -6 -126.5 -41t-44.5 -92q0 -60 45 -95t120 -35zM413 -17q-155 0 -257 91t-102 234q0 146 108 229t309 95l270 16v71q0 74 -48.5 116t-131.5 42q-80 0 -130.5 -36t-61.5 -97h-267q8 158 135 254.5t337 96.5 q206 0 330 -98t124 -260v-737h-282v164h-6q-44 -84 -134 -132.5t-193 -48.5zM925 1530q-2 -140 -98.5 -231t-260.5 -91t-260.5 91t-98.5 231h181q2 -79 50 -127t128 -48t128 48t50 127h181zM703 1580q-39 0 -73.5 14t-59 33.5t-46 39t-43.5 33.5t-42 14q-33 0 -52 -31 t-19 -79h-158q0 120 62 190.5t158 70.5q49 0 91.5 -21t67.5 -46t53.5 -46t51.5 -21q33 0 50.5 31.5t19.5 87.5h158q0 -122 -62.5 -196t-156.5 -74z" />
<glyph unicode="&#x1eb6;" horiz-adv-x="1413" d="M1065 0l-110 350h-507l-110 -350h-310l501 1443h355l502 -1443h-321zM698 1167l-185 -591h377l-185 591h-7zM349 1859h181q6 -78 53.5 -124.5t123.5 -46.5t123.5 46.5t53.5 124.5h181q-7 -136 -102.5 -228t-255.5 -92t-255.5 92t-102.5 228zM707 -456q-63 0 -106 43.5 t-43 105.5t43 105.5t106 43.5t106 -43.5t43 -105.5t-43 -105.5t-106 -43.5z" />
<glyph unicode="&#x1eb7;" d="M509 194q97 0 164.5 56.5t67.5 142.5v78l-226 -14q-82 -6 -126.5 -41t-44.5 -92q0 -60 45 -95t120 -35zM413 -17q-155 0 -257 91t-102 234q0 146 108 229t309 95l270 16v71q0 74 -48.5 116t-131.5 42q-80 0 -130.5 -36t-61.5 -97h-267q8 158 135 254.5t337 96.5 q206 0 330 -98t124 -260v-737h-282v164h-6q-44 -84 -134 -132.5t-193 -48.5zM207 1530h181q2 -79 49.5 -127t127.5 -48t128 48t50 127h181q-2 -140 -98.5 -231t-260.5 -91t-260 91t-98 231zM555 -456q-63 0 -106 43.5t-43 105.5t43 105.5t106 43.5t106 -43.5t43 -105.5 t-43 -105.5t-106 -43.5z" />
<glyph unicode="&#x1eb8;" horiz-adv-x="1174" d="M1076 250v-250h-956v1443h956v-249h-654v-348h617v-232h-617v-364h654zM598 -456q-63 0 -106 43.5t-43 105.5t43 105.5t106 43.5t106 -43.5t43 -105.5t-43 -105.5t-106 -43.5z" />
<glyph unicode="&#x1eb9;" horiz-adv-x="1137" d="M576 879q-95 0 -158.5 -65t-71.5 -166h455q-5 103 -66.5 167t-158.5 64zM805 328h268q-24 -158 -157.5 -254.5t-331.5 -96.5q-247 0 -387.5 148t-140.5 406q0 257 140 410.5t377 153.5q233 0 371 -146t138 -391v-89h-739v-18q0 -115 67.5 -186.5t178.5 -71.5 q80 0 138 36.5t78 98.5zM576 -456q-63 0 -106 43.5t-43 105.5t43 105.5t106 43.5t106 -43.5t43 -105.5t-43 -105.5t-106 -43.5z" />
<glyph unicode="&#x1eba;" horiz-adv-x="1174" d="M1076 250v-250h-956v1443h956v-249h-654v-348h617v-232h-617v-364h654zM413 1780v132q55 25 143 25q109 0 173 -52.5t64 -142.5q0 -72 -52 -133.5t-136 -94.5l-86 105q43 15 70 44.5t27 62.5q0 32 -27 52.5t-70 20.5q-60 0 -106 -19z" />
<glyph unicode="&#x1ebb;" horiz-adv-x="1137" d="M576 879q-95 0 -158.5 -65t-71.5 -166h455q-5 103 -66.5 167t-158.5 64zM805 328h268q-24 -158 -157.5 -254.5t-331.5 -96.5q-247 0 -387.5 148t-140.5 406q0 257 140 410.5t377 153.5q233 0 371 -146t138 -391v-89h-739v-18q0 -115 67.5 -186.5t178.5 -71.5 q80 0 138 36.5t78 98.5zM420 1454v135q64 27 149 27q106 0 169.5 -56t63.5 -150q0 -70 -50 -132t-139 -100l-85 104q52 23 74 49t22 65q0 35 -28.5 57t-73.5 22q-52 0 -102 -21z" />
<glyph unicode="&#x1ebc;" horiz-adv-x="1174" d="M1076 250v-250h-956v1443h956v-249h-654v-348h617v-232h-617v-364h654zM740 1563q-47 0 -89.5 21.5t-67.5 46.5t-54.5 46.5t-53.5 21.5q-34 0 -52 -33t-18 -89h-159q0 128 62 201t158 73q40 0 75.5 -14t60 -33.5t46 -39.5t43 -34t40.5 -14q66 0 69 124h159 q0 -126 -62.5 -201.5t-156.5 -75.5z" />
<glyph unicode="&#x1ebd;" horiz-adv-x="1137" d="M576 879q-95 0 -158.5 -65t-71.5 -166h455q-5 103 -66.5 167t-158.5 64zM805 328h268q-24 -158 -157.5 -254.5t-331.5 -96.5q-247 0 -387.5 148t-140.5 406q0 257 140 410.5t377 153.5q233 0 371 -146t138 -391v-89h-739v-18q0 -115 67.5 -186.5t178.5 -71.5 q80 0 138 36.5t78 98.5zM717 1218q-39 0 -73.5 14t-59 34t-46.5 40t-44 34t-42 14q-34 0 -52 -33t-18 -89h-159q0 128 62 201t158 73q40 0 75.5 -14t60 -34t46 -39.5t43 -33.5t40.5 -14q66 0 69 124h159q0 -126 -62.5 -201.5t-156.5 -75.5z" />
<glyph unicode="&#x1ebe;" horiz-adv-x="1174" d="M1076 250v-250h-956v1443h956v-249h-654v-348h617v-232h-617v-364h654zM482 1820h232l268 -282h-227l-153 167h-8l-153 -167h-227zM707 1878l185 248h246l-215 -248h-216z" />
<glyph unicode="&#x1ebf;" horiz-adv-x="1137" d="M576 879q-95 0 -158.5 -65t-71.5 -166h455q-5 103 -66.5 167t-158.5 64zM805 328h268q-24 -158 -157.5 -254.5t-331.5 -96.5q-247 0 -387.5 148t-140.5 406q0 257 140 410.5t377 153.5q233 0 371 -146t138 -391v-89h-739v-18q0 -115 67.5 -186.5t178.5 -71.5 q80 0 138 36.5t78 98.5zM686 1521l263 -308h-224l-148 179h-8l-148 -179h-224l263 308h226zM730 1562l206 288h243l-235 -288h-214z" />
<glyph unicode="&#x1ec0;" horiz-adv-x="1174" d="M1076 250v-250h-956v1443h956v-249h-654v-348h617v-232h-617v-364h654zM482 1820h232l268 -282h-227l-153 167h-8l-153 -167h-227zM967 1878h-216l-215 248h246z" />
<glyph unicode="&#x1ec1;" horiz-adv-x="1137" d="M576 879q-95 0 -158.5 -65t-71.5 -166h455q-5 103 -66.5 167t-158.5 64zM805 328h268q-24 -158 -157.5 -254.5t-331.5 -96.5q-247 0 -387.5 148t-140.5 406q0 257 140 410.5t377 153.5q233 0 371 -146t138 -391v-89h-739v-18q0 -115 67.5 -186.5t178.5 -71.5 q80 0 138 36.5t78 98.5zM686 1521l263 -308h-224l-148 179h-8l-148 -179h-224l263 308h226zM1018 1562h-214l-235 288h243z" />
<glyph unicode="&#x1ec2;" horiz-adv-x="1174" d="M1076 250v-250h-956v1443h956v-249h-654v-348h617v-232h-617v-364h654zM482 1820h232l268 -282h-227l-153 167h-8l-153 -167h-227zM716 1981v126q52 26 135 26q102 0 162.5 -51t60.5 -138q0 -67 -40.5 -123.5t-110.5 -83.5l-92 98q74 28 74 94q0 31 -25 50t-66 19 q-56 0 -98 -17z" />
<glyph unicode="&#x1ec3;" horiz-adv-x="1137" d="M576 879q-95 0 -158.5 -65t-71.5 -166h455q-5 103 -66.5 167t-158.5 64zM805 328h268q-24 -158 -157.5 -254.5t-331.5 -96.5q-247 0 -387.5 148t-140.5 406q0 257 140 410.5t377 153.5q233 0 371 -146t138 -391v-89h-739v-18q0 -115 67.5 -186.5t178.5 -71.5 q80 0 138 36.5t78 98.5zM691 1711v130q47 22 120 22q106 0 168 -51.5t62 -138.5q0 -157 -165 -219l-88 96q42 16 65.5 44.5t23.5 60.5t-26 52t-68 20q-51 0 -92 -16zM686 1521l263 -308h-224l-148 179h-8l-148 -179h-224l263 308h226z" />
<glyph unicode="&#x1ec4;" horiz-adv-x="1174" d="M1076 250v-250h-956v1443h956v-249h-654v-348h617v-232h-617v-364h654zM731 1875q-48 0 -89.5 19.5t-65 43t-50.5 43t-49 19.5q-33 0 -52 -28.5t-21 -75.5h-159q0 114 61.5 182t158.5 68q39 0 73.5 -12.5t58 -31t43.5 -36.5t40 -30.5t39 -12.5q32 0 51 27.5t22 76.5h159 q0 -112 -62.5 -182t-157.5 -70zM482 1815h232l268 -277h-227l-153 163h-8l-153 -163h-227z" />
<glyph unicode="&#x1ec5;" horiz-adv-x="1137" d="M576 879q-95 0 -158.5 -65t-71.5 -166h455q-5 103 -66.5 167t-158.5 64zM805 328h268q-24 -158 -157.5 -254.5t-331.5 -96.5q-247 0 -387.5 148t-140.5 406q0 257 140 410.5t377 153.5q233 0 371 -146t138 -391v-89h-739v-18q0 -115 67.5 -186.5t178.5 -71.5 q80 0 138 36.5t78 98.5zM686 1511l263 -298h-224l-148 171h-8l-148 -171h-224l263 298h226zM710 1580q-39 0 -73.5 14t-59 33.5t-46 39t-43.5 33.5t-42 14q-34 0 -52.5 -31.5t-18.5 -83.5h-158q0 123 62 194.5t158 71.5q47 0 89 -21t67 -46t54.5 -46t53.5 -21q67 0 70 119 h158q0 -122 -62.5 -196t-156.5 -74z" />
<glyph unicode="&#x1ec6;" horiz-adv-x="1174" d="M1076 250v-250h-956v1443h956v-249h-654v-348h617v-232h-617v-364h654zM486 1855h224l269 -317h-221l-156 192h-8l-156 -192h-221zM598 -456q-63 0 -106 43.5t-43 105.5t43 105.5t106 43.5t106 -43.5t43 -105.5t-43 -105.5t-106 -43.5z" />
<glyph unicode="&#x1ec7;" horiz-adv-x="1137" d="M576 879q-95 0 -158.5 -65t-71.5 -166h455q-5 103 -66.5 167t-158.5 64zM805 328h268q-24 -158 -157.5 -254.5t-331.5 -96.5q-247 0 -387.5 148t-140.5 406q0 257 140 410.5t377 153.5q233 0 371 -146t138 -391v-89h-739v-18q0 -115 67.5 -186.5t178.5 -71.5 q80 0 138 36.5t78 98.5zM685 1531l263 -318h-223l-149 186h-7l-148 -186h-224l264 318h224zM576 -456q-63 0 -106 43.5t-43 105.5t43 105.5t106 43.5t106 -43.5t43 -105.5t-43 -105.5t-106 -43.5z" />
<glyph unicode="&#x1ec8;" horiz-adv-x="542" d="M422 0h-302v1443h302v-1443zM86 1780v132q55 25 143 25q109 0 173 -52.5t64 -142.5q0 -72 -52 -133.5t-136 -94.5l-86 105q43 15 70 44.5t27 62.5q0 32 -27 52.5t-70 20.5q-60 0 -106 -19z" />
<glyph unicode="&#x1ec9;" horiz-adv-x="491" d="M100 0v1072h292v-1072h-292zM78 1454v135q64 27 149 27q106 0 169.5 -56t63.5 -150q0 -70 -50 -132t-139 -100l-85 104q52 23 74 49t22 65q0 35 -28.5 57t-73.5 22q-52 0 -102 -21z" />
<glyph unicode="&#x1eca;" horiz-adv-x="542" d="M422 0h-302v1443h302v-1443zM271 -456q-63 0 -106 43.5t-43 105.5t43 105.5t106 43.5t106 -43.5t43 -105.5t-43 -105.5t-106 -43.5z" />
<glyph unicode="&#x1ecb;" horiz-adv-x="491" d="M100 0v1072h292v-1072h-292zM246 1190q-66 0 -111 44t-45 107q0 64 45 107.5t111 43.5t111 -43.5t45 -107.5q0 -63 -45 -107t-111 -44zM246 -456q-63 0 -106 43.5t-43 105.5t43 105.5t106 43.5t106 -43.5t43 -105.5t-43 -105.5t-106 -43.5z" />
<glyph unicode="&#x1ecc;" horiz-adv-x="1541" d="M771 1468q321 0 508.5 -201t187.5 -546q0 -344 -188 -545t-508 -201q-321 0 -508.5 201t-187.5 545q0 345 187.5 546t508.5 201zM771 1216q-177 0 -282.5 -134t-105.5 -361q0 -226 105 -359.5t283 -133.5q177 0 282 133.5t105 359.5q0 227 -105 361t-282 134zM771 -456 q-63 0 -106 43.5t-43 105.5t43 105.5t106 43.5t106 -43.5t43 -105.5t-43 -105.5t-106 -43.5z" />
<glyph unicode="&#x1ecd;" horiz-adv-x="1173" d="M587 -23q-245 0 -388 149t-143 411q0 259 144.5 408.5t386.5 149.5q243 0 387 -149.5t144 -408.5q0 -263 -143 -411.5t-388 -148.5zM587 200q108 0 171 88t63 248q0 158 -63 247t-171 89t-171.5 -89t-63.5 -247q0 -160 63 -248t172 -88zM587 -456q-63 0 -106 43.5 t-43 105.5t43 105.5t106 43.5t106 -43.5t43 -105.5t-43 -105.5t-106 -43.5z" />
<glyph unicode="&#x1ece;" horiz-adv-x="1541" d="M771 1468q321 0 508.5 -201t187.5 -546q0 -344 -188 -545t-508 -201q-321 0 -508.5 201t-187.5 545q0 345 187.5 546t508.5 201zM771 1216q-177 0 -282.5 -134t-105.5 -361q0 -226 105 -359.5t283 -133.5q177 0 282 133.5t105 359.5q0 227 -105 361t-282 134zM586 1780 v132q55 25 143 25q109 0 173 -52.5t64 -142.5q0 -72 -52 -133.5t-136 -94.5l-86 105q43 15 70 44.5t27 62.5q0 32 -27 52.5t-70 20.5q-60 0 -106 -19z" />
<glyph unicode="&#x1ecf;" horiz-adv-x="1173" d="M587 -23q-245 0 -388 149t-143 411q0 259 144.5 408.5t386.5 149.5q243 0 387 -149.5t144 -408.5q0 -263 -143 -411.5t-388 -148.5zM587 200q108 0 171 88t63 248q0 158 -63 247t-171 89t-171.5 -89t-63.5 -247q0 -160 63 -248t172 -88zM434 1454v135q64 27 149 27 q106 0 169.5 -56t63.5 -150q0 -70 -50 -132t-139 -100l-85 104q52 23 74 49t22 65q0 35 -28.5 57t-73.5 22q-52 0 -102 -21z" />
<glyph unicode="&#x1ed0;" horiz-adv-x="1541" d="M771 1468q321 0 508.5 -201t187.5 -546q0 -344 -188 -545t-508 -201q-321 0 -508.5 201t-187.5 545q0 345 187.5 546t508.5 201zM771 1216q-177 0 -282.5 -134t-105.5 -361q0 -226 105 -359.5t283 -133.5q177 0 282 133.5t105 359.5q0 227 -105 361t-282 134zM655 1820 h232l268 -282h-227l-153 167h-8l-153 -167h-227zM880 1878l185 248h246l-215 -248h-216z" />
<glyph unicode="&#x1ed1;" horiz-adv-x="1173" d="M587 -23q-245 0 -388 149t-143 411q0 259 144.5 408.5t386.5 149.5q243 0 387 -149.5t144 -408.5q0 -263 -143 -411.5t-388 -148.5zM587 200q108 0 171 88t63 248q0 158 -63 247t-171 89t-171.5 -89t-63.5 -247q0 -160 63 -248t172 -88zM700 1521l263 -308h-224l-148 179 h-8l-148 -179h-224l263 308h226zM744 1562l206 288h243l-235 -288h-214z" />
<glyph unicode="&#x1ed2;" horiz-adv-x="1541" d="M771 1468q321 0 508.5 -201t187.5 -546q0 -344 -188 -545t-508 -201q-321 0 -508.5 201t-187.5 545q0 345 187.5 546t508.5 201zM771 1216q-177 0 -282.5 -134t-105.5 -361q0 -226 105 -359.5t283 -133.5q177 0 282 133.5t105 359.5q0 227 -105 361t-282 134zM655 1820 h232l268 -282h-227l-153 167h-8l-153 -167h-227zM1140 1878h-216l-215 248h246z" />
<glyph unicode="&#x1ed3;" horiz-adv-x="1173" d="M587 -23q-245 0 -388 149t-143 411q0 259 144.5 408.5t386.5 149.5q243 0 387 -149.5t144 -408.5q0 -263 -143 -411.5t-388 -148.5zM587 200q108 0 171 88t63 248q0 158 -63 247t-171 89t-171.5 -89t-63.5 -247q0 -160 63 -248t172 -88zM700 1521l263 -308h-224l-148 179 h-8l-148 -179h-224l263 308h226zM1032 1562h-214l-235 288h243z" />
<glyph unicode="&#x1ed4;" horiz-adv-x="1541" d="M771 1468q321 0 508.5 -201t187.5 -546q0 -344 -188 -545t-508 -201q-321 0 -508.5 201t-187.5 545q0 345 187.5 546t508.5 201zM771 1216q-177 0 -282.5 -134t-105.5 -361q0 -226 105 -359.5t283 -133.5q177 0 282 133.5t105 359.5q0 227 -105 361t-282 134zM655 1820 h232l268 -282h-227l-153 167h-8l-153 -167h-227zM889 1981v126q52 26 135 26q102 0 162.5 -51t60.5 -138q0 -67 -40.5 -123.5t-110.5 -83.5l-92 98q74 28 74 94q0 31 -25 50t-66 19q-55 0 -98 -17z" />
<glyph unicode="&#x1ed5;" horiz-adv-x="1173" d="M587 -23q-245 0 -388 149t-143 411q0 259 144.5 408.5t386.5 149.5q243 0 387 -149.5t144 -408.5q0 -263 -143 -411.5t-388 -148.5zM587 200q108 0 171 88t63 248q0 158 -63 247t-171 89t-171.5 -89t-63.5 -247q0 -160 63 -248t172 -88zM705 1711v130q47 22 120 22 q106 0 168 -51.5t62 -138.5q0 -157 -165 -219l-88 96q42 16 65.5 44.5t23.5 60.5t-26 52t-68 20q-51 0 -92 -16zM700 1521l263 -308h-224l-148 179h-8l-148 -179h-224l263 308h226z" />
<glyph unicode="&#x1ed6;" horiz-adv-x="1541" d="M771 1468q321 0 508.5 -201t187.5 -546q0 -344 -188 -545t-508 -201q-321 0 -508.5 201t-187.5 545q0 345 187.5 546t508.5 201zM771 1216q-177 0 -282.5 -134t-105.5 -361q0 -226 105 -359.5t283 -133.5q177 0 282 133.5t105 359.5q0 227 -105 361t-282 134zM904 1875 q-48 0 -89.5 19.5t-65 43t-50.5 43t-49 19.5q-33 0 -52 -28.5t-21 -75.5h-159q0 114 61.5 182t158.5 68q39 0 73.5 -12.5t58 -31t43.5 -36.5t40 -30.5t39 -12.5q32 0 51 27.5t22 76.5h159q0 -112 -62.5 -182t-157.5 -70zM655 1815h232l268 -277h-227l-153 163h-8l-153 -163 h-227z" />
<glyph unicode="&#x1ed7;" horiz-adv-x="1173" d="M587 -23q-245 0 -388 149t-143 411q0 259 144.5 408.5t386.5 149.5q243 0 387 -149.5t144 -408.5q0 -263 -143 -411.5t-388 -148.5zM587 200q108 0 171 88t63 248q0 158 -63 247t-171 89t-171.5 -89t-63.5 -247q0 -160 63 -248t172 -88zM700 1511l263 -298h-224l-148 171 h-8l-148 -171h-224l263 298h226zM724 1580q-39 0 -73.5 14t-59 33.5t-46 39t-43.5 33.5t-42 14q-34 0 -52.5 -31.5t-18.5 -83.5h-158q0 123 62 194.5t158 71.5q47 0 89 -21t67 -46t54.5 -46t53.5 -21q67 0 70 119h158q0 -122 -62.5 -196t-156.5 -74z" />
<glyph unicode="&#x1ed8;" horiz-adv-x="1541" d="M771 1468q321 0 508.5 -201t187.5 -546q0 -344 -188 -545t-508 -201q-321 0 -508.5 201t-187.5 545q0 345 187.5 546t508.5 201zM771 1216q-177 0 -282.5 -134t-105.5 -361q0 -226 105 -359.5t283 -133.5q177 0 282 133.5t105 359.5q0 227 -105 361t-282 134zM659 1855 h224l269 -317h-221l-156 192h-8l-156 -192h-221zM771 -456q-63 0 -106 43.5t-43 105.5t43 105.5t106 43.5t106 -43.5t43 -105.5t-43 -105.5t-106 -43.5z" />
<glyph unicode="&#x1ed9;" horiz-adv-x="1173" d="M587 -23q-245 0 -388 149t-143 411q0 259 144.5 408.5t386.5 149.5q243 0 387 -149.5t144 -408.5q0 -263 -143 -411.5t-388 -148.5zM587 200q108 0 171 88t63 248q0 158 -63 247t-171 89t-171.5 -89t-63.5 -247q0 -160 63 -248t172 -88zM699 1531l263 -318h-223l-149 186 h-7l-148 -186h-224l264 318h224zM587 -456q-63 0 -106 43.5t-43 105.5t43 105.5t106 43.5t106 -43.5t43 -105.5t-43 -105.5t-106 -43.5z" />
<glyph unicode="&#x1eda;" horiz-adv-x="1599" d="M771 -25q-322 0 -509 201t-187 545t187.5 545.5t508.5 201.5q88 0 220.5 -25t210.5 -25q56 0 82.5 21.5t26.5 67.5v163h231v-231q0 -97 -54.5 -151.5t-152.5 -54.5h-61v-7q82 -63 137.5 -208.5t55.5 -296.5q0 -344 -187.5 -545t-508.5 -201zM771 228q178 0 282.5 133.5 t104.5 359.5q0 227 -104.5 361t-282.5 134t-283 -134t-105 -361q0 -226 105 -359.5t283 -133.5zM886 1558h-230l226 305h271z" />
<glyph unicode="&#x1edb;" horiz-adv-x="1256" d="M587 200q109 0 171.5 88.5t62.5 247.5q0 158 -63 247t-171 89t-171.5 -89t-63.5 -247q0 -159 63 -247.5t172 -88.5zM1117 518q0 -244 -144.5 -392.5t-380.5 -148.5q-250 0 -393 149t-143 411q0 258 143.5 408t387.5 150q78 0 162.5 -20t124.5 -20q58 0 82.5 19t24.5 64 v141h229v-216q0 -89 -46.5 -137.5t-131.5 -48.5h-34v-6q119 -128 119 -353zM701 1223h-233l221 310h268z" />
<glyph unicode="&#x1edc;" horiz-adv-x="1599" d="M771 -25q-322 0 -509 201t-187 545t187.5 545.5t508.5 201.5q88 0 220.5 -25t210.5 -25q56 0 82.5 21.5t26.5 67.5v163h231v-231q0 -97 -54.5 -151.5t-152.5 -54.5h-61v-7q82 -63 137.5 -208.5t55.5 -296.5q0 -344 -187.5 -545t-508.5 -201zM771 228q178 0 282.5 133.5 t104.5 359.5q0 227 -104.5 361t-282.5 134t-283 -134t-105 -361q0 -226 105 -359.5t283 -133.5zM653 1563l-267 305h271l226 -305h-230z" />
<glyph unicode="&#x1edd;" horiz-adv-x="1256" d="M587 200q109 0 171.5 88.5t62.5 247.5q0 158 -63 247t-171 89t-171.5 -89t-63.5 -247q0 -159 63 -247.5t172 -88.5zM1117 518q0 -244 -144.5 -392.5t-380.5 -148.5q-250 0 -393 149t-143 411q0 258 143.5 408t387.5 150q78 0 162.5 -20t124.5 -20q58 0 82.5 19t24.5 64 v141h229v-216q0 -89 -46.5 -137.5t-131.5 -48.5h-34v-6q119 -128 119 -353zM706 1223h-233l-256 310h268z" />
<glyph unicode="&#x1ede;" horiz-adv-x="1599" d="M771 -25q-322 0 -509 201t-187 545t187.5 545.5t508.5 201.5q88 0 220.5 -25t210.5 -25q56 0 82.5 21.5t26.5 67.5v163h231v-231q0 -97 -54.5 -151.5t-152.5 -54.5h-61v-7q82 -63 137.5 -208.5t55.5 -296.5q0 -344 -187.5 -545t-508.5 -201zM771 228q178 0 282.5 133.5 t104.5 359.5q0 227 -104.5 361t-282.5 134t-283 -134t-105 -361q0 -226 105 -359.5t283 -133.5zM586 1780v132q55 25 143 25q109 0 173 -52.5t64 -142.5q0 -72 -52 -133.5t-136 -94.5l-86 105q43 15 70 44.5t27 62.5q0 32 -27 52.5t-70 20.5q-60 0 -106 -19z" />
<glyph unicode="&#x1edf;" horiz-adv-x="1256" d="M587 200q109 0 171.5 88.5t62.5 247.5q0 158 -63 247t-171 89t-171.5 -89t-63.5 -247q0 -159 63 -247.5t172 -88.5zM1117 518q0 -244 -144.5 -392.5t-380.5 -148.5q-250 0 -393 149t-143 411q0 258 143.5 408t387.5 150q78 0 162.5 -20t124.5 -20q58 0 82.5 19t24.5 64 v141h229v-216q0 -89 -46.5 -137.5t-131.5 -48.5h-34v-6q119 -128 119 -353zM434 1454v135q64 27 149 27q106 0 169.5 -56t63.5 -150q0 -70 -50 -132t-139 -100l-85 104q52 23 74 49t22 65q0 35 -28.5 57t-73.5 22q-52 0 -102 -21z" />
<glyph unicode="&#x1ee0;" horiz-adv-x="1599" d="M771 -25q-322 0 -509 201t-187 545t187.5 545.5t508.5 201.5q88 0 220.5 -25t210.5 -25q56 0 82.5 21.5t26.5 67.5v163h231v-231q0 -97 -54.5 -151.5t-152.5 -54.5h-61v-7q82 -63 137.5 -208.5t55.5 -296.5q0 -344 -187.5 -545t-508.5 -201zM771 228q178 0 282.5 133.5 t104.5 359.5q0 227 -104.5 361t-282.5 134t-283 -134t-105 -361q0 -226 105 -359.5t283 -133.5zM913 1563q-47 0 -89.5 21.5t-67.5 46.5t-54.5 46.5t-53.5 21.5q-34 0 -52 -33t-18 -89h-159q0 128 62 201t158 73q40 0 75.5 -14t60 -33.5t46 -39.5t43 -34t40.5 -14 q66 0 69 124h159q0 -126 -62.5 -201.5t-156.5 -75.5z" />
<glyph unicode="&#x1ee1;" horiz-adv-x="1256" d="M587 200q109 0 171.5 88.5t62.5 247.5q0 158 -63 247t-171 89t-171.5 -89t-63.5 -247q0 -159 63 -247.5t172 -88.5zM1117 518q0 -244 -144.5 -392.5t-380.5 -148.5q-250 0 -393 149t-143 411q0 258 143.5 408t387.5 150q78 0 162.5 -20t124.5 -20q58 0 82.5 19t24.5 64 v141h229v-216q0 -89 -46.5 -137.5t-131.5 -48.5h-34v-6q119 -128 119 -353zM731 1218q-39 0 -73.5 14t-59 34t-46.5 40t-44 34t-42 14q-34 0 -52 -33t-18 -89h-159q0 128 62 201t158 73q40 0 75.5 -14t60 -34t46 -39.5t43 -33.5t40.5 -14q66 0 69 124h159 q0 -126 -62.5 -201.5t-156.5 -75.5z" />
<glyph unicode="&#x1ee2;" horiz-adv-x="1599" d="M771 -25q-322 0 -509 201t-187 545t187.5 545.5t508.5 201.5q88 0 220.5 -25t210.5 -25q56 0 82.5 21.5t26.5 67.5v163h231v-231q0 -97 -54.5 -151.5t-152.5 -54.5h-61v-7q82 -63 137.5 -208.5t55.5 -296.5q0 -344 -187.5 -545t-508.5 -201zM771 228q178 0 282.5 133.5 t104.5 359.5q0 227 -104.5 361t-282.5 134t-283 -134t-105 -361q0 -226 105 -359.5t283 -133.5zM771 -456q-63 0 -106 43.5t-43 105.5t43 105.5t106 43.5t106 -43.5t43 -105.5t-43 -105.5t-106 -43.5z" />
<glyph unicode="&#x1ee3;" horiz-adv-x="1256" d="M587 200q109 0 171.5 88.5t62.5 247.5q0 158 -63 247t-171 89t-171.5 -89t-63.5 -247q0 -159 63 -247.5t172 -88.5zM1117 518q0 -244 -144.5 -392.5t-380.5 -148.5q-250 0 -393 149t-143 411q0 258 143.5 408t387.5 150q78 0 162.5 -20t124.5 -20q58 0 82.5 19t24.5 64 v141h229v-216q0 -89 -46.5 -137.5t-131.5 -48.5h-34v-6q119 -128 119 -353zM587 -456q-63 0 -106 43.5t-43 105.5t43 105.5t106 43.5t106 -43.5t43 -105.5t-43 -105.5t-106 -43.5z" />
<glyph unicode="&#x1ee4;" horiz-adv-x="1449" d="M422 1443v-903q0 -141 79.5 -223.5t223.5 -82.5q143 0 222.5 82.5t79.5 223.5v903h302v-933q0 -240 -164.5 -387.5t-439.5 -147.5q-276 0 -440.5 147.5t-164.5 387.5v933h302zM725 -456q-63 0 -106 43.5t-43 105.5t43 105.5t106 43.5t106 -43.5t43 -105.5t-43 -105.5 t-106 -43.5z" />
<glyph unicode="&#x1ee5;" horiz-adv-x="1180" d="M1085 1072v-1072h-282v193h-6q-84 -213 -321 -213q-176 0 -281 107.5t-105 293.5v691h292v-630q0 -107 51.5 -163t148.5 -56t154 64t57 171v614h292zM589 -456q-63 0 -106 43.5t-43 105.5t43 105.5t106 43.5t106 -43.5t43 -105.5t-43 -105.5t-106 -43.5z" />
<glyph unicode="&#x1ee6;" horiz-adv-x="1449" d="M422 1443v-903q0 -141 79.5 -223.5t223.5 -82.5q143 0 222.5 82.5t79.5 223.5v903h302v-933q0 -240 -164.5 -387.5t-439.5 -147.5q-276 0 -440.5 147.5t-164.5 387.5v933h302zM540 1780v132q55 25 143 25q109 0 173 -52.5t64 -142.5q0 -72 -52 -133.5t-136 -94.5l-86 105 q43 15 70 44.5t27 62.5q0 32 -27 52.5t-70 20.5q-60 0 -106 -19z" />
<glyph unicode="&#x1ee7;" horiz-adv-x="1180" d="M1085 1072v-1072h-282v193h-6q-84 -213 -321 -213q-176 0 -281 107.5t-105 293.5v691h292v-630q0 -107 51.5 -163t148.5 -56t154 64t57 171v614h292zM436 1454v135q64 27 149 27q106 0 169.5 -56t63.5 -150q0 -70 -50 -132t-139 -100l-85 104q52 23 74 49t22 65 q0 35 -28.5 57t-73.5 22q-52 0 -102 -21z" />
<glyph unicode="&#x1ee8;" horiz-adv-x="1673" d="M725 -25q-274 0 -439.5 146.5t-165.5 388.5v933h302v-904q0 -142 81 -223.5t222 -81.5t221.5 81.5t80.5 223.5v904h313q80 0 80 77v182h231v-239q0 -101 -60.5 -157t-166.5 -56h-95v-740q0 -242 -165 -388.5t-439 -146.5zM840 1558h-230l226 305h271z" />
<glyph unicode="&#x1ee9;" horiz-adv-x="1319" d="M797 193q-84 -213 -321 -213q-176 0 -281 107.5t-105 293.5v691h292v-630q0 -107 51.5 -163t148.5 -56t154 64t57 171v614h293q77 0 77 74v155h229v-212q0 -98 -58.5 -153.5t-163.5 -55.5h-85v-880h-282v193h-6zM703 1223h-233l221 310h268z" />
<glyph unicode="&#x1eea;" horiz-adv-x="1673" d="M725 -25q-274 0 -439.5 146.5t-165.5 388.5v933h302v-904q0 -142 81 -223.5t222 -81.5t221.5 81.5t80.5 223.5v904h313q80 0 80 77v182h231v-239q0 -101 -60.5 -157t-166.5 -56h-95v-740q0 -242 -165 -388.5t-439 -146.5zM607 1563l-267 305h271l226 -305h-230z" />
<glyph unicode="&#x1eeb;" horiz-adv-x="1319" d="M797 193q-84 -213 -321 -213q-176 0 -281 107.5t-105 293.5v691h292v-630q0 -107 51.5 -163t148.5 -56t154 64t57 171v614h293q77 0 77 74v155h229v-212q0 -98 -58.5 -153.5t-163.5 -55.5h-85v-880h-282v193h-6zM708 1223h-233l-256 310h268z" />
<glyph unicode="&#x1eec;" horiz-adv-x="1673" d="M725 -25q-274 0 -439.5 146.5t-165.5 388.5v933h302v-904q0 -142 81 -223.5t222 -81.5t221.5 81.5t80.5 223.5v904h313q80 0 80 77v182h231v-239q0 -101 -60.5 -157t-166.5 -56h-95v-740q0 -242 -165 -388.5t-439 -146.5zM540 1780v132q55 25 143 25q109 0 173 -52.5 t64 -142.5q0 -72 -52 -133.5t-136 -94.5l-86 105q43 15 70 44.5t27 62.5q0 32 -27 52.5t-70 20.5q-60 0 -106 -19z" />
<glyph unicode="&#x1eed;" horiz-adv-x="1319" d="M797 193q-84 -213 -321 -213q-176 0 -281 107.5t-105 293.5v691h292v-630q0 -107 51.5 -163t148.5 -56t154 64t57 171v614h293q77 0 77 74v155h229v-212q0 -98 -58.5 -153.5t-163.5 -55.5h-85v-880h-282v193h-6zM436 1454v135q64 27 149 27q106 0 169.5 -56t63.5 -150 q0 -70 -50 -132t-139 -100l-85 104q52 23 74 49t22 65q0 35 -28.5 57t-73.5 22q-52 0 -102 -21z" />
<glyph unicode="&#x1eee;" horiz-adv-x="1673" d="M725 -25q-274 0 -439.5 146.5t-165.5 388.5v933h302v-904q0 -142 81 -223.5t222 -81.5t221.5 81.5t80.5 223.5v904h313q80 0 80 77v182h231v-239q0 -101 -60.5 -157t-166.5 -56h-95v-740q0 -242 -165 -388.5t-439 -146.5zM867 1563q-47 0 -89.5 21.5t-67.5 46.5 t-54.5 46.5t-53.5 21.5q-34 0 -52 -33t-18 -89h-159q0 128 62 201t158 73q40 0 75.5 -14t60 -33.5t46 -39.5t43 -34t40.5 -14q66 0 69 124h159q0 -126 -62.5 -201.5t-156.5 -75.5z" />
<glyph unicode="&#x1eef;" horiz-adv-x="1319" d="M797 193q-84 -213 -321 -213q-176 0 -281 107.5t-105 293.5v691h292v-630q0 -107 51.5 -163t148.5 -56t154 64t57 171v614h293q77 0 77 74v155h229v-212q0 -98 -58.5 -153.5t-163.5 -55.5h-85v-880h-282v193h-6zM733 1218q-39 0 -73.5 14t-59 34t-46.5 40t-44 34t-42 14 q-34 0 -52 -33t-18 -89h-159q0 128 62 201t158 73q40 0 75.5 -14t60 -34t46 -39.5t43 -33.5t40.5 -14q66 0 69 124h159q0 -126 -62.5 -201.5t-156.5 -75.5z" />
<glyph unicode="&#x1ef0;" horiz-adv-x="1673" d="M725 -25q-274 0 -439.5 146.5t-165.5 388.5v933h302v-904q0 -142 81 -223.5t222 -81.5t221.5 81.5t80.5 223.5v904h313q80 0 80 77v182h231v-239q0 -101 -60.5 -157t-166.5 -56h-95v-740q0 -242 -165 -388.5t-439 -146.5zM725 -456q-63 0 -106 43.5t-43 105.5t43 105.5 t106 43.5t106 -43.5t43 -105.5t-43 -105.5t-106 -43.5z" />
<glyph unicode="&#x1ef1;" horiz-adv-x="1319" d="M797 193q-84 -213 -321 -213q-176 0 -281 107.5t-105 293.5v691h292v-630q0 -107 51.5 -163t148.5 -56t154 64t57 171v614h293q77 0 77 74v155h229v-212q0 -98 -58.5 -153.5t-163.5 -55.5h-85v-880h-282v193h-6zM589 -456q-63 0 -106 43.5t-43 105.5t43 105.5t106 43.5 t106 -43.5t43 -105.5t-43 -105.5t-106 -43.5z" />
<glyph unicode="&#x1ef2;" horiz-adv-x="1362" d="M832 0h-302v539l-502 904h329l323 -616h7l324 616h324l-503 -904v-539zM563 1563l-267 305h271l226 -305h-230z" />
<glyph unicode="&#x1ef3;" horiz-adv-x="1112" d="M232 -397q-96 0 -110 3v225q9 -2 73 -2q81 0 123 27.5t57 91.5q0 1 5 25t4 26l-373 1073h321l228 -838h5l228 838h308l-369 -1096q-69 -206 -181.5 -289.5t-318.5 -83.5zM676 1223h-233l-256 310h268z" />
<glyph unicode="&#x1ef4;" horiz-adv-x="1362" d="M832 0h-302v539l-502 904h329l323 -616h7l324 616h324l-503 -904v-539zM681 -456q-63 0 -106 43.5t-43 105.5t43 105.5t106 43.5t106 -43.5t43 -105.5t-43 -105.5t-106 -43.5z" />
<glyph unicode="&#x1ef5;" horiz-adv-x="1112" d="M232 -397q-96 0 -110 3v225q9 -2 73 -2q81 0 123 27.5t57 91.5q0 1 5 25t4 26l-373 1073h321l228 -838h5l228 838h308l-369 -1096q-69 -206 -181.5 -289.5t-318.5 -83.5zM909 -456q-63 0 -106 43.5t-43 105.5t43 105.5t106 43.5t106 -43.5t43 -105.5t-43 -105.5 t-106 -43.5z" />
<glyph unicode="&#x1ef6;" horiz-adv-x="1362" d="M832 0h-302v539l-502 904h329l323 -616h7l324 616h324l-503 -904v-539zM496 1780v132q55 25 143 25q109 0 173 -52.5t64 -142.5q0 -72 -52 -133.5t-136 -94.5l-86 105q43 15 70 44.5t27 62.5q0 32 -27 52.5t-70 20.5q-60 0 -106 -19z" />
<glyph unicode="&#x1ef7;" horiz-adv-x="1112" d="M232 -397q-96 0 -110 3v225q9 -2 73 -2q81 0 123 27.5t57 91.5q0 1 5 25t4 26l-373 1073h321l228 -838h5l228 838h308l-369 -1096q-69 -206 -181.5 -289.5t-318.5 -83.5zM404 1454v135q64 27 149 27q106 0 169.5 -56t63.5 -150q0 -70 -50 -132t-139 -100l-85 104 q52 23 74 49t22 65q0 35 -28.5 57t-73.5 22q-52 0 -102 -21z" />
<glyph unicode="&#x1ef8;" horiz-adv-x="1362" d="M832 0h-302v539l-502 904h329l323 -616h7l324 616h324l-503 -904v-539zM823 1563q-47 0 -89.5 21.5t-67.5 46.5t-54.5 46.5t-53.5 21.5q-34 0 -52 -33t-18 -89h-159q0 128 62 201t158 73q40 0 75.5 -14t60 -33.5t46 -39.5t43 -34t40.5 -14q66 0 69 124h159 q0 -126 -62.5 -201.5t-156.5 -75.5z" />
<glyph unicode="&#x1ef9;" horiz-adv-x="1112" d="M232 -397q-96 0 -110 3v225q9 -2 73 -2q81 0 123 27.5t57 91.5q0 1 5 25t4 26l-373 1073h321l228 -838h5l228 838h308l-369 -1096q-69 -206 -181.5 -289.5t-318.5 -83.5zM701 1218q-39 0 -73.5 14t-59 34t-46.5 40t-44 34t-42 14q-34 0 -52 -33t-18 -89h-159 q0 128 62 201t158 73q40 0 75.5 -14t60 -34t46 -39.5t43 -33.5t40.5 -14q66 0 69 124h159q0 -126 -62.5 -201.5t-156.5 -75.5z" />
<glyph unicode="&#x2000;" horiz-adv-x="1024" />
<glyph unicode="&#x2001;" horiz-adv-x="2048" />
<glyph unicode="&#x2002;" horiz-adv-x="1226" />
<glyph unicode="&#x2003;" horiz-adv-x="1986" />
<glyph unicode="&#x2004;" horiz-adv-x="683" />
<glyph unicode="&#x2005;" horiz-adv-x="512" />
<glyph unicode="&#x2006;" horiz-adv-x="341" />
<glyph unicode="&#x2007;" horiz-adv-x="1326" />
<glyph unicode="&#x2008;" horiz-adv-x="569" />
<glyph unicode="&#x2009;" horiz-adv-x="410" />
<glyph unicode="&#x200a;" horiz-adv-x="114" />
<glyph unicode="&#x200b;" horiz-adv-x="0" />
<glyph unicode="&#x2060;" horiz-adv-x="0" />
<glyph unicode="&#x2010;" horiz-adv-x="905" d="M781 459h-657v255h657v-255z" />
<glyph unicode="&#x2012;" horiz-adv-x="1326" d="M1326 454h-1326v262h1326v-262z" />
<glyph unicode="&#x2013;" horiz-adv-x="1024" d="M1024 454h-1024v262h1024v-262z" />
<glyph unicode="&#x2014;" horiz-adv-x="2048" d="M2048 454h-2048v262h2048v-262z" />
<glyph unicode="&#x2018;" horiz-adv-x="594" d="M260 1443h218l-85 -563h-277z" />
<glyph unicode="&#x2019;" horiz-adv-x="594" d="M339 880h-218l75 563h277z" />
<glyph unicode="&#x201a;" horiz-adv-x="593" d="M350 -316h-218l75 564h277z" />
<glyph unicode="&#x201c;" horiz-adv-x="1062" d="M273 1443h219l-85 -563h-278zM715 1443h218l-75 -563h-277z" />
<glyph unicode="&#x201d;" horiz-adv-x="1062" d="M348 880h-219l75 563h278zM789 880h-218l85 563h277z" />
<glyph unicode="&#x201e;" horiz-adv-x="1062" d="M348 -316h-219l75 564h278zM799 -316h-218l75 564h277z" />
<glyph unicode="&#x2020;" horiz-adv-x="994" d="M617 1071v-517h-240v517h-240v228h240v266h240v-266h241v-228h-241z" />
<glyph unicode="&#x2021;" horiz-adv-x="994" d="M858 758h-241v-204h-240v204h-240v206h241v95v95h-241v206h240v205h240v-205h241v-206h-242v-95v-95h242v-206z" />
<glyph unicode="&#x2022;" horiz-adv-x="994" d="M497 210q-146 0 -251 105t-105 251t105 251.5t251 105.5t251.5 -105.5t105.5 -251.5t-105.5 -251t-251.5 -105z" />
<glyph unicode="&#x2023;" horiz-adv-x="994" d="M213 180v773l604 -387z" />
<glyph unicode="&#x2026;" horiz-adv-x="1665" d="M285 -12q-67 0 -114 47t-47 114t47 114t114 47t114 -47t47 -114t-47 -114t-114 -47zM833 -12q-67 0 -114 47t-47 114t47 114t114 47t114 -47t47 -114t-47 -114t-114 -47zM1381 -12q-67 0 -114 47t-47 114t47 114t114 47t114 -47t47 -114t-47 -114t-114 -47z" />
<glyph unicode="&#x202f;" horiz-adv-x="410" />
<glyph unicode="&#x2030;" horiz-adv-x="2417" d="M703 1097q0 -172 -88.5 -273t-240.5 -101q-151 0 -240 101t-89 273t89 273t240 101t240 -101t89 -273zM374 900q49 0 77 52.5t28 145.5t-28 146t-77 53t-77 -53t-28 -146t28 -145.5t77 -52.5zM430 0h-242l560 767l493 676h241l-544 -746zM1625 354q0 -173 -89 -274 t-240 -101t-240 101.5t-89 273.5t89 273t240 101t240 -101t89 -273zM1296 157q49 0 77 52.5t28 145.5t-28 146t-77 53t-77 -53t-28 -146t28 -145.5t77 -52.5zM2373 354q0 -172 -89 -273.5t-240 -101.5t-240 101t-89 274q0 172 89 273t240 101t240 -101t89 -273zM2044 157 q49 0 77 52.5t28 145.5t-28 146t-77 53t-77 -53t-28 -146t28 -145.5t77 -52.5z" />
<glyph unicode="&#x2032;" horiz-adv-x="593" d="M366 880h-238l102 563h273z" />
<glyph unicode="&#x2033;" horiz-adv-x="1045" d="M366 880h-238l102 563h273zM818 880h-239l103 563h272z" />
<glyph unicode="&#x2034;" horiz-adv-x="1496" d="M366 880h-238l102 563h273zM818 880h-239l103 563h272zM1269 880h-238l102 563h273z" />
<glyph unicode="&#x2039;" horiz-adv-x="845" d="M386 572v-10l346 -411h-275l-344 411v8l348 411h271z" />
<glyph unicode="&#x203a;" horiz-adv-x="845" d="M459 572l-346 409h271l348 -411v-8l-344 -411h-275l346 411v10z" />
<glyph unicode="&#x2043;" horiz-adv-x="994" d="M777 453h-560v263h560v-263z" />
<glyph unicode="&#x2044;" horiz-adv-x="225" d="M-293 0h-242l560 767l494 676h241l-545 -747z" />
<glyph unicode="&#x205f;" horiz-adv-x="512" />
<glyph unicode="&#x20ac;" horiz-adv-x="1326" d="M1120 488h-534q54 -127 168 -194.5t269 -67.5q142 0 206 16v-252q-82 -17 -207 -17q-292 0 -490.5 134.5t-263.5 380.5h-184v158h158q-3 38 -3 76q0 24 2 70h-157v158h182q64 249 263.5 384.5t492.5 135.5q124 0 203 -23v-249q-82 18 -198 18q-157 0 -273 -68.5 t-170 -197.5h536v-158h-575q-3 -34 -3 -70q0 -44 4 -76h574v-158z" />
<glyph unicode="&#x2122;" horiz-adv-x="1856" d="M518 698h-205v579h-228v166h662v-166h-229v-579zM1699 698h-175v462h-4l-195 -439h-110l-195 439h-4v-462h-175v745h237l190 -461h5l189 461h237v-745z" />
<glyph unicode="&#x2202;" horiz-adv-x="1232" d="M1152 698q0 -337 -155 -536t-417 -199q-221 0 -360.5 137.5t-139.5 354.5q0 218 129 358.5t331 140.5q101 0 193 -42.5t137 -109.5h18q-25 189 -173.5 335t-360.5 192l90 232q319 -61 513.5 -297.5t194.5 -565.5zM609 724q-108 0 -175.5 -73t-67.5 -190q0 -115 63 -186 t165 -71q125 0 202 108.5t79 286.5q-46 58 -117 91.5t-149 33.5z" />
<glyph unicode="&#x220f;" horiz-adv-x="1529" d="M1234 -290h-283v1484h-372v-1484h-282v1484h-227v249h1389v-249h-225v-1484z" />
<glyph unicode="&#x2211;" horiz-adv-x="1185" d="M1075 -43v-242h-955v242l466 616v12l-466 616v242h955v-242h-638v-10l461 -606v-12l-461 -606v-10h638z" />
<glyph unicode="&#x221a;" horiz-adv-x="1482" d="M45 708h289l199 -692h18l377 1427h544v-240h-333l-407 -1449h-378z" />
<glyph unicode="&#x221e;" horiz-adv-x="1854" d="M1357 170q-119 0 -219.5 59t-212.5 195q-111 -135 -211 -193.5t-219 -58.5q-190 0 -312.5 120t-122.5 306q0 187 124.5 310t312.5 123q121 0 224 -60t209 -194q105 133 206.5 192.5t223.5 59.5q189 0 311.5 -120t122.5 -305q0 -187 -124.5 -310.5t-312.5 -123.5zM513 794 q-84 0 -141 -55.5t-57 -137.5t57.5 -137.5t141.5 -55.5q68 0 131 44.5t143 148.5q-84 106 -146 149.5t-129 43.5zM1540 602q0 82 -57 137t-141 55q-70 0 -134.5 -45.5t-141.5 -148.5q87 -106 148 -148.5t126 -42.5q84 0 142 55.5t58 137.5z" />
<glyph unicode="&#x222b;" horiz-adv-x="1123" d="M233 -306q-107 0 -183 27l29 215q39 -15 101 -15q136 0 159 154l169 1101q51 327 383 327q108 0 182 -27l-29 -215q-39 15 -100 15q-136 0 -159 -153l-170 -1102q-51 -327 -382 -327z" />
<glyph unicode="&#x2248;" horiz-adv-x="1326" d="M491 749q-99 0 -106 -150h-204q-1 179 74 281.5t216 102.5q110 0 216 -93q48 -43 80 -63t66 -20q101 0 108 148h205q0 -176 -77.5 -280.5t-213.5 -104.5q-108 0 -217 94q-51 45 -83.5 65t-63.5 20zM491 265q-99 0 -106 -149h-204q-1 178 74 280.5t216 102.5 q112 0 216 -93q47 -43 79.5 -62.5t66.5 -19.5q101 0 108 147h205q0 -176 -77.5 -280.5t-213.5 -104.5q-107 0 -217 95q-51 44 -83.5 64t-63.5 20z" />
<glyph unicode="&#x2260;" horiz-adv-x="1326" d="M1187 689h-347l-84 -220h431v-249h-527l-85 -220h-257l85 220h-264v249h360l84 220h-444v249h540l74 192h257l-74 -192h251v-249z" />
<glyph unicode="&#x2264;" horiz-adv-x="1326" d="M140 45v228h1046v-228h-1046zM1186 621v-245l-1044 302v218l1044 302v-245l-667 -157v-18z" />
<glyph unicode="&#x2265;" horiz-adv-x="1326" d="M1185 45h-1043v228h1043v-228zM141 621l667 157v18l-667 157v245l1044 -302v-218l-1044 -302v245z" />
<glyph unicode="&#x25fc;" horiz-adv-x="1070" d="M0 1070h1070v-1070h-1070v1070z" />
</font>
</defs>
</svg>
